<mxfile host="app.diagrams.net" modified="2021-07-11T16:23:46.847Z" agent="5.0 (Windows NT 10.0; WOW64) AppleWebKit/537.36 (KHTML, like Gecko) Chrome/87.0.4280.141 Safari/537.36" etag="8euOlh_QbUwsl0ObubfS" version="14.2.9" type="github">
  <diagram id="wFE0QG_FPsp0jaGvCLVb" name="Page-1">
    <mxGraphModel dx="1422" dy="706" grid="1" gridSize="10" guides="1" tooltips="1" connect="1" arrows="1" fold="1" page="1" pageScale="1" pageWidth="850" pageHeight="1100" background="#F1FAEE" math="0" shadow="0">
      <root>
        <mxCell id="0" />
        <mxCell id="1" parent="0" />
        <mxCell id="dSbTfwvZeGPVF9yTLijO-125" value="" style="rounded=1;whiteSpace=wrap;html=1;sketch=0;fillColor=#eeeeee;strokeColor=#36393d;dashed=1;" vertex="1" parent="1">
          <mxGeometry x="20" y="130.77" width="1280" height="735.5" as="geometry" />
        </mxCell>
        <mxCell id="dSbTfwvZeGPVF9yTLijO-44" style="edgeStyle=orthogonalEdgeStyle;curved=1;orthogonalLoop=1;jettySize=auto;html=1;entryX=0.5;entryY=1;entryDx=0;entryDy=0;strokeColor=#457B9D;fontColor=#1D3557;shape=link;strokeWidth=5;labelBackgroundColor=#F1FAEE;" edge="1" parent="1" source="dSbTfwvZeGPVF9yTLijO-122">
          <mxGeometry relative="1" as="geometry">
            <mxPoint x="629" y="570" as="sourcePoint" />
            <mxPoint x="134" y="528.52" as="targetPoint" />
          </mxGeometry>
        </mxCell>
        <mxCell id="dSbTfwvZeGPVF9yTLijO-33" style="edgeStyle=orthogonalEdgeStyle;curved=1;orthogonalLoop=1;jettySize=auto;html=1;strokeColor=#457B9D;fontColor=#1D3557;shape=link;strokeWidth=5;labelBackgroundColor=#F1FAEE;" edge="1" parent="1" source="dSbTfwvZeGPVF9yTLijO-12" target="dSbTfwvZeGPVF9yTLijO-1">
          <mxGeometry relative="1" as="geometry" />
        </mxCell>
        <mxCell id="dSbTfwvZeGPVF9yTLijO-35" style="edgeStyle=orthogonalEdgeStyle;curved=1;orthogonalLoop=1;jettySize=auto;html=1;entryX=1;entryY=0.5;entryDx=0;entryDy=0;strokeColor=#457B9D;fontColor=#1D3557;shape=link;strokeWidth=5;labelBackgroundColor=#F1FAEE;" edge="1" parent="1" target="dSbTfwvZeGPVF9yTLijO-1">
          <mxGeometry relative="1" as="geometry">
            <mxPoint x="654.52" y="595" as="sourcePoint" />
          </mxGeometry>
        </mxCell>
        <mxCell id="dSbTfwvZeGPVF9yTLijO-8" value="【安全合规检查】-Xray" style="shape=image;verticalLabelPosition=bottom;verticalAlign=top;aspect=fixed;imageAspect=0;image=data:image/png,iVBORw0KGgoAAAANSUhEUgAAAMgAAADICAYAAACtWK6eAAAbRElEQVR4Xu1dC5QcZZX+bvVMQpAcDSpvdQ1PJStqsiiv6eokwoIKPjaKrnlNV08IGPERQro6MBlIVw8kLDkmQJyuDkFEFFE8CU8l6eqZgMCKYAAFJCouBBAFXdQhme66e2ry2CRm0l3vqu6/zsmR49zHd7/7f13V1VX3J4hDMCAYGJEBEtwIBgQDIzMgBCJWh2BgPwwIgYjlIRgQAon2Gkj3q1OIcSRMjAdhCyWkLTRmaKBv0lV/jTby5kcnziAh9fiCBxYfUh0aOh/g8wGcsi8YDKwB6EclOb8uJJgtn1YIJIQlkK7kOojRB/DxjaRn8E/QTt8onaY92Yi9sPGOASEQ77hsKFLayE0j5iIIb23IYacRYQuY5uty/lZbfsLYFQNCIK7os+ecLue+TMQr7HntZS2Rpnfkc65iCOeGGRACaZgqd4aZSu5KZl7kLsou73VU5fnFqYVnPYonwozAgBBIAEtDKavWJZXiaSrC7wCerycLP/I0rgi2BwNCID4uiMyGy07kRO0aMM7yLQ1jsZ7SenyL3+KBhUB8WgCZivo5ZlwD4CifUuwe9nau0fzSlPzzAeRqqRRCID60O2Pkehh8uQ+hRw7JeEZK4Bt9HdpdgeZt8mRCIB42OL0+9x608TXE+KyHYe2FYs7qqUKvPSdhPRIDQiAerQ2lkj0HTNYl1QkehXQehuiWqrlt/prU0pedBxGeFgNCIB6sA8VQLwFwtQehvAyxiZm7S6nCj70M2mqxhEBcdLzTyJ6SIMox4+MuwvjrSrS8arb1rEn1/MXfRM0ZXQjEQV+7y91tL2JoEQjWL9ptDkIE7fI4M/eIs4l92oVAbHKW3qB+nKRhYezzCVyb4YI1F2cT23wLgTRImdKvfoBruJAIcxp0iaqZOJvY6IwQSB2y5lQWHVtD7UIwzQUw2ga30TZl3E7MK4uTC5VoAw0XnRDICPzPruTe1cY8lxkX2n40Pdye2stOVKI2Xlk8TXvcnmNrWAuB7NXnzP3Z47idZoA5DdBhrbEMeIhAK6sJc+WNZ/T+tjVqbqxKIZAdPFm3bCUaFsZMgMY0Rl+zWdGfwHwd2FynT+59tNmqc1JPywskU85+ggkzAJrmhMDm9WEDTHdSG68rntG67520pEAyhno2COcxcCYY723eRe5ZZdbQiDslCev6OrSXPIsag0BNL5B5d88bPXjAWyYw0QQi+giAzwA4NAa9iSLENwC+E0QPcA1Pm2286caOwqtRBOoVpqYRSOfGBWOxjcYnEonjmTEBwAQGJhBwrFdkiTj7ZOC3RPg1m/wEJOlxEP966+C2zTeftezvzcBXLARiLf62QRpXTWCcRDSOJWk8DQ9Z4/HMNJ4I4wG8sxka0jw18Mtg2gyJngPzZiZsBvHz5ja8zolRr40dfO31Fees2Br1ej0ViDUMjXno3bWa+W5m6RhiPnAkAogwionHsEljSKIDwGzdORoD8BhmGkuEccCuf3F43inqvY4iPuss8xqA1wF+jUCDDLwJYBBEgwRzkJkGYf1/DHOkAhh4AQn8ro2lP4w64pA/rDj2K54JzxOBXLA+d2Q1wd/ccX0fxUYITK3CAONFJvpmSc578vqBa4EoFfUiMFa2Cv+izpgwQNikJ7WT3KJ1JZA5/dn310x6yi0I4S8Y8ImBAV3WOtzEdiWQtKEOEHC6GwDCVzDgKwPEip4slJzmcCwQpawuBqHbaWLhJxgIigETfOpqufAzJ/kcCyRTUe+M9KumTtgQPk3KAN2oy/lOJ8U5FohiZF8B6BAnSYWPYCBgBp7TZc3RD8aOBJIZyB7HNXom4CJFOsGAYwZqCfNoJ4/yOxKIUl4og6SyY7TCUTAQNANspvRUr2E3rRCIXcaEfTwZEAKJZ98E6oAYEAIJiGiRJp4MCIHEs28CdUAMCIEERLRIE08GhEDi2TeBOiAGhEACIlqkiScDQiDx7JtAHRADQiABES3SxJMBIZB49k2gDogBIZCAiBZp4smAEEg8+yZQB8SAEEhARIs08WRACCSefROoA2JACCQgokWaeDIgBBLPvgnUATEgBBIQ0SJNPBkQAoln3wTqgBgQAgmIaJFmDwYY+DOAZwFYMwqeZZOs/wZJfBwA69/x1v8S8PZQqRMCCZX+Vkz+CjMvK6UKyxopPl3Oziei+aHtzSIE0kibhI0nDDBWSaa0rG/Kks124nWtX3S0KZnzQbjAjp8ntkIgntAoguyfgU1mzbxk9ZTen7ghqnP9wjOlhHQdgGPcxLHlKwRiiy5hbJ+Bn0k1abrds8ZIaYZ3FWa6J7A96IVA7HdceDTIAPP9VVSnr0ktfblBj4bMOjfkPitJfHtDxm6NhEDcMij898UAAT+utVVnrD796jf8YEip5K4F81f9iL1HTCEQ3yluvQREtxzZ0Tajh3pG3P7MLSmzyt1va6Mha0rnB93G2q+/EIiv9LZi8D5d1uYEUbhi5PIAq77mEgLxld6WCk7AtUVZ+3pQRWfK6geZ8Jiv+YRAfKW3ZYIz0ZJSMn9Z0AUrhvq/AMb6llcIxDdqWycwc1ZPFXrDKFgxVOtRFevRFH8OIRB/eG2VqAR8pShrK8KqVzGyZYBk3/ILgfhGbdMHZhPp0mRtdZiFijNImOyL3CMxsI0I04tJ7bawKRLfQcLugMi/NwOvSxKm93Vod4VNTVc5e4JJ9GtfcYhLLF/pbbLg/AI4MV1PLbG9JZkfRKQNNUuA5kfsXTGFQHylt3mCM54hSkwvylf+dxSKmnZb96i3HjJk7WH+YV/xCIH4Sm+zBP8FmbUZxclXPRWVgjKV3HxmXuo7HiEQ3ymOdwKi/jazNnNVqvf3USmkc+Oi46WqeT+Ao3zHJATiO8WxTcDAPabEM2/sKLwapSKUiroRjNMCwSQEEgjNcUxyu3TQqJl9kxb/I0rgFUP9FoCuwDAJgQRGdXwSMd2kp/KzogY4U8ktZWZrgENwhxBIcFzHIRMD15dk7aKoYVUMtQhACRoXm3x6aXLhAbt5ya6DZZ/ZcNmJLNWedOIrfAJhYKkuawsCyWQjiWKoPwDwHzZcPDOlBB9fPKMwPLPLzuFIIBc8sPiQ6tC2V+wkCtKWgW0AtgB4iUAHMfiI0AeXBUUAY7Ge0nqCStdoHsVQrUkoH2vU3mu79oR58A1n9L5uN64jgXR3d0svpoZqdpP5a0/3gszbE4Sffauj8Ku9c3VuXDBWGpImAtJEEKzr8gn+4gk+OjNf0uggtyDRKYb6CIB/CzLnHrmYa3qq0OYkvyOBWIkUQ/0Twh4nub3iJ0FYqie1bzdKwPT75r9l9Oj2iwG6BMDbGvWLth1fqMuFG6KGMW2ozxJwbLi4+GVdLhzuBIMbgVgPl53gJKlnPoT1krn1/L7UNZZYbR/Wq54gdDPwKdvOUXIgzLTzAREUdMVQ/wjgnUHlGzkPPaHL+Q84weFYIGlDHSDgdCdJPfEhWq4n81/zIlamkl3ETFd6ESvgGP8giWYUO/I/DDjvftN1c7f0Yv/QIBijooCLgXJJ1iY7weJYIIqh/gjAp50k9cDncV3WPuRBnF0hMhX1YmYs9zKmz7FeNYGZq2XtHp/z2AqffrD7YNo2ZE18j9Jxmy5rn3cCyI1Agv0ldLfqTJPPWz25sNZJwfvzyVTUTmaUvI7reTzC7xg0q5TM93se20XA2T9dOD7RLtkaaO0iXeOuhOv0pPblxh3+39KFQLJ5gPydZbTPitjQ5ULKSbGN+KSN3DQCW1/4D2jEPgSbJ2Gas/TJvY+GkHvElOnKZR8irv0iSph2YWH06CltsRNsjgUS2iUJs6KnCr5+yqfLi/6dyLREEoEvmLt9mhEeJpNn9aUKTztptl8+XYaaMoENfsV3G5dBF5Xk/PVO4jgWiGLkvgDwd50kdeHz9yq3H7Um1fMXFzEack33Z08jkyyRjG/IwXcj3jCKpFnXJ/P/43sqGwkyRu7TDLa+j0b3YJ6mpwqOhmQ7Fki6X51CJqxn+QM7rEHKRVkL7MZA54ZLTyKSbiKikwIrct+J1m2r8uxvTy1E6suvYmRnAxTqNJRG+sJESaff1xwLRLlf/QDa8MtGAHpmw5ivp7RrPIvXQCBrV6RawlwT1i1tAr43xO2z16R63mwAbmAmSn/uqzD52sASukgkMb/P6WWpY4HMKl9yWBu1v+QCtwNX+qIu52914OjKxXr2bGhomyWSs10FsutMVNKT+cCffK0HUymri60fWOvZReXvPKr97aVTe15zgsexQEJ5HsvhM/1OiNnbp2vd4gPNsdtuBPA5L+I1EGOFLmtfacAuUJN0WV1OhIsDTeoiGQHVoqy1Ow3hWCBWQsVQrVc43+E0uX2/cM4gu+NUyjkdxGn72G14MPfqqULWhkcgpko5uwZEMwNJ5lUSwhY9qR3pNJwrgWQM9SkG3u80uW2/EL6D7AujUsleCyZfdkUi5suKqcIS29z47JAx1Dvi+MwaM/+ylCo43pzHlUB8Hzj8T03nW3W58EWf10JD4RVDvQKAp9sEMPD1kqxF7otv8H1uqAUNGVkDK0qydk5DxvswciWQtJHrI3DGaXIHfm+YbdUj/dovzy6etJFdQKCr7PqNYD9Hl7U+j2J5FkYxVGtjG8efwJ4BcRqIeLmeLDh+qNWVQAIb+rUnOZFaSIqRnQuQo19ph8tirgE0S09p33G6BvzyUwz1twDe61f8IOKSRHOLHflVTnO5EoiyIXceJP6x0+QO/R7VZW2SQ19f3NJGdjqBrDtcCZsJ/kqg2UU5f4dNP9/NFUO1bouO8z2R3wlq5hR9Sq/jx2DcCaSy6H1g859eb/W7ZoBzulzwd9ixzSJ2PHJh/arc2BuKhC0mpNmrk0usd7Ujc8y7e97owQMPGgTI1dqISkFtNTpq1ZT8i07xuCJBLne3HUNDQ06Tu/FzOsbFTc56vpnyoqlMpiWSd9WxfY4lnlXqsD+Gph4GN3+P+jAOB7X9TZc1V/seuhKIBVipqJvB4TzQ99dRgwf+4NRrBx0Q55uLUs59lCQuMe/79rd12xESzy4le/3d1dVmhZmB7HFcI2ufwGY6fqHL2kQ3BbkXSFm9F4Sz3IBw47vjrpY14icyR2bjZSdytWadSU7eC9SDVOXZxan25zP5WVy6P3cymfywnznCie3+ZwH3AjHUbwKYFw4B27NSW2JC8fQrIzPS38KUXp97DyWsyy3a+S70T9tqNNvN9bAfHHeuX3imlJDu8yN26DFdvCi1E7trgaTLqkIEa5xkyAd36HJhIGQQe6SfcX/27aPaqUQM3vFEru/vsdipf8fbk6HvT2gHsx1bZvPsUqr3Xjs+e9t6IZAJRHjCDQivfIn4vGLS+3fV3eCb9mT3qHFvHsF9k+aEcjNjJOwZI5thUOR+mHTD9d6+VW4f5/blOtcCsUAphvoGgIO8LM5pLCaeVUoWbnLq3wp+iqFaA/OubvJan9Zl7X1ua/RIILmfAjzVLRjP/CX6mt6Rj9MIH89KrxdIMcIatlEPmbd/Z2BNSdZmu43qiUAyldyVzLzILRiP/a/UZe1yj2PGOpxSUVeCEbktEfwglZjmFlPOHzHZickbgZSzn2CidX4U6iYmEa8sJguh3mFzg99LX6Wc/Q6I/tPLmFGORYwPFVPa424xeiKQrvLid5i0LVL73+0ihugWPZn/klui4uyfLqt3EuHjca7BJvY3dVkbY9Nnn+aeCMSKrBjqbwAc4wUor2O4fSfAazxBxssYuQEGhzdDOchid+XybrigdwKp5NaAOcqvYz6ky9opofQrpKSKoVq335tuH5S6dDLyekrz5DuxdwIpZ9Mg0uuCD9fgGV3Wwt2yIaD6FUO1Bsz5v/94QPXYScMsnV1KLXH1A6GnX9KtYHP6s++vmRSpxz32RSoR/bGYzB9qh/C42Ubpd6kwuNu6dduhN5+1zNqbxPXh2Rlk+/eQ7EsAHeYalf8Bqkdy+5ieVE/V/1TBZdi+c9aovwWXMXqZCPTLopz37BVhjwWifj/AuVGuu+PlJ41rMC4DXLA+d2Q1wS+4DBN/d8IqPanN9aoQTwUS0jvqrrgwTemE1ZOXxPo9iMyGS09kKSG25QZggrtWywXPHp71VCCdhpqSIjwGf0QlMZ2ip/IPuVJaSM6ZSu5UZn4gpPSRSytJmNjXoXm2T4m3ArG2Wq61/x7MB0eOuTqACDinGLHtzOpxqFSy54Dprnp2LfN3xmY9pXn6W5ynArEakTbUWwk4P45NITa/VEz13hIH7OmK+kVixAJrUHwycH1J1jx91sxzgWTK6iwmWCNwYnkw07xSKr8yyuDTRu5CAl8XZYxhYCOSzisml3i6d6XnAunqVw83Gc+BcWAYJHmU83Jd1iK5LXTGULMMRGrkkUecuwvDeLGK9mO83kfFc4EMX2aV1TuI8Cl3FYfszbxcTzkfWekH+oyRu4rBC/yIHfeYBKwuyprnU/d9EUimnLuAiW+IO+lguklP5WdFoQ7FUEPbdjsK9dfDQITPF5Oa5+/X+yIQpbLovYBpXWZJ9QqL+t8ZWFuStfPCxKlUct8D8+fDxBDt3PSnKrcd6/b9833V6ItArESZinonc9O8gzCgy1pHGItEqaj3gsObOxZGzbZzMt+kpwq+nOl9E4hSUWeA0TzDE5if0lOFQB8dT1fUh4jxEdsLpsUciPmTxVThTj/K9k0gs8rdB7Rh6EkQjvYDeEgxt+iy8+287GBWyurTIBxvx6c1bfkxXS582K/afROIBVgxcnmAVb/AhxGXgMGirPl6C1sxci8BHIenosNowV45/Z3076tAOjdcdpIk1Vy/OB+BLuzdlBd0uVBvgrsj2IqhWsO4D3Dk3GJO1g62SPCJxTP8m3Xsq0C2n0XUHwL4TPP1jn+gywXPtoTuGrj03Wat7VGAA9w1ON5dIeB7RVn7gp9V+C6QTEX9HDOs90Sa7yBarifzjve/20nI9gHStAygf20+knysiHmanirc7mMG+C4QC3zGyG1icLM2/3HT5O7Vk53NBE6Xs/OJaKmfTW7S2Jt0WTvJ79oCEkhLPD+0jhJSX/GMJQ3dblQMtQuA9c/VBi9+L5AIx1+gy5rvHyyBCOSC8sJ/qZJkjaCJxIBrn5u+CYwBwLyd2mhLjWovWfkSnDicq3wESLKmG06J++6xPnNYL/yrkoST+jq0YW79PAIRiFVACHuq+8mbiB0iAwRcW5S1rwcBITCBxPZ13CC6IHLYYsDr12r3lzwwgVggFEO1tjz+mC02hLFgYDcGgri1uzvhAQskOxsga3NLcQgGHDEgSfhEX4cW2Hv4gQpk+CxSUTeCcZojdoRTqzNwmy5rgT72H7hA0mX1fCLc2uqdFvU7YSD4jVoDF8jwHa3W26/CyWoQPnsy0KfL2pygSQlFIJl+9Sw24cn07aAJE/lCYeAfzPhIKaUFPj0yFIHsuKN1M4CW3vkplKUWw6TMuKqU0haGAT00gaT7cyeTyQ+HUbTIGSMGCH9oq9Kpq6bkXwwDdWgC2fFdpJcIl4ZRuMgZDwYIdFFRzl8fFtpQBTJ3YOG4oVpiAOATwyJA5I0yA3yvLhfODhNhqAKxCs8YuekM/naYJIjcEWWAzZSe6jXCRBe6QLZ/Yc/eBtC0MIkQuSPGAOEaPanNDxtVNASyYeFESkgDzPBkb+uwSRX5XTPwbE3i02/sKLzqOpLLAJEQyPBZpKwuBqHbZT3CvRkYIMzUk1okLrsjI5Dtl1q5uwA+pxl6LGpwyADjOj2lfdmht+dukRJI54ZLT5KkxP0AxGQPz1sdg4CER8xEderq069+IypoIyUQi5ROI5uRQH1RIUjgCI4BljC11KGtDy5j/UyRE4gFOWPk+hicqQ9fWDQLAwyoJVkrRK2eSAqkq7z4HUxD9zPY97EuUWtIi+K5Q5e1SA4XjKRAtl9qDW8pfQ+A0S26aFql7M1coymlKfnno1hwZAVikdVVyc4xmVZFkTiByRsGmKWzS6klkX31IdIC2X7rV70awCXetENEiRIDBP5GUS78V5Qw7Y0l8gLZLpLcdwH2dUhxlJvUpNh0XdYifyMmFgLZcSapAAhlG7QmXaAhlsWGLhdSIQJoOHVsBLJDJI8B+GDD1QnDCDIQH3FY5MVKIBbgtKFuJmB8BDsvINVlIF7iiKVAdpxJ/gjgnXX7IQwixED8xBFbgewQyZviN5IIrf/9QomnOGItkB0ieRnAoXFZJq2Ik4F7SrIW2ye0Y/cdZO9Flqnk7mPmM1tx8UW+Zubv66nC+ZHHuR+AsReIVVumoi5nxsVxbkQTYg9lEqLXPDaFQIYvt8rZAohCGS7mdVOaIN5SXdYWNEEd8bvNuz/SlUpuIZgj98h0MyyUhmuQ6Gt6R355w/YRN2yaM8hOnpWy+iUQbmiR/RAjtbwkpjP6UvmNkQLlEkzTCWT75dZCGSRZIjnBJT/CvREGCM/WhvjTN04t/KoR8zjZNKVArAZ0PbDoaHNbbRWIpsapIfHDSnejyp36VO2V+GGvj7hpBWKVPu/ueaMHxxzUC6Kv1qdCWNhmgHm59OyfF/TN6Ruy7RsTh6YWyM4epI3cJwl8OYBJMelL1GH+nEFXlOT8uqgDdYuvJQRikTT9vvlvOWD06MsZ3BS3H9023qk/ga5+c+vWK24+a9nfncaIk1/LCGRnU4Z3t2JcDsapcWpU6FgJDxLhimKHdl/oWAIE0HICGf4C//NvtZtvPN8NQi5AruObipGXxr6np2/SnKb9rjFSc1pSIDvJUCoLJwOSdTZJxnf1+oicUAHMK/Rk7wYfs0Q6dEsLZJdQDLXLOrEAmBjpbgUH7lEA1rNULT/hUghkt0WnCKEIYez1ISQEso9P5RYUihDGCGdnIZD9XLa0gFCEMOpctgqBNHBdv0MoaQAnN2AeB5NHAJTEd4z6rRICqc/RLot0JddBJp/LhHMJONaGa+imDPyGGGtZorWlZL4/dEAxASAE4qBRzEyZ8qJzWWJLKJ+M8ISVVxlYRyatLaaWrCUidlBuS7sIgbhsf/rB7oN569C5Eg0L5VwAbS5DunWvAlhrMtbR6Pa1pVN7XnMbsJX9hUA87H7X+kVHs8QfA3GSQTLAh3kYfj+h+AmC9BCz+bBkJoy+KUs2B5O3+bMIgfjY4+EXtyBNBWEKgI96l4ofA+ghEB6SqtIDQhDeMbt3JCEQ/7jdI3LnxgVjEzwqyVVzEggfBmEiGEc0lJ7wCDNtlICNVcncGIX9wxvC3QRGQiAhNrGrXz2cSZo4LJp9HJzAwIF/e2PjinNWbA0RZkunFgJp6faL4usxIARSjyHx95ZmQAikpdsviq/HgBBIPYbE31uagf8DbitRUAb37o0AAAAASUVORK5CYII=;fillColor=#A8DADC;strokeColor=#457B9D;fontColor=#1D3557;rounded=1;" vertex="1" parent="1">
          <mxGeometry x="477.40000000000003" y="292.33" width="50" height="50" as="geometry" />
        </mxCell>
        <mxCell id="dSbTfwvZeGPVF9yTLijO-126" value="" style="edgeStyle=orthogonalEdgeStyle;curved=0;rounded=1;sketch=0;orthogonalLoop=1;jettySize=auto;html=1;strokeColor=#457B9D;fillColor=#A8DADC;fontColor=#1D3557;strokeWidth=5;shape=link;" edge="1" parent="1" source="dSbTfwvZeGPVF9yTLijO-12" target="dSbTfwvZeGPVF9yTLijO-55">
          <mxGeometry relative="1" as="geometry" />
        </mxCell>
        <mxCell id="dSbTfwvZeGPVF9yTLijO-12" value="Developer" style="aspect=fixed;perimeter=ellipsePerimeter;html=1;align=center;shadow=0;dashed=0;spacingTop=3;image;image=img/lib/active_directory/user_accounts.svg;fillColor=#A8DADC;strokeColor=#457B9D;fontColor=#1D3557;rounded=1;labelBackgroundColor=#F1FAEE;" vertex="1" parent="1">
          <mxGeometry x="678.9" y="730" width="70.62" height="68.5" as="geometry" />
        </mxCell>
        <mxCell id="dSbTfwvZeGPVF9yTLijO-20" value="【Junit】-单元测试" style="shape=image;verticalLabelPosition=bottom;verticalAlign=top;aspect=fixed;imageAspect=0;image=data:image/png,iVBORw0KGgoAAAANSUhEUgAAAN8AAADICAYAAABoKjQPAAAK4klEQVR4Xu2dXahmVRmAn7mzCyeT/gaLNEbKSQybCpIBZ2hsELqJai6kDCnSvJGiwDAozbAb+7lwxorIGLtxiCKIxlAaqByHogSn0RqiyUz7oYiEmK6M1XwHt3v2PjPnnL3Wu9f6ng1e+J3vW+96n/d9Zq29zz7728TwcQWwE3gb8FbgjSPv82UJSGCYwDHg58BjwFHg1/23bRr43AeBe4DzpSoBCUxC4BRwN/CZ7mh9+R4C3jlJOAeRgAT6BJ4Atq282JXvOHCZvCQggawEHgZ2pwgr8t0J3DYQMi2XTwHPZJ2Og0ugPQKvBi4GzhtI7XrgQJLvSuCRgTfdC9wBPNseFzOSQBEClwL7Vla6TsTngB1JvpuA/b2ppHO/a4pMzyASaJ9A8it51j1uSfKlFe7Gzqtpq5l+1XCifSZmKIEiBLYATwKbO9HuT/I9DlzeeTG9yQsvRWpikCUicAjY0/Usyfd8D8BhYNcSQTFVCZQg8Dngs91AylcCuzEkAMpnF0ggiIDyBYE3rASUzx6QQBAB5QsCb1gJKJ89IIEgAsoXBN6wElA+e0ACQQSULwi8YSWgfPaABIIIKF8QeMNKQPnsAQkEEVC+IPCGlYDy2QMSCCKgfEHgDSsB5bMHJBBEQPmCwBtWAspnD0ggiIDyBYE3rASUzx6QQBAB5QsCb1gJKJ89IIEgAsoXBN6wElA+e0ACQQSULwi8YSWgfPaABIIIKF8QeMNKQPnsAQkEEVC+IPCGlYDy2QMSCCKgfEHgDSsB5bMHJBBEQPmCwBtWAspnD0ggiEBz8m0DPgxcvAB6Evgq8FQQ4JJh3w9cDbwe+CvwR05/++kyHCnPi4CtwBPAT4CDM0+8KfmSeA8Ab+pB/yHw7pkXYqPTS+Kl3PvH7Usg4BlNvICwd+YCNiXfB4ADI118FXBkox0+489/DfjowPz+AmyZ8bynmNqxgX9w07jfB94zRYBMYzQl363AXSOgPgF8ORPEOQx7CNgzMpHtwK/mMMlMc/gP8JKBsf8FvCxTzCmGbUq+se1HAtX69iud4+wc6YhdwOEpumWmYzy/yrw2zXTOaVrKN+PirGVqyjdMS/nW0kUbeK8r3zA8V74NNFXGj7ryZYRbcmhXPle+kv12RixXPle+PgG3nYWUVD7lU75CsvXDKJ/yKZ/yFSfgOZ/nfMWbrhvQlc+Vz5UvSEHlUz7lU77iBNx2uu0s3nRuO08TUD7lU74gAsqnfEGtdzqs53ye83nOF6Sg8imf8ilfcQJuO912Fm86L7h4wcW/5wvVznM+Vz5XvlAFPefznM9zviAFW5ZvN/A64LUjbD/UeVxi/y3fBtIjFPvHP4Cnge8F1WuqsG47pyK5gXFalW/ssYAbQPWij6YHS6UHTNV6KN8MKteqfEeBt2fmm551ejxzjFzDK18usmsYt1X50vbwwjVwWM9bPwJ8cz0fnMFnlG8GRWhVvr8Br8jM9wbgvswxcg2vfLnIrmHcVuX7KbBjDRzW89ZLRi7KrGes0p9RvtLEB+K1Kt/Yd1BMhfxmYP9UgwWMo3wB0PshW5Uv5bkZeMfivyHU6/lVwwngF8DvZlC7jUxB+TZCb6LPtizf2RB5h8swIR8deLbOmejnyjcM0idWT9RgEw/jE6snBho1nCufK19U7/0/riufK1+fgNvOQkoqn/IpXyHZlulq59mQuu1023m2Hsn6c1c+Vz5XvqyKjQ+ufMqnfMpXnIDbTredxZuuG9CVz5XPlS9IQeVTPuVTvuIEWt12vhT4PHAtsHVCqukPlH8GfHLCMdc6lHe4rJXYTN/fonznL76DYntG5geBvRnHX21o5QsCP3XYFuXbuZBvalbd8U4BFwD/zRlkZGzlC4CeI2SL8q12Dj8lw6gbz5VvyioGjtWifK58wGEg/esw98OrnW1d7UznfEeA9GS1XMd3gfflGvws47ryBYGfOmyLK19ilB6h8XXgDcDLJ4T2Z+APwHuB9ICqiEP5IqhniNmqfOeCysdInAulzO9x29nWtvNc20X5zpVUxvcpn/L1CfjHtBmF6w6tfMqnfIVk64dRPuVTPuUrTsALLsPI3XYWakVXPlc+V75Msl0HpO+qS3c+pPvxpjj+CTy4+ILIdJNtrYcrnytftt4tcZ9f+rOVQ9kyyDuw8ilftg77BpC+Qy7n8UXg0zkDZBxb+ZQvW3ut1lxTBa3lHtahfJVP+aby4IxxXPlWR6t8ypdNPs/5lG+MgLeXZdPuhYG92jkO2ZXPla+AguMh/D3fMJuov9Qu1QyufKVIrxJH+ZSvT8A7XAqJqXzKp3yFZOuHUT7lUz7lK07ACy5ecCnedN2ArnyufK58QQoqn/Ipn/IVJ+C2021n8aZz23magPIpn/IFEVA+5QtqvdNhPefznM9zviAFlU/5lE/5ihNw2+m2s3jTecHFCy7eWB2qned8rnyufKEKes7nOZ/nfEEKKp/yKZ/yFSfgttNtZ/Gm6wZMj5n4zsgMrlp8y2noBDMG3wd8bGD8vwOvzBh3DkMfG/n22vQQ5L1zmODIHJr6csz0LaYPDBTix8CeGRdhiqmlJ3mn3PvH7YubD6aIMdcxxk43knhzfgp5U/Kl5kgCfmrxSPn0/+lZnKkBT861cyacVxIwrf7pcfq/XTx9OxV4GY6U59WL3H8EfGvm4qWaNCffMjSaObZBQPnaqKNZVEhA+SosmlNug4DytVFHs6iQgPJVWDSn3AYB5WujjmZRIQHlq7BoTrkNAsrXRh3NokICyldh0ZxyGwSUr406mkWFBJSvwqI55TYIKF8bdTSLCgkoX4VFc8ptEFC+NupoFhUSUL4Ki+aU2yCgfG3U0SwqJKB8FRbNKbdBQPnaqKNZVEhA+SosmlNug4DytVFHs6iQgPJVWDSn3AYB5WujjmZRIQHlq7BoTrkNAsrXRh3NokICyldh0ZxyGwSUr406mkWFBJSvwqI55TYIKF8bdTSLCgkoX4VFc8ptEFC+NupoFhUSUL4Ki+aU2yCgfG3U0SwqJKB8FRbNKbdBQPnaqKNZVEhA+SosmlNug8CgfI8Dl3fyexK4rI18zUICsyFwCNjT9WwTcC9wY+fFU8AVwInZTNuJSKBuAluAtKht7qRxf5LvJmB/L7eHgGvqztfZS2A2BJJfybPucUuS70rgEeC83g/TingH8OxsUnAiEqiLwKXAPmB3b9rPATuSfOm4E7htIK9/A0eAR+vK2dlKIJzAm4GdwAUDM7keOLAiX/r5cS+0hBfMCbRP4OGVlbArX0r7l8D29vM3QwmEEDgJXLISuS9fev1W4K6QqRlUAu0SuA+4oZvekHzp59cBu4CtQDppvKhdJmYmgSwE/rT49cLvgaNAku9Fx5h8WWbjoBKQwAsElM9ukEAQAeULAm9YCSifPSCBIALKFwTesBJQPntAAkEElC8IvGEloHz2gASCCChfEHjDSkD57AEJBBFQviDwhpWA8tkDEggioHxB4A0rAeWzByQQRED5gsAbVgLKZw9IIIiA8gWBN6wElM8ekEAQAeULAm9YCSifPSCBIALKFwTesBJQPntAAkEElC8IvGElMBf53gJ8HHiNJZFAZgLpi3++tHg6e+ZQqw8/B/m2Ab8JpWDwZSSQvp3rscjE5yDfzcA9kRCMvZQE0k7rK5GZz0G+dwEPRkIw9lIS2AscjMx8DvK9CrgbuBa4MBKGsZeCwDPAD4AvAE9HZvw/Vk/liOrewpEAAAAASUVORK5CYII=;fillColor=#A8DADC;strokeColor=#457B9D;fontColor=#1D3557;rounded=1;" vertex="1" parent="1">
          <mxGeometry x="275.97" y="290" width="66.9" height="60" as="geometry" />
        </mxCell>
        <mxCell id="dSbTfwvZeGPVF9yTLijO-22" value="" style="shape=image;verticalLabelPosition=bottom;verticalAlign=top;aspect=fixed;imageAspect=0;image=data:image/png,iVBORw0KGgoAAAANSUhEUgAAAMgAAADICAYAAACtWK6eAAAgAElEQVR4Xu1dB3gUVRc90ltCDb0koYXeMXQUEEG6oIiiIEixIWBBUVREioD+YKEJKNK79N5EQi8h9E5CGhAIvQT8vzPbZnZnd2dnd5PZ7Nzvy5fAvvfmvfvm7Cv33nOfgS66BnQN2NXAM7pudA3oGrCvAR0g+tuha8CBBnSA6K+HrgEdIPo7oGtAnQb0FUSd3vRafqIBHSB+MtH6MNVpQAeIOr3ptfxEAzpA/GSi9WGq04AOEHV602v5iQZ0gPjJROvDVKcBHSDq9KbX8hMN6ADxk4nWh6lOAzpA1OlNr+UnGtAB4icTrQ9TnQZ0gKjTm17LTzSgA8RPJlofpjoN6ABRpze9lp9oQAeIn0y0Pkx1GtABok5vei0/0YAOED+ZaH2Y6jSgA0Sd3vRafqIBHSB+MtH6MNVpQAeIOr3ptfxEAzpA/GSi9WGq04AOEHV6S41a2QHkt/PzBMB94889q9+nAMSlRgf94Rk6QLQxy6EAalj9FHGja8kACBTTz0kABwFccKNNv6yqAyRtpr0sgFYAOhpBkTuVuhED4B8AuwAcMP48SqVn++RjdICk3rQ9B4A/BEbt1HuswyclAYgAMAfAPI30SVPd0AHi3emoC6CDcaUI8+6j3G79sBEoBIt+hjGqUweI2++VTQPFRKBo5vnmvd7iNQCzAcwCcMjrT9P4A3SAeG6CwgG8DaArgAB3ms2eLSua1quOkJJFEVqyKMJKl0RYmVIokM/2qHLn7n3EX01CfOJ1w++rSTh36QoiT5zD0RPn8Ohxitqu8HZsLIAfAPBvvxQdIO5PO88VBMYb7jZVuXwIOrVqgk6tGiO4hDuXWJaenDx7CZEnz2PvoeNYs2U3YhO4QLgkXEUIkvku1UonhXWAqJ/I1kZgvKy+CUPNFo3r4I1OL6D9Cw3dbcpp/Z17I7Fhxz5s330YR46fdVpeVIAAGQngqCuVfL2sDhDXZ7AxgA8BuA2M8JqV8E63tni5dRPXe+GBGlt3HcT8FVuwYMVmpa1FA3gPwEqlFXy9nA4Q5TNYAcAAAH0dVcmbNy/KlimLpBtJOHtW/hu6Yrlg9OnWDj1e4Y1v2kvUqQsCSBas2ILE6zeUdIhbyplKCvp6GR0gzmcwyLhicNUIlCseGBCIsmXLCsAICmJx4Nz5c1izdo2keImiBYUVg+DIli2L8yencomEa0mYvXQDJkxfjFu37zp7+kAA/3NWyNc/1wHieAYJCq4adAWRSI4cOVA6tDRCQkJQqmQp82e3bt/ClStXcPDQQSQl0Q5nkPfe6oQBvTqjYIG8mn9nbt+9h5kL1uDe/QcY/SvNInblWwDfaH5AbnRQB4i88l4E8AWARtYf58mdB9WrV0f5cuWRJYt0FYg8GontO7ZLqjxboyI+6fcamjfSivFc+dvy5OlTrNu6B5+NnISYuKv2Kv4IYLDyVn2rpA4Q6XwVNAKDq4ZEMmXKhOrVqqNG9RrIli2bzSzv2bsHe/ftNf9/xowZBGB80q8b+Lcvy+UrCRgyarJwTWxHfgfwji+P0V7fdYBYNNPdCA4bl5AKYRWEVaNA/gKyerQGB1cLgoOrR3qS0b/OdrTlWgjg1fQ0Xo5FBwhQyQiMbtaTW7JESWHVKFXKcsawLrNt+zYcjbKYBr7/7B3hvJFexQlI1hmdMdPN8P0dIL2MVuJ84hnNmTMnwuuGo2JFxyvA2nVrcfac5Sp3+fRRgotIehcnIFkMoEt60YE/A+RruRuY0NBQ1A+vD9ozHMmKVStw6dIlc5EDa39H6VL0U/QPcQKST41+XD6vDH8FCK8mCRCJ1Auvh9q1nN82WZ85Eg6vQNYsmX3+ZXB1AF+Pny7YTOwIzyM8l/i0+CNAPgAw0XrWWrVshTJlyjidTJ43eO4wyc3ja53WSc8Fur3/raPbrRcAbPTl8fsbQD4C8JP1hLVv1x48kDuTR48eYdHiRYIbCcXfwUEdXLqSgE69hwou9jJCvxWCZL8z3Wr1c38CiOy2qlfPXqBVXIns278Pu/cYbAE6OCwa27RzPzr3+cqeChmpSAfP20p0rLUy/gIQHixIViCx8LkCDrqP8GCekpKCzfP/h1pVy2ttLtO0P5NmLcfno6fY68NoAJ+naQdVPtxfAMKTpMQ9Xem2yqTXufPn4vr16xj5WR+8+xbJSHSx1sCAryfgz0U0hcgKA8sshzcfUZ8/AKQngBni+WhQvwFq1qipeIpMt1ZD3nsdQ95zO3BQ8XN9reCjx4/RtscQ7Dl0XK7rPKzzPOJT4g8AYXBPG9OsFC9eHB3b264A//33H2JjYxEQGAC6r99MvokbN26A546EhASULFYIu/6ehFw5SHioi1gDjFI0Se7AXGjz1qdIlneX/xjAeF/SXnoHSHEANHVnNU1Kpw6dUKyYwaB3+fJlJCQmIC4uDtEx0Xj69Knduftt5CB069DCl+bWq31duGorNu3Yh43/7MeNZOn5mz5odlYRMjvSPeGBVzvnwcbTO0B6iCPfqlSpIjgcEhixcbG4f5/0ts6Fq0fkxj+cF/STEh99MxF/LFRt/3kdwFxfUVV6BwijfQQnxOzZsysGhPXkZc6UCVcjvR+GffvOPVyJv4orCdcQfSURKU+eoGGdKgLlj1aElnNa0N2QpZ6I53fj+S5VTa8AYaAT7R7PK9UGYzxy584NBkTlz58fhQsVxtLlnEuDLJo8XGAf8YZExybit1nLwKtSOSGpw+jP+yEofx5vPN6lNmu37o2zF2WNgq60w23WCVcqpFXZ9AgQWYOgnIIJhuDgYDDeo0ABaawHt1+zZs8CreeUnq+0xk/f0EvFc0JSt0mzluG3WcuRcNUSniv3hBebPov5v6VtdCsP4216fCZ0r0xwMdSsXA6hpYoK/064dgPrt+1Vyrv1JYDvPadJ77WU3gCiCBwVK1REmdJlHMZ5CKvGkkWIj48XtF+xbLBwi+UpOXzsDAZ8PdElbqp9q6eibEgJT3XB5Xa4cnAF+WvCl2jbooFs/fXb9woMKUvX7nDUPsnolN+zu9xTz1VITwCR9bMSq6pIkSKC/SM0xIaDQVajW7ZuwbHjx4TPPHkO2bkvEn0/GyecN1yRtHZvIc1prpzKrrkPRZ0RwnTt3GZx2Iz7X+/K+NOibHoBCKOUtgKQ3aQ/88wzqF+vvkvGQU7Gkcgj2PGP5Zvw8PoZblOCrtu2B30+/QG37tjS3fK2rFuH5mhYt6r5XbiZfAfXkpJx/UYyBvcl7a/vyM1bdzBg2AT8vWGnXKe/AzBM66NJLwBZZmRUt9F31qxZ0aJ5C4QEh7g8FzExMVj2N5s2yPo5492KM993+ARadBtk04+yIcXRr3t79Opqtme63FctV/j0+0mYOmeFdRdJ59hcy/1m39IDQOoZMybZ6DpXrlxo2aIlihY1HCRdFR7Uf59Bwg6DuBs12GPgSCxfT59Ji9B9pV/3DsgTmMvV7vlU+Y+/+xW/z1sl7jONhQx1VmaMSqPRpgeATDAyH0pUmC9vPrR8oaXN7ZQreuYN1pRpFg/VS3sWI3dATleaMJclMAgQsXjz6lhVJ71Y6cLlOLToNlDYLoqkJYANXnys2037OkCYMOM0APJZSaTZ883A2yp3hL5Ys+cylwzAnB1xB+XtFEqewa0Vt1gm+WHou+jzelslVdNNmaE/TMOvf1hsS8arXl75alZ8HSBMQbDaWrvFihZDp47uU++IzyBVK5TGjiW/qJrIMxdiUOclC6/aa+2bY9KodEtGaFdHEQeOoVV3+iuahTcgaUNtr3AmfR0gIwAMtR7riy1fFIik3ZVTp05hwybDDoDW7OnjhqhqkoyEjN2mFC8ShC0LJvgER6+qwTqpRIAQKCLR9Duo6c4pmCBe7TYVlwsuFYy2bTyzdTlw8AB2RTBjMuBOLIjYf+mbQT3xUe9XFAwtfRbhFotbLZFo2u3E1wFCY4LEctW4UWNUq1rNI28XbSC0hVDo5kF3DzUya/E6fDhsguB0uGnej8iVU1kMvJpnab3O0ZPn0agTc/CYhZGekoOJlsbgywChNc3w9oqkXdt2knQE7ihbzJx4cvscFA6SEDAqbpp5AnsMGoW3X33J7w7m1kp68uQJStTtLKRWMIqm/bJ8GSC9AUjWair8ze5vInegbTZYxW+zqODCxQuFaEICgwBxVxiQlSGD55je6QXMpDxaE8MZ4z/Uq1VZtmvPvzoAB4/y8lEQxoYwRkST4ssAsTmgM0VB/779PaboadOn4cGDB8LWKq09aeUG9cWYqQKJhNbk1LnLGDpmGhZPpTeJrbz7xY+Yu9zMJ6dpx0VfBsg468QtjOPo1tWGpF3V+/Pw0UNMnTZVqOvOAV3VwxVW6v7hd/hm8Nua4wROvHYD5Rp3w7ZFE1G9ku1t4tjJ8/D9xFmmUXKvpcwDUqFePFnMlwHyK4B3xcogOyLpfDwhiVcTsWDhAqEpdw7onuiLvTbav/254P4+7iuJGrz5SEVtp6Q8QYGqbWDP3iPDoUX3asara058GSCM+2S2VbMwZ2DrVrQdui9nzp7BuvUGjqc9K6egfGnn1KTuP9W1Fr78YRp++WMpIlZMRgU3w3LpK3Xv/kOQnMIT0qTzB0Ksi9wqMmvxenw4TJL/sxmALZ54rqfb8GWA8HD3mlghYeXDBM9dT8j+A/sRsTtCaCpm/1JN0v1s+mc/Ovf9Skgn/b9vmG9UvZgcKT3FGjls3HRMnLFYtm8Mpnp78ChxZ/mtppoFQv2ondf0ZYDw7lxCcFWlchU0bSKxGzrXgJ0Sm7duxvHjxwUv24u7F6lux5sVuZUJa/q64AC4fckvqFahtOrHMVHnlNkrPHbeEvP1Wq8iG7bvxSv9Jdkn6BdkiStQPQrPV/RlgPAbh1FpZmG0IFkTPSEkbCAfb+XyIdi57DdPNOmVNmiApCHS3VXElBCnesUy2LJwgkeuo+l/Rj+0V9s1w5TRFh+sf/cfxUtvMseOWXizMs8rCnKzUV8GiI2bSd06dfFsXXXWbms9rli5ApcuX9LsFa+pvwxpbfm6wfFx1Z9j0LCOJRrRlXdjx54jaNfT4Gv2w9D+6PN6O1eqy5b9bORkTJn9t/DZwsnD8YKRFYZnE55RRMKz5Ey3H+iFBnwZIDZ2ELq3083dE7Jm7RqcO39OiPIbP0ziGuGJ5j3aRs9Bo7Bs3Q4hVHfVH2NUtZ186w5KhRtSC5YLKYEtC//ntksMWRe79DWkRWgSXh1/zzCcO5hLpFYr2nnNQuPVZFUd93IlXwaIjas7s9G2a+P+Nx91vmHjBpw6fQoDenXBt4Mll2VenhLXmzcd1lnTHZvNC90GYa8xZsVTTpXiNv/8aSjat2woUByVbyIxng8EILnWcl0L3qnhywChP8lNsVoKFSqEVzpLPWXp3sHAp5QnKQK7In8yZ3KeT9B0SG/TrD5m/2w3OYx3ZkVFq2Lr9Dvd2mLsl67bRhg3zvhxiifc8g9EnsLGf/aZc6uXDy2BPaum4s69+yheWxKvw9whzCGiOfFlgFCZ/4k1Sh8s+mIRECdPncTFSxeRlJRkQ0qdL18+gReLMSP8W06279iOyKORCCtTErtX2E0Mo5kJvXwlAY1efh/cKlE6tWqMGeNdy1lD6tOGnd7DpRgDF5jS7SUZWi5Gx+H0+WgcOnYGuw8eA8EhJwwUowExT8VW4o8ZLJO2rHh2ZjJdASRLliwoUbyEcHZQKrz5qlWzFkg9KpZ/d/2Lg4cOIlOmjLgWKSEbUNp0qpebNnclPhlhuXFTE0Nvnd55wvABeKuz5LJQMq7mXQfi5LlLIGeWEjFxe+kAUaIt98tIVhC1zeXNkxf16tUDLfEmEad6PrJhJkoVL6y2ebfq8can9ZufgiG/VSuEompYaVQR/rb09fylWIz6dTYWreLFnkU2zv0RdapXcOn58VeT0LTzB+BvCu1Ay6ePlPWp4uc1Wr6NC9FxTp8RkCsHFk/5zkybpAPEqcrcLkCDhywjmZqWM2fOjLYvtTXnDrlw8QJWrTasHEumjUCzBrXUNOt2nb6fjcWCleq8MI5t+QvFCks5h5V0yHoVaRxeHct//17WNmJdVq592miGfdQD+fIEmj/WAaJkJtwrwwt2h1dWbZrXFwx9YtvA0nU7sGTNdvNeXdyFwMBAtGndRmB3Z7LOSVMMB1ZP2QXUDLfvkHEC162r0qFlI/zx0xeuVhPKc/Vo9cbHkpXh/Z4vY8QnkqtZc9sEydzlm8BzkEl45VyjUlkhll/Oo1cHiKqpUVyJl/0SU6y4Jr+xenRpZXdbcPfeAyEeQbxfN9WvXKkynmvKfJMW8urer7XBuK/SxhayenMEBn7zMxKvM+W4MnEHHKYnrNq0C298KI3nGDO0P/o6MCCS1qho4SBFq5YOEGVzqaYUYwdijKx8NvVpKBNz2zp6wIz5qzFouC2Vz6uvvIqCQQWFnOjMUcgViFbqtJKoUxcwd9lGLFq9FVevS262JV0qUaQgBvV5FT1f9YxHs9z2yWTLcFcXOkDc1aD9+rxAXyL38fGtf6FoIdf23OOmzMeICX9KmqtdqzbqhdcTfLHokxUYkBOX9zCTdNrKo0ePEZt4HXEJ/LmGy7EJwr6+ZLHCKFE0CMWLFETWLM5tPK6MgqsIVxOT5MmdC6tmjkHlMGUM+XLPevjoMQpVl+yO9WteVybFSVnGodtshj98uzOGf9xLUpXbkmOnLoDfwCEliqBS+RDht1iY5owsGyfOXDL/t8llhakPmAKBcnbnfBTI55lYdw/qwutN8YaqU++hkvNIWOmS2L1SvW2IST9D6kkMujpAPDiTewDUFbfXskldLJhkIGYziRwXLj9jplrroKCfZy7BV2MtJNWlS5dGk0ZNEHUsCnv37RWadGXr5sGxaqIpufOI2LfK1U7Gxl9Dxee7i6sNADDR1XZSo7wvGgppBTSv77xf3774Z4SWtDC42wOHSaHWWWuv37glrCKxCdeEIsylTtpRsYz+oh/6veGZcN7UmFhPP+OnaQvx7U9Sh9tX2j6PqWM+cflRpkxVoopMfGKIb9aY+CJAeEo173Von6CdQiyv9v8aTAVWp1qYcPXI/HnWwqtHBvKYxNl16msdmmPSSP/j0xXr7b2hP2LOMjMbifDRmC/6oa+LXxyRJ86h8cvvi5vmteE2jWFD6I4vAkRiPbf2XmVas14fjxHocGpWKQcrihnJHAzo1RnfDjacW6y3WdaT5Y6XrBYnXk2f6HPVuc+XZo9fUxub5v8PtauWV9ykOIbFWEmz9KM+DxBrK/dfS9aj/QsNhZsnsveVbtAV9x88FObh/R6d8OTpU0m6ZVPWqK27DqJjbxsebFQqF4K2LepjyHtvKH4B0nPBg1Gn0bnPV0i6eUsyTFfyJ9K28/oHw8X16TGq3NCTigr2eYBE710CnkPkZOXGf9F9gGH7tWneT6hdLUz4myD64CtD+IFpFeGN19xlmwTfIyaqFH5yZFdsU0nFOUvzRy1Zs01Ypa1FKUisaH+YZztrmg/KTgd8HiAXIxaBd/NyYjJ0WR/KWfbld77E5n8PgPkB9622YTDV6nxppl+T/1qOIaNsr3qVgOTz0VPEq3g0AO1xKhk17YsAuS62ou9dNRXlQuVzh5sAIne1K766VDKpmnkzNdQRmYxRimL4ub3iNsso+wHU0dCwJF3xRYCcAVDGNApH9gkTQOwdsEl2wAOjDhB1ryct++17fW6dEAe7V0wWUj3YE16pMw2CUeZb85up6413avkiQHYDMFOX8OA94lNLejOxmkhcRgIzewAx2Ut0gKh/ueT82eIP/Y1sWbPYbbTUs52RfPuu6XPNhtuyg74IEDJKmxHBgCAGBsnJum170PXdbxwSGRAk9H7VRZ0GrBPi5M0dgAsRC+02Fpd4HRWaSm4EGXtr4HjVoPgiQDpYs/AdXDsdoaVsc6EzcU14u35uMX1ocM401SXGjoSJGEpqVS0P0pfaE5krXjrHGYLgNSi+CJC8AAzxoEYZ80V/9H3DNnbqwcNHqNumD7p1aK7bMQAcPnbGboyM2nfT2iW+V9eXMH6YxEouafq7CX9i/BQeOwQhMKTeo2o74qV6vggQqoKpZ80s1S0a1caiKfLJWhgYRXcT3dAHfPTNRLdJrq3fw2ZdP5IwmNARlLeG9oTGWBpljcKtlYTexEvvuepmfRUgPNiNFI/aESs5v+X8HSA3b91BcHgXqI1Tt37DSEDNWBoT0Zzpc/Jekf/Knlgd0MmF5Ro3kepXXV1FXwUIT9VMQm+WV9o8h6k/yEfhcgWhsdCfxbQVYpy6O5cSJJCgJZzbNbEw5OC9Hp3Q+Fn7GYZlKEeZvsK839Li/PgqQKhLGpgkVCPcZnG7pYutBkwA+WbQ2/iot4GD1xX5Y+Fa/LForQ0wShUrhAG9uwgZfJ2JzJUwuYvMBhFn9dPic18GCLNXSnwd6teujBUzRgtkb7pINWACSJFC+YX4mYL5edfhWBKv38SazRGywGBNMsCTu1gptZDV+SMWQDFnfUjrz30ZILKrCFkAyQaoi1QDYgdNZu19v2cn2VQJQtq0iMPYvps/h/DkyVMbVTpjjRFXMG1vySRTKrwzmPTHKMxKJCVS1uCk+TpAbFYR6tjV2A2SCDCPBfN7k/SZxM3pTZiXnPnJxVKvViUwxoOcvPzh30+emF9gt4Ex+tc5+HpgDxQKyidwezEoTSSaDbMVd9LXASK7ivA/SdXz+7jPUDhInpzapAQeHAcP/0X41qQs+30knqtfI73hQ4iNadTpfSE3hytCkouWTeuia7tmimwoXDEIDF6vT/vhU3RpY+AYe//LnzB7KW/nzcLD4gFX+pIWZdMDQJhoYrac8iqWDRb2ydwSyAknkZMpZgR0dfVJi0lT+8yd+yIFN3+umPaEt31kLaGzYevnwxFes5Kix1GHE6YvwvT5q4Xyb3R6Ab+MYNoPg1Rr0QOXLMyLZLqWD+JR9LTUK5QeAEJtkTpfkhVSrELGn7dr0QCFCuRFUIG8AiCWr/sHfGHEwpdh3WzJNiD1ZsLFJ63ZslvgwGrW0DXOYKZaI+1O8q27SL59R0gNQcILuurwd/ZsrsUuXYyJx+wl64UEoLfv3hNGQa6utX+NNafOZl+7vS9hndkkNvS6OPRULZ5eAOIUJM60yjwgf/z4hUM3bWdtpPbn3LbsOhCFF5s8i1faPqdoC+SJPtLNfdXmXVi1KUL4zX+LxZQDxPR/MtsrzfJgWesnPQGEY+MFv31XUjtvhy+Cg0NhBlnGtJjiwxk4VrtqmJD0h1skbpU8YSC9dfsuIk+eA9lIjp44j4gDUeDKISck7yOJn0nYt9qt37GOYa8PwBwx5QnQequN9AYQVSCZ8/MwvNSsnrd07NV2N+7Yh36fjwO5veQkR/ZsAmDohp4jWzZkz54VOfhj/DuzHZsR7RvcbtG5cN7yTWbOMEeDkfNm4MGcK4hI2FGfoahMjwDhXFQH8BaAHswB42hS05qY2hPoOXD0FAZ8PRFRlig9t5uN2jxLuO4ms/zMhWuctmcvDoRnD55BROIT9g9Tf9MrQEzjCzaChMl2GgKQ5lkDBL5d8u76unArM2LCLMxYYLhFcld2LPlFyGJFHqxNOx3fxtqLAZEhiGO3BgGQLCnu9tWb9dM7QMS6K2sEyXgAEj8LXyGmprvIwlVbwZRr9oLE5v29CX+v34ltEYfAeBi1snTa93i+QU0hR4iY3V3cHimS+nVvb9dT+tPvf8PUOSutu0Be5X1q+5Xa9fwJICbd8uuwpljRniSm9qbn8LHTF9Cl7zDhPNC2eQP8NfFLu+8LI/0IEmacPXzsrI2TobMXbfLojwXj4KBvf8aMBdItFo2vLzWrL4CDtElywgsE0ouaSPuMZZYD6Ojs2Vr63B8BwkQfL4sngdmjmEXKE/L7vFUea0uuP2IyPHuRlHL1aPs4FHUGZEak28mhqNNgfLg9IXXru291xLc/zsSStdsRXqOiYCshF7KSxKBfj5+OCdNtcqq8quaW0RPzorYNfwTIKLpriRVGI+KsCfa/jV1R7s69kUK+PusUC6604awsLdZfj58hFLO2OTirK/6cuVG4DXv48JHw2/Dz2PxvekerkZi4q8LqYUVPesR4eaKmyTSr448AIdX+PLHGM2fOhJh9Sz2SnelaUjJqt+6NkUMYC28/9NTdGRez0Zu+7d1t01P17WS+5ZdS2uWxUzk4fwQIc7RdtdYX/YboP+QJadrlQ2HPH7nxD48Y6uT6RC5hZn5i9izKm51bCoBU6jvliXHKtbHvyEm07v4JHqekiD9mJ8MBJHrrud5q1x8BQl2SLKClWKmdWjXGjPGeCY82fYMyP8nGed670ZRjpCezPYHyfMOayJwpk7feG7vtkoeMfGRW8hGACaneGQ880F8BQuI5EtCZhQTYB9ZMR/68lmT3avXLG6SmnT8Q8o3L5U5U265cPXt5TfLlCUB4zcpo0bi24H5Cl5PcATk9+WibtqbNXSmXWpto4erhk+KvAKEB0bA3EcnP332E7i9LFhbVkyreh8/79Wu0es5778in30/C1DkrnPaVABGAEijPhm+vgZqVy9kkSLUue/5yrLC14peClXSzPvM57aiGCvgrQDgFywCQpdEsDEWd/xs9590Xvigvvj5YcOpjEp5FU4a7nKLalV68PXgUlq6VEL24Ut1uWTo9kozamfT/Yrzgs2UlNOt75v7cWQe89Lk/A4T+WlutfbWcMZO7Mg9L127H24NJ/QS0aVYfs3/+ypXqLpclHQ9XLhExtMttiCs0rFtVyO7rTGYtXocPh8keMTSbnNPZmEyf+zNAqAMeHiWn6K8+6oHBfWjP8oyIc2i83/NljPjEJsW7Zx5kbIVk0jwkb911CLv2H3W57eASRfBC4zpgvHrHFxs7rX/6fDTa9Rwit7XSdN4PpwMzFvB3gFANkq1WjUplsVWU/VapIu2Vs86hQd5a8temhisMXDIAABE3SURBVNAmwyxap85dxt1793Hn3gPcvXtf+Ju5GgsH5UfhgvmEuH3+XSakGBim7Ir0GDgSZMiXEX7x0DHRp0UHiCHXiMQfm+memfbZUxJ16ryQIPTqdWawBkyOgJ5qP63amTz7bwwZafd8otnUzq7oSweIQVvci5j9KhrUroLVs35wRY9Oy5JSqFX3j83lDq2fATKG+KpwK9e860eOCCBojK0AwL7Dlw8MXgeIYZJsSB/+/Gko2rdkCInnZO3W3XjtPQt5gS9ntqrVqrcSCqElACzxt55TZaq1pAPEDkBaNKojXM16Wr7/eRbGTrK4gu1c9hsqlw/x9GO82l7z1wZi/5GTSp9BMizPGJeUPtGD5XSA2AEI/3v6uCF4uXUTD6rb0NTQMVPx65+8GzCIu4zrHu+gnQZPX4jGmwNG4OTZy64+kgFSDJTyOfF3gJB28VcAvK+3EYacrp8z3mWuKCVvAZPZkDHdJJNHfYyu7ZspqZomZZas2Y6xk+faBUfeYsG4ceWio76RutLnKCv9GSA8YEx0NmneZFr8bORkgRPYJO90a4thA3sgIKd2SAcZV874EwLEnhQILodS1Rsg+uheJJ475ggkDwEUBCBPwZIm0Hf8UH8ECD32SJw8VAn9JalvuIpwNfGGWEfe1apSXgBJk3Aa+tNOGCpLYDAq0CpsVtIprhyhdQz8u5SEs1GIiXIack7HNBuX37Qbrf0n+xtAaMYmOFwKlfM2sdzIn//CD5PmSmap/5sd8O6bHVGiKL9wU1e4WhAcXD0cSUBQEZRr8KJNkaSY87iw3/6KY6zQk8ev1B2Z60/zF4AwBe6HAFRv8r0NEqYH+GrsdDAQyiRMG/Dumx3Q/82OyJLZu7Edl2MTsGrjLqzctEtgTnQmeYuFILROU7vFkhNicDZio7NmxgKQz5vnrGYqfZ7eAcJ9Ct0dujvTZ8HSFVGoTGWc270Z95LlbVveBgmjA78a+7s4C6zQ7WoVy6DdCw3x0vPhHuUOfvr0P6za9K8AClL7ONpKifVXrGItBIVWwL2b1xFQoLBd1d6+Fo/TOy0XEXYKrgLQ1tn8pNXn6RUgvJ0iMPiT3Z5yM2bOisJlK6NAcHlkymJhNY/asBgP792WrUaQMGakc+umQmIYbwi5rT4fNQXMTGstdMknTWrr5+upDu5iWOyaLRECKEjPo1Sor+yBefDg9k2kPOJ5G8KXSvHKddwFCfMUeueQp3RwdsqlR4Aw6xSBUd6ebrIF5EZQcBgKlCqHDHbCUg+vnoMnj+0Tr5Hiv/NLTQU7ybM1KqqaBrprkAWFaRiYjsAkzCNI4unYhOuYPp9fsLbC4Ce6o5M6lb+rhIVKCpGhhG7vTHHAts9ciMbOvUeFZ4nzoajquEylWh14pJAXriRndm3Af0/tZ68y1mT+aOWI9VTnHbSTngDC0yKBYZdKJEfu/OCVJIHxTIYMTtV7YPlMp2VY4Ln6NQ2M6qVLmZnVnYW32mH+kH1ekYL5HXJYKeqklwvlK1EaIbXsu8cTJDy4P35gyCHiQLgc0VVeE5IeAEI/DV7Z9rKn0UyZs6JgmUrCdiBDRuUZcFMePsCRtRKGIMWTxtDW0qWKISh/HgTly4MC+XMLPMAF8ubBkeNnhMxW6U3K1GuB3IXkmRY51rs3ruHS4X9xP9kmLNdaFUxqrwkGFF8HCEExDEBJey8bVwsCg9sqNXL7ahxO/0sSlPQrBC5Xv4Z1q2D81AV4/FhC2SMMPG+mTOhTtAhupKQgWfh5gtP37+H8/QdmxeQvURrBDlYRFuSXTsyx/bh++YwjhTJUl+HQth1J5WnwVYDwfEFgkBBAVgKDigrACCzkfiruxPPHER3pPbtWzYBcyGHc8u1MVmdkpoGRaRCcCcFQp1oF1K1eAaQl4vnlQnQcyI4yw5hfUNxG7YAAvFywAPoVtXXN33TjBrpEnTAXz5gpM6q26ooMGZ1fSSecPYaYqL2OujvSuDNwNiSvfu6LAOlvBIfs/WLWnIECMIJC7J7RVSk0/nQkrhz3fFLWz0qWwJBSPJsa5FbKE6xNSsKGpBvYmZyMRAcJN8UDGf15P4FMmof+bbsPY/eBYyhWuACKFi6AYoWDhL+5SoSUlL7oew4dF+LYGaIrlloBuTCoRHG0zu/4pm70pWiMuRxtrlr62WbIU8Tugi55RnJ8NM7utiF6MJXhrQXn2PYqT9UMqqvkSwCpYgSG3fiCgqEVUaR8NWTKapMGRJ12rGolnj8huFI8uueZOasRkAtbqld12LfNN24KQNl+IxmH7jh+bpvm9fHdJ70VB2Kt2LATn4+eiivxFqLJLM88g4ElimNQyeLg384kIvkWWkdaDIvODIjW7SWciULMMbuuKWmey9C5BpxpKHU+p3sIt1SyX2fZcgWiaIWa4OR4Wx7dvyuAJPHccbcfNbV8WXQpGKS4neVXr2NeYqKwutgTbqE6tGwk/HD7ZE/GTZmPERP+lHzM1YKrBlcPVyQ4Yq9wLqFkC8iDSs1cy3AQe/IQ4k4a8tRbCXcLzjmHXOmsi2W1DpDWAAYDeN7euPKXLIuiFWogS3bvsgZaP//2tTjw248uFWrlfL26wuHXVeG39rS4eCy7es1hVXHOc+YlNMn5y3FYuHKL+d/sw/DQYLxRSJ3fV+eo4+BKR6FdqUYbp44Lkn4/SXmMo+sWgL+tpJORVMNVFXmsvFYBwuTf/Pawe3WbOVt2YdXgLVVayrWLpxB/NgoP77h2uM6ZMSNi6pMvQr3wBmlh4lXh58IDy22SKy3ygmBRpYrI54av18Az5/BHfIL5sdVad5N4Jijpj51VJM2zUWkNIAQGLeH8sSt5iwYLqwaXcy0Iry7jzx4VVhSlUiRLFhx/trbS4g7LxT16hPGXYzA9Tj41s7OH7KhZDVVyql+Bx0fHYMRFS5RhhefagUZZV+TCgR1IirbxHuZez+Ji4EqDHiqrJYB8bSRPcDi04pXqoFBZl7zVPaQq583QAHY9+iwSz5906lZRPkd27K7l2QC7dUk38GdcPPhbLCWzZQVvyzoUKIBT9+5hYswVLL9mcch09SxkrQmuYH1PWewa5Rq2cujEKKfJk9tX4e4NSVYKhid6/1DpZFq1ApAuzlJzZQ/Ig+KV63rEruH8VXevBA/y1y+fFQ7z9vy56gQEYEN1Xsx5XuIfPcLlBw/R8shR0I6xUeY5tF/QjkEheJJSUnD98WMkPnqE5/LmEX5q5FJ2WLe+yVIDkCNr5podII0aYf42vhdpKloASBkADs2q+YqFoETVcK9d33prBp4+ScH1S2cQe+qwYEEWS8PcgVhZ1Xsr4ZrrSXj9+EmUypYNh+tIcpYK3Zh0JQ5fnLcQ3LNcjyKFEB4YgKDMWVAwS2YEKHTLiX74EFX3WmxErgKE/lmR6xZYT8PrAKRRZN6aKAftagEgHxhjw2W7ydiDwuUc2wrSQG8uP/LapdPCVSZXF4qnAXL3yRPMTUjEgsSrOHDbYi/JkTEjrshcBtC20jbSED/OA/q5cPdIR/L+s8usE1cBYsdgyCs1m0xgLivezQpaAEg/fqFZj4MW8VLV64NhnelF7iUn4cRWA0mDJwBy+t59LL16DfwG58+F+w8Q89AQpyGWM+F1UCBzZsn/iQFSMWcO/FtTfQw8/bNCIyxuI2FN2yJnHma6UyYyN1h0fmulrLZ3S2kBIHRTl4Sd5cidD+UatQZ9e9KTMB7i0Ko5wgHeEwCR0w1Xj41JN4SD+P2nT4UiK6tWQsPcUmfNT8+dx7RYw62Xu33hdXOt/QfN3anR7k1kyKDca5ruJlxFRELb149amHstAIQ5z5KtlVH9pdeRMXMWLejIo304vvVvwd07NHs2HKhtezbw5MOaH44Utltjy4SidxGL6xqBQYCYxF2A8Bl8FiV77nyo+Fx7l4YhE5xGxUidw1xq0XOFtQAQjibCOo8dY8RLVHHPkOY5NXmupfP7tuHGFcPhmPt+dwx0znpVe/9BnLv/ANkzZED+zJmFZ3EbdvuJNLKPACGIwnKo4+P67Uoshp43kMYpcXkX95sxIie3rxT/F0/7njEQOVOQgs+1AhCS4NqkX3IUxqlgbJosIt5vL6hUAS/ky+u1fpbZvU+4ulUqBEhYjuwonyMHwnMH4NnAQAFczqT+wcM4cdcQKcjbxoKhJHVXJjJe0kxpxZzqmhCtAITkxjZRSa64TmtCmwo6cTfpKk7uMMSZW7u6K6iuuMiRO3eFbU/Kf//Z1KlVqxZq1KiBlJQUzJs3Dw9lDvamSlVz5QSt/nkyZULuTJmMvzMKfwdmNPxuf9TCplil5Ssu+cWRGsjKn40h03Z94BUrwEMFtQIQnkMYYmnxqAOQM18Qwhr7dA5I2WmKXDcfjx/cR5v8+fBXxTAPTaWlmdkJifj47Hk8NB7Sw8LCcPHiRYSHh+O1115Dnz4WTx7+//DhwzFzprL4e0edDSxYFGXru0bkHrl2Ph4/vG9qVnPsJloBCBXEFcRGu+nxsG7yOwrJlg0HZYx47iCGZwGeCUzCF79Hjx5Om/z2228xZcoUxMXFOS1rrwADpbjqKxV6RJ/eKdk4MHd9X6X1U6OclgBik8SGCihctgqKVdLMmc0jc8J47IsHdwptyV3BqnkIr1o/P39BEisyatQoDBmifDsfGxuLadOmITo6GvHx8Vi9mqHhBgl7thEKh5RFnoKFcTMxHvEXzuDkHtvchK6cQeJOHUHsCcv1sJFATp7nSI1SPFBHSwChpcrmao/0PDXbveWBoWqnCbpWHN2wCP89fSpcv/IGyR2hsXD4xcu4ZOXy3qVLFyxcuFBV0+vXr8eLLxp4d3t+/wuCK9kaEh/cvYOIlQuxbf4M8zMYl1OuUStkzRHg9Lnn9m7BzdhLpnJ0DPMOE5/TntgvoCWAsJc0GNqwITujk3Fj/GlWlURqtxKvCBbuiFrVbSzdSjr26OlTARi/irZU1vXGjRuHwYNpd7OVmJgYREREIFeuXGjVSmq4XrBgAbp2NaRNGThtMfIE2acY5UqybOL3IGAo9J0LccDbyzL0Uzu2eZk4fHkRgFeUjDs1y2gNILJuJ2QoKdvAtcNfaipRzbNIAMErToq1IU9JexG3buG7C5fB3ybhFiikcg3hW10sW7duRdOmtkTTHTt2xPLly4WiUVFRqFSpkrnaxIkTMWAAI52Bb5cbtoOO5GLUIcz8km51BnG2NZahUyI/r6a2VxyH1gDCrynyyNhEQjkiSXY2eVr9nGyDFFcs2Q+ePhUCo7hycAUxSbacuVCvreELmAAxfZvz3+XKlUPRokVt1LBt2zbz/8kByPT5c13fVqTCE3v+Ec4mlOCajZAlh313+Xs3r1nnEdHauyiMQ4ud4n2j82sXRVPmO4WcRfWduncfS65exZKr1yRkbb4zQoc9pSmdKSo0J1oECBn1LBkuNacy73RoZGgI+heTei4nPU7B/tu3BVDw54mM0c87vUn1VjW5vdLqCsJ+0bXTPslrqs9f6jxwZoXyQkQfreCH79zBcaP7Ruo8PU2fosUvas1usdgx2kTsiWXjnKZzqj/cgxrQ7JxqFrkeVL7elK4B1RrQAaJadXpFf9CADhB/mGV9jKo1oANEter0iv6gAR0g/jDL+hhVa0AHiGrV6RX9QQM6QPxhlvUxqtaADhDVqtMr+oMGdID4wyzrY1StAR0gqlWnV/QHDegA8YdZ1seoWgM6QFSrTq/oDxrQAeIPs6yPUbUGdICoVp1e0R80oAPEH2ZZH6NqDegAUa06vaI/aEAHiD/Msj5G1RrQAaJadXpFf9CADhB/mGV9jKo1oANEter0iv6gAR0g/jDL+hhVa0AHiGrV6RX9QQM6QPxhlvUxqtaADhDVqtMr+oMGdID4wyzrY1Stgf8DQPZtubOJerIAAAAASUVORK5CYII=;fillColor=#A8DADC;strokeColor=#457B9D;fontColor=#1D3557;rounded=1;" vertex="1" parent="1">
          <mxGeometry x="649.52" y="545" width="100" height="100" as="geometry" />
        </mxCell>
        <mxCell id="dSbTfwvZeGPVF9yTLijO-28" value="" style="verticalLabelPosition=bottom;verticalAlign=top;html=1;shape=mxgraph.basic.frame;dx=10;fillColor=#A8DADC;strokeColor=#457B9D;fontColor=#1D3557;rounded=1;" vertex="1" parent="1">
          <mxGeometry x="230" y="270" width="170" height="110" as="geometry" />
        </mxCell>
        <mxCell id="dSbTfwvZeGPVF9yTLijO-29" value="" style="verticalLabelPosition=bottom;verticalAlign=top;html=1;shape=mxgraph.basic.frame;dx=10;fillColor=#A8DADC;strokeColor=#457B9D;fontColor=#1D3557;rounded=1;" vertex="1" parent="1">
          <mxGeometry x="430.48" y="270" width="143.84" height="110" as="geometry" />
        </mxCell>
        <mxCell id="dSbTfwvZeGPVF9yTLijO-30" value="" style="verticalLabelPosition=bottom;verticalAlign=top;html=1;shape=mxgraph.basic.frame;dx=10;fillColor=#A8DADC;strokeColor=#457B9D;fontColor=#1D3557;rounded=1;" vertex="1" parent="1">
          <mxGeometry x="600.48" y="270" width="143.84" height="110" as="geometry" />
        </mxCell>
        <mxCell id="dSbTfwvZeGPVF9yTLijO-31" value="" style="verticalLabelPosition=bottom;verticalAlign=top;html=1;shape=mxgraph.basic.frame;dx=10;fillColor=#A8DADC;strokeColor=#457B9D;fontColor=#1D3557;rounded=1;" vertex="1" parent="1">
          <mxGeometry x="770.48" y="270" width="143.84" height="110" as="geometry" />
        </mxCell>
        <mxCell id="dSbTfwvZeGPVF9yTLijO-40" value="" style="shape=corner;whiteSpace=wrap;html=1;dx=40;dy=40;fillColor=#A8DADC;strokeColor=#457B9D;fontColor=#1D3557;rounded=1;labelBorderColor=#000000;" vertex="1" parent="1">
          <mxGeometry x="110" y="300.26" width="100" height="110" as="geometry" />
        </mxCell>
        <mxCell id="dSbTfwvZeGPVF9yTLijO-46" value="" style="endArrow=classic;html=1;shape=flexArrow;fillColor=#A8DADC;strokeColor=#457B9D;fontColor=#1D3557;labelBackgroundColor=#F1FAEE;" edge="1" parent="1">
          <mxGeometry width="50" height="50" relative="1" as="geometry">
            <mxPoint x="400" y="230" as="sourcePoint" />
            <mxPoint x="550" y="230" as="targetPoint" />
          </mxGeometry>
        </mxCell>
        <mxCell id="dSbTfwvZeGPVF9yTLijO-47" value="" style="endArrow=classic;html=1;shape=flexArrow;fillColor=#A8DADC;strokeColor=#457B9D;fontColor=#1D3557;labelBackgroundColor=#F1FAEE;" edge="1" parent="1">
          <mxGeometry width="50" height="50" relative="1" as="geometry">
            <mxPoint x="930.9700000000003" y="230" as="sourcePoint" />
            <mxPoint x="780.9700000000003" y="230" as="targetPoint" />
          </mxGeometry>
        </mxCell>
        <mxCell id="dSbTfwvZeGPVF9yTLijO-48" value="&lt;font size=&quot;1&quot;&gt;&lt;b style=&quot;font-size: 18px&quot;&gt;流水线处理过程&lt;/b&gt;&lt;/font&gt;" style="text;html=1;strokeColor=none;fillColor=none;align=center;verticalAlign=middle;whiteSpace=wrap;fontColor=#1D3557;rounded=1;" vertex="1" parent="1">
          <mxGeometry x="590" y="219" width="140" height="30" as="geometry" />
        </mxCell>
        <mxCell id="dSbTfwvZeGPVF9yTLijO-114" style="edgeStyle=orthogonalEdgeStyle;shape=link;curved=0;rounded=1;sketch=0;orthogonalLoop=1;jettySize=auto;html=1;strokeColor=#457B9D;strokeWidth=5;fillColor=#A8DADC;fontColor=#1D3557;labelBackgroundColor=#F1FAEE;" edge="1" parent="1" source="dSbTfwvZeGPVF9yTLijO-55" target="dSbTfwvZeGPVF9yTLijO-111">
          <mxGeometry relative="1" as="geometry" />
        </mxCell>
        <mxCell id="dSbTfwvZeGPVF9yTLijO-55" value="" style="verticalLabelPosition=bottom;verticalAlign=top;html=1;shape=mxgraph.basic.arc;startAngle=0.3;endAngle=0.1;rounded=1;shadow=1;sketch=1;strokeColor=#457B9D;fillColor=#A8DADC;fontColor=#1D3557;rotation=-170;strokeWidth=20;perimeterSpacing=10;" vertex="1" parent="1">
          <mxGeometry x="640.48" y="520" width="130" height="130" as="geometry" />
        </mxCell>
        <mxCell id="dSbTfwvZeGPVF9yTLijO-24" value="【代码质量检查】-Sonar" style="shape=image;verticalLabelPosition=bottom;verticalAlign=top;aspect=fixed;imageAspect=0;image=data:image/png,iVBORw0KGgoAAAANSUhEUgAAAu4AAADICAYAAAC3d2TIAAAgAElEQVR4XuydC3hkRbGAq04yp0/2AaI8FeWliLCZLAjyUBAUNsnyuKACXkRgNxNWURFFQPGNKKigoleRzeyuioiC+OCxSRYUBEFAcMlkRVQUURQfXAV2l5w+SU7dr8JkbzaZmdN9HpNJtvr78i0fU11d/feZmZru6ioEaUJACAgBISAEhIAQEAJCQAg0PAFseAvFQCEgBISAEBACQkAICAEhIARAHHd5CISAEBACQkAICAEhIASEwAwgII77DFgkMVEICAEhIASEgBAQAkJACIjjLs+AEBACQkAICAEhIASEgBCYAQTEcZ8BiyQmCgEhIASEgBAQAkJACAgBcdzlGRACQkAICAEhIASEgBCYkQQ6eh7MI+aWI+K7V3e1PjAjJ2FhtDjuFrBEVAgIASEgBISAEBACQqBxCHQUB3sAqMAWIdFHervbPt041qVviTju6TMVjUJACAgBISAEhIAQEAIZE+joeehNgM4Nmw1DdBcCnN/b3XZvxsNPi3px3KcFuwwqBISAEBACQkAICIH6E+hYMfhxGqW7+8/M31b/0dMb8cTr7ml59tn59yDQwspa8cK+Qusl6Y3YGJrEcW+MdRArhIAQEAJCQAgIASGQOYGOYumXALA/APwCEH+OQLf3duV7Mx845QE6iqVPAcBHaqpFuI1Cuqi/u+2ulIefNnXiuE8behlYCAgBISAEhIAQEAL1JdBRLFGFEUtA8DN0oHcmOPGdPQM7E+L7AeB9JvQQ4OO9hfxFJrKNLiOOe6OvkNgnBISAEBACQkAICIEUCCzqGTzKQVoToepRIOglx/lhf9eC21MYNjMVHcXSiWXn/eDIQRD7qck5t/+MfX4dKdvAAuK4N/DiiGlCQAgIASEgBISAEEiLQGdx8EsE9F5zfXQ3AN4wMhrccNuy/f9s3q9+kp0rf7Udhc0fMtp9J/grQnhub/fC79XPwnRHEsc9XZ6iTQgIASEgBISAEBACDUmgozjwJwDcJYZxGwDgBgS6obfQdlOM/pl36VgxcBwQfhAAInffEeFTvV35j2VuVAYDiOOeAVRRKQSEgBAQAkJACAiBRiJw7FV/mzPc9NTGFGwaIIIbnNGRG3rfsd/DKehLTcXYHJuf+igQsANfuxH8MAQ6d01322NRoo30ujjujbQaYosQEAJCQAgIASEgBDIg0FEceCsAXpuqaoTlYQjL13TnH0xVb0Jl7ctLR4IDH0WAwyJU/S4M8dw1Z7benHDIunUXx71uqGUgISAEhIAQEAJCQAhMH4H2Vb8+FEdGTgfE0wAgl5olDerAd64YuIwIz42aJwJ8sLeQ/2yUXCO8Lo57I6yC2CAEhIAQEAJCQAgIgToSWHTVwIFOs9MBRJyZZZ9Uhm5AB76jOHA6gHMZAG0bMcdv+9p55x3vWsDx/A3bxHFv2KURw4SAEBACQkAICAEhkD2BMSfegU5wcDEQHJB4xAZz4NtXPrwfhiOXA8DhteZGAHcCOF39hQWPJmaQkQJx3DMCK2qFgBAQAkJACAgBITDTCHB2FiQ8mYBOBsCmZPbj15xw9IrVZy78XTI9yXuf+PF17vqdw8sA4T01tRH8gYCWNGq1VXHckz8LokEICAEhIASEgBCY4QQ6etYeDuAcAIjPAtGzAPiMg7CBIFw/MkIbciq3fqRpdP2a09rSyMzS8LQWrSrt5YwQX2g9GRD2im8w/huBrhgeDa64bdn+z8TXk07P9hWlbiS4DAC2qqHRB4DT+gr569MZNT0t4rinx1I0CQEhIASEgBAQAjOUADvuiE2mlUI3AuCzAPQsAWxAgPVA9AgiPELo/KZpBB+5edmChixYZLs8J15HTc8+O3gyApwMAMfZ9h+XJ4DfIIRX9BUWXhVXR1r9OnsGDiIci3t/bS2diHh2b1frV9IaNw094rinQVF0CAEhIASEgBAQAjOagKXjbjLX54DgEXDgN0jwCBE9MorwyNZb5X9z/Uk4aqKg0WQ6lq87AJrC04FgCQDMiWnfHUTwpf7u/I9j9k+l26JvDcxtCnA5AZxSWyFd0ldouzCVQVNQIo57ChBFhRAQAkJACAgBITCzCWTguNcAgr8HCB8hgkccwLvd5tGf/WjJvk/PFIIdKwZeSYRLHIAzCGCHeHbjd5HCK3q72+6N1z+dXp3FEjvv3bW0IcKq3q780nRGTKZFHPdk/KS3EBACQkAICAEhMAsI1NdxnwqMAB5EwNsxHP1ZE43ce9Oy/Z9qdKxHrfjVi5vDpiWEzhkA9PI49hLARVtt9chF15900rSdQrT3lL6ICOfUsp8AevsL+cVx5phmH3Hc06QpuoSAEBACQkAICIEZSWC6HfcK0O5FdO4gCu/DJufe1UsW/L1RwR634pH5QaiXEMASRFxobyf+PCS4aE136632fdPp0V4cuBgBP1xTG8GP+7rzx6czYjwt4rjH4ya9hIAQEAJCQAgIgVlEoAEd90l08ecAcC9QeB//29vd9kQj4u/sGTiHxnavcRdr+xAunT9/w0XXn3TIkHXfFDp0FAfOAsCv1lJFgFf2F1rPSmG4WCrEcY+FTToJASEgBISAEBACs4lA4zvuk/14uBGJbhpx4cY1p7X9s5HWov2qB3ZymtxzCMbCT1w72/B+Dp/pL7TeYtcvHenOFYOLiKi/pvOO8LH+rvyn0hnRTos47na8RFoICAEhIASEgBCYhQRmnOP+/2vwNCDeCGF407ytm268/qQFQaMsT/tVA/th09ju+9tj2PSFkdHgounI/d75jcE9aIRqVk8lhHf3d+Vr7s7HmHNkF3HcIxGJgBAQAkJACAgBITDbCZQd988A0FYIznwC4gI9/OfMlLkjwGMh0k1AcGNfoe0njWJ3e3Ht0UhN5wDCkTY2EdBDAPCh/kJbn02/tGQ7iiWqqYtgWV93fnla45noEcfdhJLICAEhIASEgBAQAlscgc4v/141q3B+2Ky3GgFnPgLMhzDcCgHng8MOPswPQ9oKEV8BAHuW/2pV5Kwnw7UAcJNDcOMt3fkH6zlwtbHaiwOF8gXQXe3swQv7Cq2X2PVJLn3wF+5p2Xqrec/V0kQES/u786uSj2amQRx3M04iJQSEgBAQAkJACAiBSAKLv3r/jjhn7itGw3BPJBp35scd+1ykggwECOh2RLhxBEavu7Vrv79lMISxyo4r1+4KuaaPA8AZxp1YEOH7TQAX3NKV/6NVv4TCR19T2mZ0CP5dSw0inNrblb8m4VBG3cVxN8IkQkJACAgBISAEhIAQSEZgUc/Abg7RngiwJznOfghwGADsnkyrVe+/E4TF5tHmnpuXLfizVc+UhTuWl84AB9iBt9l9/yMSXdDb3fb9lM2pqY7z1TdR819rCRHiyf1drddlbZc47lkTFv1CQAgIASEgBISAEKhCYHHx4V0IR14HBK8HotcDIu/SZ9zoKSQsogM99d7Bnjix2LvvQJf0FdouzBjSZuo7r3pgD2pyq15YJaCnKQyPXnPmvvdkaZc47lnSFd1CQAgIASEgBISAELAgwBlNcAQOIQoPAYRDAXAfi+62ok8DUBFD6ll95sLf2XZOSz7m7nuf0wTnr16SH0zLjig97ct/vQ86o+uqy9FaGh0+un/Z/k9G6Yr7ujjucclJPyEgBISAEBACQkAIZExg0VWlvZqawkMImg5GgCMAaI8MhtwAREVoaurpXbrg4Qz0R6rk3Xd0mz9JRKdFCpcFEPDP6MC7Vi9tvdm0T1K5xSsG9w+JflnDef9BX6HtzUnHqdZfHPesyIpeISAEhIAQEAJCQAikSODw26l57qPrjguRjgOC4wBhmxTVsyofAIpE2NPX3VpKWbeRuo6egbMBkTPIzDHqAAD1zqne3jNwKCLeWc0+Qrq8v6vtA6b228iJ425DS2SFgBAQAkJACAgBIdAABBZdObC94zrHItFxAMB/abYR3oEPm6Cnf2nbr9JUbKJr0crBQ5zR8FJAPNREfkwG8fN9Xa3nG8snFOxcUXobEXy7qvNO8O7+7vQLNInjnnDhpLsQEAJCQAgIASEgBKaTQMeKgVdCCMc5iMcScFx8ig3p8nBk+PIs47YrWXvidevc9c+GlwLA+4xng3hdX1frycbyCQU7igOfAcAPVVVDcHRfd351wmE26y6Oe5o0RZcQEAJCQAgIASEgBKaRQGfPwEGEcByO7cKnc7GVK7ICweWrM9hBjkK1uFg6JQRgB/6lUbLPv0739xXaDjSTTS7VUSz9uMaJx2NNhEff0t36m+QjPa9BHPe0SIoeISAEhIAQEAJCQAg0EIHFKwePoZC6AOD4VMxC+CmFcHnau8hRto2dKIBzCRCdECU75roD/KO/kN/RRDapzInXXde0/tlX/bbqpWGEn/rO/KPvWLIb3x9I3MRxT4xQFAgBISAEhIAQEAJCoHEJdBR//UYHR7uI4L/TsBIRV2AIl6e5k2xiV0dP6SpAONNElmX6Cvm6+Lntyx/aBx2nappIAryyv9B6lqndteTqMqE0DBUdQkAICAEhIASEgBAQAvEJdBbXvRaAlj7/l7TR00DOZUPN8y5PazfZxKLIuPJJSurmvK8YeDMSVq/oirCsryu/3GSO4rgnpST9hYAQEAJCQAgIASEwSwi0rxzYryl0ugiAnXgv2bRoLULzZasL+3wnmR7z3u09g+ci0mWmPerlvHf2DHyYEC+uYtczBM6i/sKC+03triQnO+5J6ElfISAEhIAQEAJCQAjMUAKdK3+1N1BuKdBYHPwLkkyDgH4QhuHla87c954kekz7cvgPQriGgByTPvVy3juKpasB4NRKNhHAnc5zTyzqPXuxNrFZHPe4lKSfEBACQkAICAEhIARmKYFjewZ2G0GHnXfegd8p4TQv6C3kP5dQh1H3o68pbTP6HP0OELc16VAP57396od3Qj1yKwDsU9EmpC/3dbW918RecdzjUpJ+QkAICAEhIASEgBCY5QQWrRx8aVNIXMTo3cmmSt9DyF2wurD348n0mPXuWDF4NxAdYiJdD+eds/mEId1UzR4iWNrfnV9lYu9kGQmViUNN+ggBISAEhIAQEAJCYJYSWNwzeBQhnQcAR8WfIv2eQueCvjNbfxhfh3nPjmLpdgA43KRHPZz3jp6BTwDixyvbg08hjC7qLSxca2LvRBlx3G2JibwQEAJCQAgIASEgBLYAAp3FEu+88w68YfGjqVAI4OK+Qv6j9cBl4bw/21fIb521TR3FwRsB6NiK4yDc1re0dREgko0d4rjb0BJZISAEhIAQEAJCQAhsQQTSCJ9BwFtGIPzgmkJb1VznaSE1d97p132FtgVpjVtJT+fKdXtTGHK8+4ur7Lxf1ldo5ZMN4yaOuzEqERQCQkAICAEhIASEwJZJIHn4DD6JABesLrRy1pVMm7nzDn19hXxnlsa0FwffjkDfqjYGhXBU/5n520xtEMfdlJTICQEhIASEgBAQAkJgCyeQOHwG4Uvz5jsXXH/SgiBLlKbOOwH09BfyxtVY49jcWRz8EgFVyySzpq+QbzfVK467KSmREwJCQAgIASEgBISAEIAUwmfuBKILervb7s0Sp6nzDgBf6Cvkz83KlsNXPeZ54YZbgeh1lcZAorN6u9uuNBlfHHcTSiIjBISAEBACQkAICAEhsBmBzp6B0wDhMgDczhYNEWxAh97V29VWNYzEVmcleWPnHeHSvq78h9IYs5KOzhWDi4iov4r+x2i0+bX9y/Z+Mmp8cdyjCMnrQkAICAEhIASEgBAQAhUJdBYf2hfA+TwAvDEeIjqvt9B2Wby+Zr1MnXcCuKi/kK+SwtFsrFpSHcXS1wFgWRWZL/YV8u+PGkUc9yhC8roQEAJCQAgIASEgBIRAVQInXkdNG9YPXgYE58TE9LneQv6CmH2Nuhk774jv7O9qZQc79XbUqrWvaBptuhsAKp5QOACvX13I31lrYHHcU18WUSgEhIAQEAJCQAgIgS2PQGdxcCkA8e75NrazJ4Bv9BXyS2z72cibOO8IGALSMb1d+V4b3aayncXSBQRwaSV5RLy5t6u1ct73cgdx3E1Ji5wQEAJCQAgIASEgBIRATQIdy9cdgE7Izvthtqg43/vqQusxtv1M5Y9b8cj8gIIbDSqsPoaOc0zv0gUPm+o2lTv89tubvUdfdA8gHFCpDwF19xfaitX0ieNuSlrkhIAQEAJCQAg0KAGl1AcAgOOMbdqPtdbH23QQWSFgQmAsi8rI+ssQ4V0m8pvJIPyytyv/Gut+hh2OufKhl4zkmn4AQFFj3BG6dMya09o2Gqo2FmtfMXgSEn2vSoff5kaD1920bP+nKr0ujrsxZhEUAkJACAgBIdCYBMRxb8x12dKt6iiWlgEBO/Dz7FjQ40NNW+11x5LdfLt+ZtKLVpX2ckbhJgB4eUSPb/YV8meYabWT6ugpfQ8QTqrYi+iTfd1tnxDH3Y6pSAsBISAEhIAQmBEExHGfEcu0RRq5aPnaQ5qcpv8BgH0tATzXlFN73nz6K/9q2c9IvL04eDQC3RwlnFWmmY5V6w6AkZBDZpor2PA3Us379799anpI2XGPWjF5XQgIASEgBIRAgxMQx73BF2gLN++Yb6572ehwuDJOysgQnYX9XQsGskDYsaL0fiC4PEo3Anb1FlrZ/lRbe7F0KQJUzqZTZdddHPdUl0CUCQEhIASEgBCoPwFx3OvPXEa0J9BZLF0HACfa9iR0Du3rWvBz234m8u3F0nIE6K4tS88g0BG9hYVrTXSayixetW5HGqX7COhlFfpU3HUXx92UrsgJASEgBISAEGhQAuK4N+jCiFlTCCwulr5O1YsQVSXmIOxxS1f+j2kjPfaqB+YETW4vRmbBwZv6Cq3HpT1+e7F0AVZJDwkVdt3FcU97BUSfEBACQkAICIE6ExDHvc7AZbhEBDqKg59BoA/ZKsEmZ6fVSxb83bZflHy5+msvAexQU5bo/L7uNtvsTTVVjqWohOF7gWhvk113cdyjVlNeFwJCQAgIASHQ4ATEcW/wBRLzphDoXFHqBoLllmiGVdPo9j9asu/Tlv0ixTuK694KEF4b4bgPOU3NR6xeus99kQotBNp7Su9CBL7AO7VN2nUXx90CrIgKASEgBISAEGhEAuK4N+KqiE1RBI5eOXhIGNLdUXKbv06Pw4vnvLJ38Su0Xb9o6Y6egU8A4sdrSiL293W1dkRrM5c48brrmtY/s9cvqhRl2izWXRx3c64iKQSEgBAQAkKgIQmI496QyyJGGRA4ftXaF+jRJo5d38ZAfFzkF72F/CEW8saincXSGgI4qlYHJPpIb3fbp42VGgh2rCidAQSrKopO2HUXx90ApogIASEgBISAEGhkAuK4N/LqiG0mBDqLg2sBaKGJ7PMydENvoe0t5vJmkp09AwcR4k8AYE71HjRKTc1H9C/Z5y4zrWZSHcWBnwLgERWkbyTV/A7O6y6OuxlLkRICQkAICAEh0LAExHFv2KURwywIdBZL9wLAgaZdCLDYV2iNSOVoqu3/5YzyuyPe3tfV+gZ77dV7tK8YPAmJvjcmgRAAwbUhwMo1hfyd473EcU+TuOgSAkJACAgBITANBMRxnwboMmQmBDqLpYcB4FXGyhG/0tvVeraxvKFgR3HwBgB6U21xvLCv0HqJoUojsY5i6WYA+o3ThN9avSQ/OLmTOO5GGEVICAgBISAEhEDjEhDHvXHXRiyzJ9BZLP0FAHY27YmEn1/d3Xq+qbyJXOfKdXtDGP40IkXkBoTwsDQLM3X2DOzc2932RDUbxXE3WT2REQJCQAgIASHQwATEcW/gxRHTrAmMXVgNmx8Hoq2MOxN8qrc7/zFjeQNBTllJ0Skrr+8r5E8yUJeKiDjuqWAUJUJACAgBISAEpo+AOO7Tx15GzoZA51WDe0ATPWqjHSE8bXVh4dU2faJkO4qlbwDA6bXkiGBpf3e+ckaYqAEsXxfH3RKYiAsBISAEhIAQaDQC4rg32oqIPWkQ6Fi17gAcDe+30PUPIlzU191asuhTU3Tx8of2DJucu4Bg+xqCjzpNzqFZVHWdPKY47mmtrOgRAkJACAgBITBNBMRxnybwMmzmBBYXBzoIsNd8IFzTW2htN5ePluwolt4HAF+oKUnwlb7ufOqXZMVxj14fkRACQkAICAEhMKMIiOM+o5ZLjLUksLhYOoUArjHvhpf1FlrPM5ePluxYUfoJENRM/4gIi3u78hY/MqLHFcfdnpH0EAJCQAgIASHQ0ATEcW/o5RHjUiDQuWLwPUD0ZVNVace7L+4ZPCpEWhMx/l19hfxhpjbGkZNQmTjUpI8QEAJCQAgIgQYiII57Ay2GmJIZgY6egU8g4scNB0g93r1jxcAVQFg7HIZgWV93frmhjdZi4rhbI5MOQkAICAEhIAQai4A47o21HmJNdgQ6V5SuB4K3mI2Qbrx7+1UP74RNI3cBwB41xn+wr5Df38w+eylx3O2ZSQ8hIASEgBAQAg1FQBz3hloOMSZDAouLv9oFsLmPCPYyGybdePf2FaVujMrtnuGuuzjuZqsuUkJACAgBISAEGpaAOO4NuzRiWAYE2ouDRztAN5uqTjvevaM4eCMAHTsdu+7iuJuuusgJASEgBISAEGhQAuK4N+jCiFmZEegsli4AgEsNB0g13n3xysFjwpBuqjl2Rrvu4rgbrriICQEhIASEgBBoVALiuDfqyohdWRJYXCxdTQCnmo2Rbrz7dO26i+NuttoiJQSEgBAQAkKgYQmI496wSyOGZUhg0ZUD2zc1Qz8gLjQZhhA+1NeVN92lr6lyunbdxXE3WWmREQJCQAgIASHQwATEcW/gxRHTMiXQ2TPARZHYeW82GOgZIjysr7u1ZCAbKTIdu+7iuEcuiwgIASEgBISAEGhsAuK4N/b6iHXZEujoGTwbka4wGYUIru3rzp9iIhslY7LrjoBdvYXWlVG6TF8Xx92UlMgJASEgBISAEGhQAuK4N+jCiFl1I9BZLHHRo26jARFO7e3KX2MkGyEUueuOeHtfVyufCqTSxHFPBaMoEQJCQAgIASEwfQTEcZ8+9jJyYxA4bsUj84cp6AeAg6MsQoB1GMBht5yV/0+UbNTrJrvuQHB0X3d+dZQuk9czddxbWlpeEobhqwCgFQD431cCwN4AsG0N454CgH8CwJMAsA4AHnYcZ3BoaOghABgymVQjyeRyuf0Q8eWIuAsAjP0h4vZEtBUAbF3+m4OI/yaiZwDgaQBgBo8T0R8B4E9E9Lvh4eEHG2lejWSL67p5RDwCAF6PiC8lonGuzNibYOtfAOAhRFxLRA84jrN2aGjoiUaai40tSqndEfFlAPDSMAx35rnzfxPRtojIc59f/ntB+b3zLAA8g4jPENG/+BkDgMeIiJ+13w4PDw/YjD+bZT3P2xUAjiCifQAgDwAvQcQdieiFAPAPRGRmfwOAv2itP1Z+3zYEEs/z+JnYfeIfEb2I7XUc50n+l4iebGpqGvvX932eR9AQxosRsQmI4x4bnXScRQTal5eOdBy41XBKn+st5DmlZOLWUSxxTvmjqypKMTwnbcf9BZ7nHQcAi4joSADYITGNzRX8noi41OxNQRCsAYDnUtafVN1WnuedEIbh4YjYBgD7JlU4sT8i/pKIfgkAvVpr48IDadqglNoTEV+clk7f9++Io0spdSQRnYqI/Eap9UMwSj07q1dqrb8NABujhKfpdU8pdSgivoGIXlsutZzaGkyYkw8ADwDAfQCwRmvN77F6Nn7/7JfWgL7v32/7GeF53mFEdA4AnGBqByLu5vv+n0zlU5ab67ruYkQ8EQD4M4cddpMLWpPN4M/VH5Q/W36bso2irg4EpttxV0q9nIj4GdwHEbflDRRE5E0U3kDgTYOnEPFfvFGAiL9pbm5+ZMOGDbxJNyub67p782dDecOSfaFtyn+8kTJc3kDhzTr+ezwMwweGh4f5M0taQgKdPaUvAgJ/jkc2BHj96kL+zkjBCIGO4rq3AoTX1hJDCPfrLSxcm3SsVBx3pdRRiFggopOSGmTZ/yZE/L7v+/yFs8Gyb2riruu+DRFPBoBaVbRSG6+siHfmvxuG4crh4WF25uvSlFJfAYB3pzUYEe0dBMFvTPTNnTt3x5GRkfcDwNsAIG3HdT0A9CDiFb7v/9nEnixlXNd9VflHSScApBYbZ2kz/5DpA4Bvaq1rF5qwVFxJPJfL7es4zq9SUDWmIgzDVw8PDxvpy+Vy+zuOcxmf2tiOX2/HnU8yeWOEiPhHKzvsqTZEfCAMw1scx/mJ7/vs0E9bc113geM4Vj/MEfHRRjlJa2lpOYSIXBuAvu/zM8uOrlWrt+Oey+Veg4j83c+bdPsDwDwrg58X/isi8ubNHblc7kfr16/n0+YZ2XK53EJE5B/RiwGAN1jiNo4uYCa3aK1vi6tkS+53XM/gDiMO3EVEr4jkgNDb25XnNUvcOoolfu/W2rD9Ql8hf27SgRI57kqpdkT8FBEdkNSQpP0R8VoiWlmvB7385XlWGIbLEPFFSe1P0p+I7gGAzwdB8KMkekz6KqU4/2kqR0s8Hn/o+77/k1pjz5kzZ6fR0dEPAcB7TGxMQeYKrfUn6h3+wF+EjuO8BQDeVN5VT2Eqqal4DAC+rLX+OgDwznzqjUN/AOAPKSpuNzg14F3+q4jorXHHrZfj7nleNxHxieYxcW2N0e+3RPQd13Wv3LBhA4dX1bUppfgz7b8sB32f1vpLln0yEVdK/d325DkMw/3jhEbWw3H3PG8XIjoPEU8hIt5BTrsVieiLQRA8nLbiLPTNmTPnxSMjI0sRcUn5tCvtYZ4johsQ8dNaazkJs6Db0TPQhYhFwy7v6S3k/8dQtqpYx4rS+4Hg8qoCCP+kkWBh/7L9ORQ8dovluPMvS8dx+IPRencqtqWGHRHxO77v845sJq0cP/oZIspsjASG85fsBUEQ/DiBjppdXdf9KCJelJZ+RDzd9/1vVdPnuu7JiLgCAEDgiHcAACAASURBVOamNaahHt75OU1r3WsoH1esRSn1DgB4b/kORFw99er3+zAMTxkeHuaQmlTb/Pnztw2CIDXnkIhODoLgumpGtrS08N0ADgfaK8lEEHF33/f5h00mzfO808IwfCciHpTJAGZK+a7NlUEQXAkAfDpVlxbTcX+/1vqLdTEwYhCl1D8AYHsbW8Iw3G94eNj6OD1Lx911XQ5/+XgWJzyV2CDidYj4gaGhIb6X1HCtvMnw+fImS73su4GIPjZTftTUC0qtcTp7Sj8ANAh7RPjraEiHruluS/Q5/saewR1cpAGqFSZOdH5fdxs/O7GbrePOsbb8a+Ks2CNm3JGIPhoEwcUZDLONUurDAJD4mCMD2yarvJXjdLN4gyuleP4cUpBKI6ILgyC4pJIypdSX67jLXnE+iHip7/u8259229p1XXbGmKdVKEDahsTRh4if8X2f3w+pNqUUpahwmdaa04NNablcrs1xHM4+kPgeTlY77q7rnoSI7wSAw1NkklQV7/rxnRB24DO/0BrTcZ/RO+4cJx4EgXVxmKwc97Q3a2weQN5p9n3/M7Z3VWzGsJSd63neR4jog5b9UhMvM/lIagpnsaJjiuteM4rhXUAQHa6GsLy3K78sKY6OYol9ZA7prdZKfYU83wWJ3Ywdd76UCAA3AMCC2KPVoSMiHpZ2XKbrum92HKcno6PBzKgQ0YeDIOAPvdSaUoodia+lphDgq1rryTHz85RSN3JWjxTHSaKKQ0R4RzyVppTicAfOHxsnJjQVG1JScldzc/NJGzdu5HCAVFqajjt/uQZB8NnJhpUvjXF4GV+cS9zS3nF3Xfe/yg57e2LjslMwfqn7quyGAIjpuM/oHXciygdBMGjLNW3HXSn1Cj7BJiKOX5/OxpmQ3hsEwfXTaUT5hzRvJiX+sZ/CPB4Nw/CkOCczKYw9o1R09pQuAoSPmhiNDh67emlrosQfncWH9iWofVcLERb3duVjn+YbOe6c0rCpqYl3cTkVWiO3Ia31nBQNfKHneV9NEv+aoi1xVf0cEd+W1oVLPrYnom/GNaZCvx9qrTmme6zNnz//RUEwlof11SmOkVhVNScwjmLP8zjN4E/j9G3APv8gojekdbqjlOJL16k41ADwWa31ZjtjnuftVr4TsmNaLNPccVdKcZzlu9KyLWs9RHRNEASnA8BoFmPFdNxn+o57axAEnArZqqXpuHue93oi4pDLtN6LVnOpIvwlrfX70lBko6Oc1ppP7lK5wGgzdoTsEBGdFgTB91PUOetUHXvVA3NGHPcuQDDJWHZjbyFve6dmCrOO4sC1AFj93hTBV/q682fHhR3puOdyuVc7jnN7OaVT3HHq1e8OrXUqu7Sc2goA+EY3516f6Y1TcB0Z5/h18sTLuw7fSwsIIt7v+/6BZX1zlVJ3l9PapTVEanqI6C1BEPCpU+KmlOI44Zm+4z7OgZ+vw9Nw3pVSnFN8p8SAn1fQo7U+c6IupdTvACA604CFASntuL9AKcXZsVL5/LIwPw3RX4dheEYW9x5iOu4zfcd9nzjvpbQcd8/zTiWiq9N4MDLQwWFadQvVLWe64qI5qf3QT5tJrXDTtMeaqfo6iqUTEaDqfaeJ80JwOlcXFnA2tditvTh4NALV2rl/tK+Qj/09VNNxL6ff40syDfvQbgYc8ZO+73M2kETNdd1WRORMJ9slUtRAnRHxP6Ojo29MerSmlOKUlxzGklZ7QmvNhYP4WJzfLI0cHsA7HAfGOcaeDEsp9UMAOD4tiA2g55/Nzc1tScNmlFJcdIxzH6fRrtdab0pR63nexRw+lobiSZ87iS6n5nK5AxzH4XSbjXAEHxsPInb7vm+axcFonC3UcTdOkTsRYhqOewYnqkbrbCl0ldaaL/Rn2pRSi8q1DeqdGCHOvBrmlCmO8fXo09kz8E1APC1qLAL6QV+h7c1RclGvtxdLD+PzhUcrtiThMjUdd9d170XE8d3QKDun/XUuUOP7Pp8OxG7lfM6sY7bshk5ksT4Mw8OGh4c5T2ysxjn7uThPrM5VOmmt0fM8ztSTxSXQNE1lXQ9rrbmaZqJWTu1X8eJkIsXT2/lOrXWiTFNKKU4DV/XDznJ6t2mt+XmFcl78TFLMJdlxd133FETk+w6zpX1Na51aqM8W6ri/KgiCR2wfiKSOu1Kqgwtw2Y47TfKf01qnlpZ48hyUUlwjIVGsc1kn18Lg6txPlCsX87/sW/CpIm+I7gwAXKU5ceOUlL7vfyOxolmq4OiewVeFOFbAMzJ9t4Nw1C1d+UQ59DuLpc8SwPlVcSYIl6nquCulOF9z4hu29XwGyvHtQ3HHVErtwaEbMyCWP+4UOW/6v4noIK317+Mo8TzvdeXqtXG6V+vDFz+vSFNhlrqI6BNBEHwyyRjluEn+QJ9VDROeeiml+IRvYRpQuJCQ7/tjNSaUUnyClkkhq7iOu+u6nyin2Etjuo2kgys7pxIPLI67+bImcdzLWZbibujw59ggEf0vIvLfxjAMX4yI7Jzyv1wwLIv7cedqrb9gTshM0vO8Q4koSSVNTmn77TAMrzUtjsgbYkTEP+LPMLOyslQYhguHh4f54ri0CgQ6iyX+3v5YFBwiuK6vO89FNWO39p4BrnZe6zmKHS5T0XEvZ73ILBd4bBK1O/5ca31oXN3lHNL3NmDhm7hTqtXv8aampoOfe+456yIA5ROJulVqzWLyaejM5XLbJy1Io5TiD9h8GvY0ko4klzU9z7uPiF6T0nwe01rv7rpuHhEz+zKLM1/P8w4jop+lNM+JajgP8a8B4O+I+Hci4owc/N8bEHHHMAx3ZIeK/5uIeMcvq1STZ2utucpyohbTcW+YsIE4BZj4DobW+lFbcEkcd6UUPzN7W4z5KCJ+b3R09Mbh4eH7o/qVi+i9tVy4KbUsNYj4et/3kzjZm5nOlXoRkTNOzY+aU4XXHyKizyTJflOuLcH58rtijM9dfqe15sqdz8XsP6u7dfYM7AwOPggUXVuBCI/o627lCraxW0dx4D4ArPp9FjdcpprjzqmoGjrt42SSSXObKqV+nrBMcezFnaaOd2utX2c7dtZOkK090yWf9Hlju9OuQjtdLCqMe4PWmivAWjfXde9GxEOsO1bowPc6fN9/oVKKUxZudkk1Df3jOmwd95QrxHL2Ec4cxZe6745RCGor13UXISLfLekEgJekxQYRD/V9nz9XYzdx3M3RxXXcEXGdxd0PvkD9da31reaWbS7ped4bynnQx8LYErYnm5ub9924cSMXukra5iuluLAcp762aRsR8Zw073eUk4Lw51ac7Gpc+fscmwlsSbKdPQOfBsQLDeb8nd5CPlGhzY5iifPtf6rqWDHDZaY47q7rnshVywwm1WgiR2mtY8UkNUKhn2mCeZ7W2qqYUpaxwtPEINawZaeQL9VyDGOsluGuayx70uwUhuGrh4eHf2WrUynFu9CH2farJq+1Zsf9rwDQkpbOyXosHfc55ZMWzlqVpN1FRFekleWobEhTObaX05S9MYlx430RcZckqWjFcTdfhTiOezm8JTLmFwD4eTszTux9tRmUU05yqItJmr5aIH6gtU58mVApxX7PiebExyQfI6Lj4qTvNBnH8zzOo//fJrKTZGKd2sQYZ8Z1WdQzsFsT4IOAsE2U8YTOoX1dC2JvPhy1fO3CJqepVhXkWOEyUxx3pRQfO8UOOYkCMeED/T9EtFl1OERsiXtMHje+3XXd/+YiE6Z2z0K5vbTWXA3RqPE9AACwPsY1Uj7DhBBxqe/7q5KYnXJaSJ9DJDg8AhEVwNgHE/+9IImNMftultHFVIdSivPbp5kSkUMAEl8mrmW/TYy767rf5roKpjwqyPF7lXfUuHJpZs3zvAIXvUnh5DVRvHtMx31Gp4Osc6hM1DPEIVa8m7wiSjDu667rXo2Ip8btX+53tNaa0zbGap7nLSUi2zn+xXGcQ4aGhjK9q6SU4sJTtieYm9VHiQVlFnfii6NQ6+Lo+NyJvtXb3cZ1KmK3jmKJN5SrboQQOm/o71pglVRlM8e9XFGQv+iyalxh8VrHca4fGhr6RbVBOD0aIvJFUb5xzTGYfMO7aiOi+4IgOMjW6Hnz5m03PDzM6efqmUHm14jIoUh8OfRPRPRXvrzDKfCI6JUAwPFQ9cwdbxUy43ney4jocVvWs1Teil0lBjE/lPlo+yFEXIuID4Vh+LcgCPi9xcWLKja+cBWG4eGIyB8giTK/mK6ljUM7rlMpVfNDznTsesqZ7rgrpfh069y4thHRJ4Mg4Evc/4mrw7LfXNd131u+QBtdMry68ti5t2M67jM6xt30eZqMO86Oe8TzsMFxnEW1vqstn6eq4p7nXVIOn4mr8nGt9V4AwJsXto0LLT5qWRn9KQDgJA9/sB0shnxLub4Jx64btzAM902SQc54oBkoeMyqh18xOjryoNFdBqKDe7vb+P5jrNbeM3AOIn6xRueL+wp5o8qu4zomO+4f46wQsayL6MSp/oIguDSm7m08zzuai7wAwDEV8h1PqZBoMo5S6msA8E4T2aQyiPhdjiPUWvMPhZqtpaXlwDAM2bakR4hRQ429zkdxQRB810S4fMmIi+RIe57Ay5N8eHuet4SIVkbAZCf9JkTsHxoa4vCT2JmTeJxyuBPvpmaaNSpOYZAZkMt/ylKZOFopFC47K+td9mrPYDlNYE85dV3c9/27tNb8mWbVxHE3x5Wy477RcZyj6uG0j8/Qdd0LEDGuj8Bq3qO15srDVk0pxWl5u206lXfaq24+2ugykS3fi+EIBeOc8nx52Pf96tU7TQaexTKLi6UvEIBJJd6VvYV83MvCwGkoR5FqpCLGu/sKrVb3DTdz3D3P41SIY+nT0myIeInv+yaXAYyGdV33ZMdxzp1ga6fW2qrSVR1OF8bn8iwRdcUpS6yU+jwAfMAISjKhv2qtuYpXpENYzr7D6a6ms/GbgEMG/lJOPfYSRNweAPjhr+fpCTN4r9b6y3Fh1PghxOkLf+w4zo+Ghob+Eld/rX4tLS0Hh2HIVXDHCmBl0Aa01lapHWep497sed49cT5by4XTOoeHh+/LYH1sVPJdAb6QGHcz4feu6x68fv36/7UZVBx3c1ppOu6IeKTv+/wZVNemlOJMRO+OOeimYn6m/eMkW+ANuCAIPmM6RlpySqnzAOBzlvr2MNkstNQ5K8TZoSaHHiSKvv+EiAes7mrli8uxWkexxH2rXjQeGZ37gtuW7fGMqfKJjrunlIp03EwVT5D7g9Y66UWsisOWb6dfpLXmwhEbbGyL+YVgMwTLlhDx+BiZHjaN47ru8eUCLXNsB7eUN82Jy6XZ63VUP3EKA4j4P83NzT+ukYZxrlLq7fD8r2jbzACWuDaJJ4rhZS1KKd5FHzsGJaJvA8ClQRBkGbK2yXhOPzY6OsohNyYX1KwZIeKuvu8bh1YppW4BgFRygFsbG7ND1I573J3EuCGAMadh1C1JjH6cTEwxP6clVMZoNSsLcchKEAQcAzwtTSnFRXKsdiDHDUXEgk08fowLqQ+V0y1OBxv20Tjdq3El+zjvuemY2HSN2dlT+jIgvMdg/P/pLeRN5Cqqau8pfRERqmb6IQhP6y8svNrAjjGRTY57wgIMtcbLtMKZ6UQnyiml+IdErAJEFuPxbuNrk2QdGR8rhYIQJmb/WWttElu/tVKqaiy1yUAxZM7RWlsVaHJd96OIeFGMsay7cOVX604TOpRt3QERL/N9/09JdMXp63neG4koVkamqPEQ8TTf940/kGao4757tR/nSik+yeJUjdtFsZr0+r+01nyK1HBNKfUlPmmKYdhGIjo4CAK+42PUYjruM/pyqu2P3XGQKe2436y1PtZocTISUkrxXS/ryrFjDs2EomtR5sXJkEZEbUEQbJZUI2qcNF93XfdCdsYtdPJpOt8VlFaBQEfPYB4hfBAQmyMA/aV5dNu9blr24lj58duLAx0IWKsq8fV9hfxJpou0yeFwXffNiPh9044Wch/QWl9uIZ+5aB3SP/LJRVvc6qSVAHie92mOGc4SDhGdHARBVCrQeeVMKFmaMq6bUy2eEDdncL0KiRHRgnrtkGcFXSnFt9qzKMazXGttHEuvlOIy4zUvo2fFYILe58qXfx8koiccx/kXEf2Tw7LKMi8DgFcSEYcBzW1ubn7rxo0b+XLwlJagAnVDp3NTSt0IANYOHhGtCoJgqekaxnTcZ/SOu+M4L42TqSQFx31DLpfbPWlhOdO1rSXnuu7HEfETcXQR0atM0la6rvsNRLTJGPJVrXXcMJ44U5nSZ/78+S8KgoAvxho3Tkjg+z5n65JWgUBncfBrABR51xEdOmX10rZr40LsKJb4+6NK5AQ+1VdoNd7cmei4c1Wz2EZVmwzvevq+z5XAGqVtpZTiy5XGlzxiGG69Q2wyhuu6v0BE6+w5JrrLMj/TWkc5b3zDPdavTgs7WNR3HOfwoaGhRLG9nuddbFFcxNLE58VtLvfGGqAOncrp//gCYtrNKs5dKcUVm49L2whDfbwjwsVl2ClN3JRSiwCg31YRp8bzff8a2351lucf8JxpIU6qzQ6ttREXcdzNVzWp405EFwRBYBtDbW6gnSR/z3AiB+OwkAnqTZJV8PPLd7U8U7Mcx9l5aGiIa0JMa1NK/RAAjrcwQgoy1YDVvnJgPydEzjAT0eh7vYW22Jd9O3oG+uD5QncVmwMju64u7GcUVpq5405EvwiCIJVKiFFYTV73PO90IvqGiWxMmV9preNUO4scLpfLLXQcp1Yy/0gdUQLNzc07RlWhU0pRlJ6kryNid1qV6JRSfOzKx6+ZtNkQR5hhqBzYhBIppW4AgDdlslDVld5BRO9Ju4iK53nfIyLj48+yef+jtY4dS1lPbi0tLYeEYcghVlbFrXiDyPf9U0xsFcfdhNLzMgkd98e01rubj5a9pFKKd0GtMxFxGKzWuuYdJ8/zzuDTH4tZpFLkyWK8qqKe551KRMbhh1wkqtHWNg0OaeroKJZ+hAD/FaHTR2jea3VhbyPnerKujpXr/hvCsGrNIAR4T28hb5QVaaLj/l+I+KM0YYzrSqNQTVp2KaV4p4d3wjJpiPgG3/etkunbGFLO7HCkTR9L2Xdqrb9eq08dHPf+8oVjS9Mri2ddDZgrDfu+f3Iqxk6jkgzX1TjsI8ZlsaTEMkmz6HnerkTE92iiYicn2v+X5ubm11QLu0k60Sz6x4i5ZTM41eBeJuEgMR33GR3jPk2hMg0TXjThOeUqw/+Ikyks6p6AUuoOm3oWRHRCEASZ+Ee278u5c+fuODIy8qRNvzg1NWz0z3TZxT2lJYQQlZaZT9ff29fdFjuLXEextGnTk4DuQ4I+bGq6rnfpghrpIqfS3eS4Z11+HRHP8H3/m9O5wOWCS//M0IbMb5y7rnsCIv4gwzncqrWu+cMmQwdvfFqpp7AqH7vulhG3n2utM682nJHtm9SWLx1vncE4xqERnud9m4iSVBY1Np+I3hoEAafDTL3FySSTsNZF6nMwVMiZnDhkZoGh/LiYUV73mI57wzihSim++7CDDZumpqYXP/fcc1aOGetPsuPe1NT0kueee67h6nMopTgpwdk2/FgWEc/0fb9i6N/cuXN3GBkZqXgnpco4T2utuQJ1wzSl1O+4wq6pQUR0YpyU1Kb6Z7pce/GeFzo47zdAUDshANFPe7vbqlZBjeLQXhx4r+M03WrrqE/WO3HHPY+IA1EDJ3mdU90ppd63fv16q8sVScac2New2E2S4ZZprbmYQ6ZNKcU/PowvMlgaM6S1rpl6MkvH3eYY3WZeSqkvlNNE2nQzlf2T1jqrHwWmNmwmxxVuEZFTPXKmoJciIl+o3BkRdyIi/n91y1iCiEt83zcKT6uj454o/37UosSoifGI1pqrJq+P0t1or8e8H2F0qrYlOu7Nzc07xTl1SeC436W1PqzRniu2J5fL7e84zi9tbatVfMg2TMb2QrWtrXHkbU8m066lE8fmRu/TWSwZFeJKmtM9DQ4T09jVKz/3BkS8wvd9dqT+ncYkTHXEqZBmqpvltNYvrEc58gSZKoymE4bhq4eHhzm3eMWWpeMOANbFtEwmVc75n1lBEZs4bhN7LWQ8z/MO5OI+RMQ/vnnn06o0tsVYsURtdpLr5LjfqLWOimeMNdeys7Gf4zgGl502G+JsrTUXn5mRTSnFse5WO1H8vEalhhTH3fxxSOC4N8wJRaXZKqX+AAC28fdV49yVUpw9782mZPmeShAE15vK10MuRtKFxPVG6jGv6RyjvTh4tAPEWc1qNgK4uK+Q/2iUXJavb5Z/2nXdexHxwCwHnKDbJ6LvOo6zwvf9n9djTKUU519tzWisn2qtrb644tpRLkFeKydoXNXj/WqWjs7Scdda80U3P+kEKvTPNBuO1pqzFNUj2w7vQh3AlQ35DwDekAGrtFV+UWv9fhOl9XDc4+5omtjPMkopTn9rNN+yTr7Qzrvto6ZjNJpcnNSrRPSRIAhq5qQWx918peM67mEYHjg8PHy/+Uj1lYxbTVVrzVW0x1O4bjJaKfUsAMw3nYXrutvaVvw11R1XTinFKXZr3kWbpDuzQphx59CI/TqLJa4xERX2V+ot5Num0/7NHHfP8y4ioun4JcG3dK93HOeHQ0ND92QEJNP840T0iSAIPpmR7ZPV8qWdKR9IaY1NRN8KgqBqftsMHXcOF3hVWvOYrEcpxcWNTIpMWZuQcaqwFtd1OdMK3z04Oqsqp9aTNuxgc9RcB8f9S1prrqybWbONa0bES33f/1BmBtVHcZNS6gmb9H1EdE8QBFykrmqL6bjP6MupcX9YxnXcp/G00OjJdF33ZET8rpHwBCHHcQ6anE7Ydd29EdGmKnVDOryu657E4UA2TBp9nW3mkpVsZ3HwYgD6cKT+EBb3npnPcvO0pgmTd9xtH+rI+cUQeJyIvq6UKqYZC+953uuIiEspZ9J499P3/cxCMSYbHSOG1mbed2utq5acztBxz/TUQinVBwBV86jaAJosm1ERpm08z3tfGIZnzTRnfRKfH2qtjVI8Zu24Z/wDC1paWl4ShiE7sDatXWu9xqZDI8p6nnctX/i1sG2D1npbjjKs1mdLdNxzudwOGzZssE6iENNxf1RrbXzJ0WJtUxNtaWnZOQzDv9gqRMQu3/c3yxQSIx10n9a603bsrOWVUnzaeqvNOIi423RU5raxcbplO5avPQCdpujTJ8Sv93a1RhZtymo+U0q1T3MBlM3myZdZm5qavjY0NPSLpACyvpiqtd6qnhfLlFJ8Y76QlEuV/jXLJGfouP9Ia31CRnPiEIbMmDmO87qhoSEubZ+4zZs3b/vh4WH+1X+mTYGQxANnp+AnWmujFKYZO+7rtNZZhcqN0fM873AiskkH+3et9U7Zoa+f5jifsVFhGluo4759nOqlcRx3RHzA9/0D6veUxBvJNryFR0HET/q+v1n1VdssNVklS4hH4f975XI563s0Ue+1pDbNlv6dK0o/AYoKQcUnh0f1q25btv8z0zHvKY57nAcia8OJiGPvP6W1Xh13LM/zPsUxlXH7R/R7XGu9a0a6K6qN8yFtY1+tY7UMHfcbtNZvsbHTRlYpxVUBz7PpYyqLiEf4vs+5gZO0bZRS/IyeNUsc9nEWjeK4X6a1zmT9xydqm2EFEa/xff/UJA9NA/Xl59c24UDNTFwxHfeGuWxpGzbFa+m67nZxTptjfidEpv9thOcr5gnzCq31ZptbSik+FZ8J94KywH6s1jry8mUWA88knR09g2cjEqchrdkwxJNXn9l6XZRcFq9Pcdx5kIx3vZLMgzM1XBSnJLnned/h0vRJBq/R19gxSWt813XfgohZ3nR/udaab/NPaTPVcY9ZLMZoyZI67rlc7jWO43C2g5caDTizhIzfH1l+9iDiab7v21QctKaslPosAJxv2nG25VdWSvFpw+Gm8+fKmFrrd1WTF8fdnGRMx/3HWuvjzUeZHsmY399TUo4qpR4FgD2mZxbTO2oj1NKZXgJmoy8u/moXwmbO6R5RERqv6C20nmOmNV2pio47AGyllOILHDunO1xq2ta4rnuKzU1vpdTPACCTXLUc0hMEwdtTm52BopaWlteGYZhZNp5ax2oZOu6ZlpVWSvGb7IsGeK1FkjjuXNsAADg96mxtxncXsnTc63FUrJS6AQCM4vl5sYmoLQgCznY1K1qMcLSo+zRcrdI2deeMvpxa5x33GeG4x6zDMaUgYobfXTPh/fsBrTVnvJIWQaCzOHgtQOR9nQd6C/lpCTOr5rjzrnumlzlTeHL+hohv9X3f6MKp67r3IOLBKYxbScVXtNbW1d2S2BLjdrztcFXzqWf44bfFOe6u665AxKW2izPD5BvCcXcc52VDQ0PWl9xsWCuluIhd3rRPLpeLFc9sqr/ecq7rno+IfOpg2viCatXUfDF33Ge04x63Hshs3nGPObfNCuOV7w79w/TBnG1yHG7s+/7HZtu8sphPx4rBLiQqRumm4dHd+t65L2erq2ur6rizFUqpdwNAQxcFIaIPBkEQ+UURM0bOaDGmI53bnDlzXjw6OvpXIwNjCHHZ+SAIvlOpa4aOe9Yx7o204z6/fBH8iBjLM9O6NESoTD3yMSulOJd/xBHrpuUb1Vo3z7TFrGUvpy1FRD51MG1aa+1VE47puM/oGHet9TYA8LQpwHG5mM7tjNhxj5ENhi+n/sf3fS6KONZc190HEdfZcp0t8pzqOwiCi2fLfLKcR+fKdXtDGEanDUU6vber7VtZ2lJJd03HnTt4ntdNRFwKtpHbl7XW761loFJqLQAszGgSxgVmUhw/01zufEFSa31lnR33LWbHXSn1UwDYEpx2foQaYse9HkWylFJcPEwZvs9rZm8y1NFQYq7rcvVePnUwapOdq8mdYjrusuNuRH9MaEY47kqpYwDgJvNpPS85McmC7bNpO1ajyxPRI+l8HgAAIABJREFUBUEQcIIGaQYEOosl/pG3T01RguW93XkuhlXXFum4szWe572di/LU1TLLwQyKBmVZNbVHa82p++raMtz55t2KKTlwxyeX4bhbxI6753nfJaKT6/qwTO9gDbHjnmFV3k10lVK8U7q1Ce6ZkorPZC4TZGwrFP9Na/2SamPEdNxlx9180WaE4x43dHei457L5RY6jsMbeFtkQ8Ru3/cjwz+2SDgVJr24Z6BIiF0RPNb1FvKZphiuNL6R484dW1paDgnDkEMnMqk8mdLD8lmt9Qcr6fI875dEtH9K42ymBhGv832/ro7YvHnzthseHrYu0mE6f87AEwRBpWp1zUqpYVM9lnJZ53HP7BKo6eXUmMfZlhgbTvwOrbXR6YLnedcQ0SlZzEBrPQcAhrLQPeFH7ZOm1UNno+M+f/78FwVB8JQF45qVKWM67g1zCU8pxZ/R21nw4F1iCZWZBMzzvDcS0W02HAEg1Fo3jffJ5XKvdhznAUsds0l8kdbaqmjTbJq87VwaOc7d2HEvT5rjcjkrR9SvEFtGqck7jnNIpYJNMdKU2di0Wmt9tE2HpLJKqd0BoGK6xqS6y/2P0VrfUkmX7LhPpWLiuCulXgkAj6S0PrZqNgLArwDg30T0NCI+TUT/QcRn+S8Mw2ccx9maDC7k2A4MAFvSjvsfAWA3Q0azMVSmFRFtsuQMaq2rXuaN6bjP9B13vqy7wfAZ2iQWc1NgRuy4K6X4+9U2B/nT5R9BY4y29B13AHiF1prTYUozIHD0itLuIUX7WBTCkr4z898wUJmaiK3jPjZw+U3ECeobMR8ql3DmowuONZ34ocZv+qyc67u01pmkmqy20rlcbl/HcdgRy6Qh4uG+73MKzSktQ8d9Vse4u67LhcQOzGTBKigloqsdx7ktDMMHgyCIvGjjuu4CRBzMwL5GiXHnS6ObfS6kPddyGt29DfXOusupSqlFANBvOH8Oybvf9/2q74mYjvtMj3GPVYV7NjvuruuejIiVToBrPWqb/TBWSu0JAL81fTZZjoi+6ThOXZ0yG/tsZFMoEGgz3KyQNYlzR4BvrC7kl9RzwrEc93EDy7HvXFKYd38bphHRh4Mg+MxEgzKOKy5prdvqCSBGaXUr84goHwRBRSdOHPepKKN23JVS7QDQZ7UI8YQf41z1WmsuNGSVmcJ1XdvdUlMLtyTHnY/iX20KZralg/Q87wwiWmU6fwCoGUa1hTrusuM+6QFSSr0HAL5s8Vyx6G+11nuN92lpadk5DEPbdLCZV1u2nJOI15GAWZw7PtpbaH1FHc2CRI77BAd+CRFdCAAvr6fxNcZ6Smv9sonxrEopPiHIKtf6UDl+tm7Tty2tbmuY1noeAHB4xZQmjru94+667t2IeIjtOljIDxHRp4IguMSiz2ai4rjHJff//ZRSXBTttaaaZlsBJtd1P4SIm22aRLC4Umt9VjWZOI57I2XPUEpx3vDtTZ8HlivntZdQmQnQPM/7dNnHsEE5ecNgG6XUv20UAMByrXXds4ZY2ijiGRHoXF56Gzjw7Sj19c7nnorjPsGB56JNZwAAX9Rkx2862zlaa3bWx1rW1SkRcVff9x+v14SVUrz7wLsQWbSasbfiuE9FXmvHvQ6Xoh5xHOfIoaGhRHn9xXFP/layLahFRG8OguAHyUduDA22lWMB4L1a66o7qTEd9yknrtNFJ6bjHusS9SwPlVmFiOxb2LQVWuvCxA62313TkXjCZoIimy2BxavW7UijISccqNnqHeeequM+YWYtnue9mYhOB4AjoyadxeuTMza4rns8Iv4wi7HKOqte5sxizIwv20YdX1MWcwKAWRnj7nneJVwoLCNmjzY3Nx+6cePGvyfVL457UoJjRV7eiojXWmgqaq27LeQbWjRGFpXFWuveapNSSl0PAG+xmXQjVYgUx91m5arLxrkfxDv0k08glVJPAEDV9KOTLUDEX/q+/5p0ZiFaZiKBRoxzz8px37Q+c+fO3XFkZOStAHAaAOxbz4WbeORYhxvl52utP1+v+Xme979EtKkqXMrj1nQmbHctLGyblY67Uopv8md1kXsPrTVnMkncMnyPbDEx7jHiaGdNZplcLref4zgPWj6Ie2qtf1+tj+u6VyPiqZY6v6K1zios0sqUmI57rEvUMXfcb9Fac3Gjhm5KKU7jWrXCbiXjK6U0jhGyuFlmmoaGJMZlQqCzWPoKALy7lnIEWLe6jvncM3fcJ062paXltUR0NhGdlAnhqUo7tdbjFwLnKqWs4wYt7OzVWi+2kI8tmmH2jzGbogo1ZOi4z7oCTJ7n7UZEqTjWkx8YIloZBEFqqVkzdNy3mHSQvEZKKc72ZLxJgYiH+b5/V+wPhAbpqJRiZ3lTeKKBWeu11i/gfNvVZJVSXLXb6kSCsykFQcAbRdPePM/j9Kucl924TSwaZNzp+efuAwBgu3lk/KPaxpY0ZeNkg+HxiWjB5Gxanud9m4jeZmNfLpfbYcOGDZnVTLGxRWTrT6CzWDoeACKiNWi0t9DWXC/r6uq4j09q3rx524+MjLyHiD6S5UQnH5l6nncfEWV27KW15h3w/2Q5J9bted4niOjjGY5TcxcsQ8d91u24u677ZkT8fkZrlWpe3paWlgPDMLw3A1uNnYM4X6ym9tajcmrZcf8CAHCxL6PWSKEdRgZXEfI873uWmzIPaq1rFsVTSkXudlUwx/h5SzJfk75xPivr7LjXPSOaCbeJMkqpdwDAlZb9NpYTLGzWzXXdjyLiRTa6iOjEIAiy+gy3MUVkp4FAx5Vrd8VcE2drq9mamkb3vHnJvlVPD6P627w+LY77uIHlS3ucX31HG6NNZYnoG0EQbMqvqZS6DADONe1vK4eIZ/q+32Pbz1ZeKcUFTrIqs/svrXXNLAhxvowM5zjrHHfP8y4ioo8azt9G7J9a6x1sOkTJZpiy0tiRmg2Ou+u6J/KltijeE17/ldb6YAAILPo0lGhLS8tBYRj+wtKoz2utz6/VRyn1WQCoKVOh/++11pyze1rbnDlzdhodHf2brRF1dtz51IPzxjdsi3HhmefyM6314ZMnFbOQ09e01u9qWEBiWOYEOosljtaYW3sg57jewoKbMjeGoyLqMUjEBzN/wHLuY85dm3bbLHxFKcWxfFmCvVNr/fq0JzFRX9bVNxHxe77v852Eqi1Dx33WhcrEuVxn8vwQ0X1BEBxkImsq43lel1RONaVVXS5GnDsrO09rzRsLM7K5rvstRHy7jfFhGL5meHj4lxGfNbbhN2Pq4jq/NvZHyba0tBwchuE9UXKTX49re8xQGWbFoTxWNR9s55RA3lNK/StGlrqK+dfnzZu33fDwsG3Yy5+11rskmIN0neEEOntK9wPCAbWmgYjnr+5qtQ1Vi0Vm2h13tjpGbKTpZNdqrfebIDyv/CFgdcnFdDCWcxzndUNDQ3fb9LGRtU03Z6ObZfnL1/f9mnlLxXGfSrVaOkil1GoA6LRdhyh5zlzi+/4pUXI2ryulLgeA99v0MZTdomLcmYnned/hy3GGfFjsCcdxDh4aGuKsFzOqeZ73BiL6iaXRq7XWkZWsXdd9EyLeYKmb45v3DoLgN7b90pRXSvF7id9TVq3ejjsRnRAEwY+sjKyTcIJscMdprStu0iml/gwAL7WZguM4rx0aGrL+EWYzhsg2LoHFxdIqAqidjpRgVW93fmk9ZtEQjvucOXNePDo6migHdRVYT2itN3uDxvhCtV0HYyfFVrFSigtcZRlDxcemHH7BN/irNnHcp6Kp4bj/FACOsF1rA/kfaa1PMJAzFlFKsaOzqdKgccdoQeP3xGwIlWEcSqljAeDGaDSbSczIKo1xQhkQcYnv+5Gl5HO53Gscx7nPkiM77qcEQWCTltN2iEh5pdQaADgqUnCSQL0d96zT8NrOf6K8UoprHNh+zm3QWm8HAH6lsZVSXwcA26JKNQuFJZmj9G18Ah09A+ch4uciLP1FbyGfZZHFTcM3hONe/qJbH+M4LGrFH9Na7z7pgyDOF2rUOJu9johv9H2fHbZUW5ZODRtqmqUkQ8d91sW4x0g/ZvTMENG9QRBwXHQqLeauqenYNjHu17DTZarYRq5el1PHbXJd9x5EtFmjIAzDg4eHhzkrzYxoMXfE/6S1XlCtMvPEiZfTCUcWQKkAa7orXr5AKRUrUcE0OO4cLlOXxAo2D3WCjFzXa62rZq6Le5fHdd3t1q9f/5TNHER2dhDo6CktRoRbImbzn95CPqsU3Zv7mBUM4RyyNXdcs1gKpRRXHX1Zyror3pgvh8tsm/JYE9U9rrXmdHCxPrgr2RXzC9Jqioh4qO/7XLK9ZsvQcZ+NMe53AEAm9x601rEqLFZaXKXUrwFg76i1j/n6FrfjzpyUUlzZuGpV0Eosy3cXXgcAIzFZ161b2bHiz4sXWw4aeSl1or6Yn9f8GbyrpV2pibuuewEiXhpH4XQ47nwBuJ51SEy4xK0OTkQnB0FQ83J4+UcVpyI1boj4Gd/3P2zcQQRnDQHTzDI5wh1v7G79R9YTn7LjrpTqAICvE9H5UQ9/isbxBZQsfiz0aa2nxBdnmOljIpLUCluUC5vwFyT/qMqkIeL9vu8faKJcHPeplGqEyvCv9Ezy+xPRm4Mg4KPkRE0p9UUAOCeRktqdt0jHff78+dsGQTAYI2tWap8dGa4p/zDh3PP8I8OmDYVh+Nrh4eG1pp2UUlyLo91Uflwu6/tGNexpKW9EcbiGdQvDcOHw8PCAbce4l1PL4zyjtd4tzc0mW/snyse84M0quGAS/5CMCvf8KgCcZWnjUHNz8+5pVKm2HFfEG4CASWYZotEj+rr35c26TFslx513CS4oj/oIIl7i+z5fDtqYlSWu657E2Uwy0H+F1nqKQzJ37twdRkZGEpeIN7DXamepkr5yGfp+ANjJYLwkIhOLVdXUI477VDzVHPeYlR9N1zFxDuYMM8lMnMMW6bgzAKWUVU73cWimYWumD0racnF3Q+PkrPc87zNE9CHbORDRN4MgqH2hzFapgXzSOhthGB4wPDzMmdasWkLHncf6nNZ6/Lvfauy0hRMkYTC6J5KgiGGP1vrMtOcr+hqfgGFmmXeu7mrlOxSZtimOu+u69yJipZ3Xm4jo2gwu/LxQKfWQ7S1vQyrLtNZceW9Kc113JV+QMtQTW4xjkRHxbXHK0iuluIgLf/Fn2mx228vOCGVk0KwLlXFd92OI+MmMeHEWoE/5vv+xOPpd1/0g/zCP09eyz+1a6zeY9MnyHke9Y9x5vuVqtLcDgNWxPPdthAuWldYswX2IQa31awGA7zMZN6XUcQDwY+MOEwRzudz2GzZs4HSCdWlppOt1HOegoaEh6wu5KTjuEHe3P024SdYbEXf3fT+yWE75e+xnAHBYDNuP1Vpz/RlpWxABo8wygFf0FlqzPL0eIz7Zced0iVEfqs8AAJcN5pSHvw6CgIsBxWpKqT3KpWSzKia0RzWHuRyf+TBnbotlvF0nPrb7GiJ+xfd9juWv2VzX/S8+9bC82BalturriHi47/v8IWbUZMd9KqYaO+4nIGLicJZaC8MFnoIguNho8Z7fBX4FAPBRsXXGC9MxJslVLIZSSddsc9zLDgJ/kHM4knXjSqRBEFxv3TGjDknu2iDi6b7vfyuGaXOVUlwAJU4z2oGNo7hCH8/zvLuIqGY12KixymlBrSsYp+G4A8CfXdd99XRdwixnTnsQAOIUhbLKtMXfs4gYJw3mRiI6KAiCdVFrKa/PHgKGmWXW9Bby1mF9tpQ2c9zL8e29lko4hIYzqNzGabuI6O/VnFMOUQnDcNfR0dHXIyLvovDuS1btD1prTp9YtdVxx3GiDbxzdBsAcBjSH3h3wHXdVwHAKwGgDRFPA4DNMuFkBYj1xjlOFsd96opUc9zjVk+MseZ3Oo5zYa0aAkqpRQDQDQBviaE/SZe7tdZGsdCz0XFncEqpHwLA8XEgEtEHgyDgCqLT2hKeAP5Qa/2muBNIUA9hyHGcPeuRHz+tYmumSQIms0zx+yzzQoJVnoNtlFJ80sAbC9aNiBYEQcCX7I2b67q/QETrQnaI+O/R0dGjZlIGKGMoIliRgGFmmT/3FvKZF+ua7LjHKS9dbZl5Z/5JIvo3Iu5YT2eUDeLwBN/3PxH1DCqleNedHectsT3ruu4etrsrGTrusy4dZNlp+yMA8MWvzBt/oYRh+FtEDMYHIyK3Xqc3lSZIRPcEQWD0I93zvFmTDnIiiyQhM6yHiK7O5XLnbdy4MfOMBZXWUCn1FQB4d9wHOGkBG6XUOwDgypjjG9+xiKkfEsRkTxkSEV/v+/6dtra4rvshznxi26+KPKdw5c21zO62TRp3a8/z1hDRa+LYT0SrgiCwLn7T0tJySBiGcQsmrkfEE3zfty0+FmeK0meaCZhmlpm3VWvz9SfhaJbmbua414hvz9KGTHQj4i6+73OFtJqt/IX6izqFzESZU9fXubJjEATftR00Q8d91sW4lx13Ltxwni3n2SJfTnFotKs1W3fcy89B7JCZ8rNQQsQrfN9fWa9nw/M8vtx5FhHVLPcdYc/7tdaxQoUm6N1aKcUJBWKFNnJqRt/3rS+4GnDeqlwk6I0GskYi1U7vojq7rnshIn46Ss709fL7lrOypZbWuNLYLS0tLw3DkBMwxN1A8x3HefnQ0FCsIo4pbBa8Q2t9lSlXkZu5BDqLpWEAaK41AyeAF95yVj7T98xEx32+UurZmYv0/y3n3akgCDjkxKh5nnc6EUVW8TNSNkOEytmCLoxjboaO+6zccS9nBop9FyTOGjVYn4fKdQ0izUrhS7TqGNNxOXWyMUlCZibo4jjqr8X50R25AGUB13VPREROl3e4aZ8qckWtNYdnJW6u636D4+QTKPqC1vrcBP0361oOLWWHLdX6I4h4ZJxd3KTZbKpweSwMwxOHh4c57jz11tLSclAYhhw+un0C5e/UWifJ5MHFsvjkPUnmtpuam5u7p+tEbJwdXxxvbm5et2HDhn8m4CldqxDoLJb+FwBqFllqGnV2uXnZgshN4ySQNznuMePbk4ydVd9Yv75jlkHOag5Z6020s52h457IrihoSqmkO55Vh4jaJVNK8SUovnS8Jbbfaq33Mpn4bN5x5/m7rrs3InJxmH1MeETIcH7zr2mtVwNA4qPZlpaWlxDRUUR0Ykq1B4zvNpiwyOVyr+F7VCay1WSIiGOaT42T5WtcJ1+gRMSLudCPgS1/AYBfAoBNfP9RWmu+B2XVPM/7NBHZbMZ8yaJ+w7la6zQznG3jed55cdJ8ToJidSG1GtDy/R/e9U/SNiLil33fvwwA/p1EkU1fvkc1MjJyejlL3p5xT9JtxtxSZRcXS3+kiLDXUaDWNYW2TC8uT3TcJ+Zvn8nrEvsDRil1KwAcOZMnb2D7HVprLggUu+CVOO5TKUc57uWQLOOiMwbrOJNE/qK1NtqVnO2OewbOO6v8OyJy0Y81vu/zD0TjY1rXdfkHFWc+4ovLSXfXNz2TiPgf3/f5btOmuxZpPLApXQD1AeCK5ubmL9rskHqedygRcTVc/mFj1Hj3nCsnc+Ynow7PCxnX1JioUyn1eQD4gOE467XWHObDO+n7GfbhXemvaq2vtk3pOa6/HFN+CgDwifh8w3Grif1Za73Q5nmvNV6aJxZcl4aIrtFa35RwjhW7K6WOLv+45kv/+UlCV2mt+U6ItJQJdBYH1wIQP3NVGyEc0teV5/DrzNomx32WxLcn3eHhDzK+qLIgM+LTq/hWrTXv+sZ22tl8cdynLmKU4849PM/7ruEu3fQ+JSmPTkT/GwTBtiZqtwTHnTmkvPM+GS078RsQcQMRcRrF8f/eulzFlR1qDgvgf+eZrIutDBHly1VjbbvWlC+nEH40RaV3IiLn2f8DADzB94A5t0EYhi9ExO2IaLvyxW7O9z3Xctyva63fqZR6PwBcbtqXiI4PgsA6b71S6goAONtwnLEf05zRDBHZIbdpzwEAn/LcxRc7o8Joyj94+KIrZ7Pa1WagGrJ+GIaH2FTgNRk3g8+f9UT0A0RcS0RPNDU18TP2t6GhIT6JiWxcNb2pqYn9kVeGYfgSROSqsIdEPIvGJ5yRBojAZgQ6VwzeAUSvr4kFsb23q3VNlujGHXeT/O1Z2pGG7j81NzcfnLQccbnUMn+Q10wlmYbBddbxY611rHR0k+0Ux33qyhk67rsS0WBWzlKdnyer4bTWU4q9VVKQwRfnpmEaIcZ94pwzdt6t1idtYa01/0jI5M6U67of4cJjaducpj5EfMD3fXb2h2zvUCHi233f/7atPUopzrpjutPKxbDGdmpTyv/+FIeHENFTiMgX+LhxLvZ9bedhIk9EpwZBcI2JrK2MUopDZvgEKuvGcehPAsDTEwZyAGD8B+OL4hrQ3Ny8U1JfKO7Ys7lfZ3HgRgA8tuYciU7s7W77fpYcxr5MlVJ8c5x/Qc/Uxm+AQ7TWvGuSRuPLKrzjEaeqWhrjp6oj7YwKGTrus/Jy6sTF9Dzv7UQUpwhNqs9ENWXsEBHRCWmfOmmt55ic9Mz2y6mTuc9i5/16rfVJWT20ruveM50pTiPm9SeOxx+v2Bqj0M9ZWmvr1Jeu636zXAfEBPtdWutN329KKb53YRwCZDJAVjJE9JEgCFLLnlPJTqXUDZb3ErKabiy9jVp1OdZkGqjT4mLpagI4tZZJ6MDS1Uvzq7I0e9xxTzN/e5b2VtLNR09HaK3TPD4dG0cp1QMAhXpPKMXxuMLb6UEQ8IdQak0c96koTXbcx3sppRry/YaIF/m+//E0c1KPz9lxnJeZHA9vaY478yk77+yIpHIiltobPbmidq11JkfGnuftQkT/197ZwMpRVXH8nNnOnHltX5D6EUExIkEjSptQgRANUQlIGxQRjBhiILb1W4EE+RQFg6BBDBQwCj6IiZ8xQQShjR+JWKNANEBrAkIQAjFKJEFo7c6dfW+OOWVefX19b/fOzszu253/TV4g2Xvuued3t7tnz5x7zp+JyCsFq7wp3itY/5KjnXNPzErEcWw57pa+5DVU9aI0Ta2EbKEhIhblO91T6O68Tvvs9OUiYnm58/OlPZcb2LRznXObB6FtxL//b3HOfXIQnJqk4+Sp7Tex0me72cyk5927cY2lrdU29jjucRxbx9O+Gh/UtjO/hR8KguADdXbFi6LoDGb+HhHZo9+RGdb0xkqn1fSDxvJA6xhjH3GfhVa2oU3V8K0aRZqm19i6InIuEVnFicpGlmVrfboMNtFxn/OesKpHXyGiV1QGfrgLeV9K7mebYRgeHQSBNSrqq7Z7Pzp7yPwzy7J1nU7nkbnzwjBcEwTBw7767KlXkiRf9p0/5/1jXc9P9pFbqGRy/mPoD0T0ep81BjwnUdUNaZr+aJB64zjepKq3DFJnRboed85ZN3aMCgmsn9p+jSpd3G1JJrr83o2rr6pQ7X5LmeM+qvnt1zrnLqwTzuzaK1aseO309LQ1PbGUolEYFzjnvC9DFTUIEff9iRWJuM9Kx3F8dQXl0Ioe3/z5O4noI845+9LfM6wWsKpW3Q3wJOecVW3qOprsuBuYvPqQOe9jEX1X1SvSNL2y17n3+7qIWIWse/qVr1Du4WXLlq1bKK84d4ifLqDrBuec/YgrNETkvgLpnTc65/a7yDo5Ofkqq4TCzF4N0wptsM/Jqno/M59VpoRnn6r3iEVR9HZm/hkReZW0LaOrStlWq3Xw7t27LYceoyIC66Z2XEqqXdO0VPXarZvW1OqbzqbKnJKXkep+W7Yi40su8+ssyy7sdDreEYyS+vaK5yWYrORWvx3eqtrKgusws0UjLvHpGFtmI3Dc96fXj+Nuq4iINbm5ucx5lJC1yOAZ85/K2Jd3mqb/LrHufqLMvMGn42fTHfdZcHnPgbGIvjPzm5IkearK99PcteI4freqWtm9WirkeOz7m845K/doZSYXGtb1de4FxF5LTjnnCqdoioiVm+1aqm5Wca+ofh3pcr2MXuB143m5c87qog99RFF0ETPbv8mJoW/GYwPIc/eAVHDKuqkdnyfV7qlaqt/ZsmnNpwsuXWj6PpUeoihazcym0JLvh/UhuJgBv81zcO3R6FCHiFjumOU5HTnUjfxf+dYsyy6tujTWYrbV6LiPbQOmbu+TvPnHt4nosAG+n653zp3f5YwtUmPlAqsaXl0rm1RVphfYPPq+gYjOWYKfx722P/f1rc65Wp9W5mUi7U7Se4psrOTcp+wyaJIkll7SdRT5zLQGXUmS+DR32keniFi3xkN67SV/vWeuuIhYDXoLKrzZc80qp9mdgA3DirIvZog1KZuZmbnGKv9UaWyVa1mabBAEtydJYoE8K92JURGB9VPbz1Gl7hdPmX64ZcPqrhdYy25nsRJtE3Ecf1hV7QtjkB+E8+1JmNlqoG5ut9ulOuaVBbWQfBiGa4Mg+DgRWUOJQeelPs3M1gjD/oHWFs1ayO4iX0IFuTfScZ9lFMfxBlW9jHp0ZivIdP70W5n56iRJuj66FxG7VHhiSV1zxX/lnHtfr/XguO9PKO/UeXb+ebwU8497HStZN9Y0TWstkWabyEsvWoS2tkur1peAiDanaWrpiP/tafzL+7JSiQf6zCWiLXmTPM/pL08TESu/6dXUyO4/JUniVd1KRL5IRPbovzamcwz9W37f5o5Cxg94cp7+ZEzsielSGI+p6u1BEPyk7ifuS8HYYe1h/dRfT1fNenyO6d1bNq6xvgW1jZ61lScnJ1/pnHuvpQIQ0XG+j+JK7Pg5Ivq9qv4iTVPrAuj1wVhCXyWiInKKtdKus8GOteu2sp2qes+gousLwRER7woJReAy831W1aSITJG5+UXjzxWR8Z2bZdl5VaVvRVF0Vt6++gRf/d3mMfODdhnNOWcRGK9W3CJi+a9F2rR33Soz/ytJkjN72RNF0WXMXOUPhr0qnXOVdQbtZUcdr+fjkFn/AAAG+0lEQVQpTBZMObvqcp2L7PdJVb0tDMPbpqenb8wb6PRr2ovOuVVElPW7QAE5K+d7Sf7k2BrWVDX+TkQ3OefssmKh7yURMdlDPTeyT6lGT5mijfFOdc7d5bu2pYeIyCdyB75Kpnu2YN9tQRDcmiRJrWX0CtjrO/VAETmTmc8ZcIEP85OsJ8gjzHynz1MfX4Mwb3EC66Z2nESq9tnSdWzZuLrWgHdPx32h3VkEiIgOV9Ujmfnw/BH/a4jIGgb4PF63N505EM+rqkWLHyOiJ5h5u3Pu8V5QlvrrExMTx2VZdoyqHsXM1vXMeFkziiLDyonZr+gHgiD4U5IkD1oHxCILYO7IE1gVx/Fpqmol3nxSDayfgXVBfNTeO8z8cJIk2+c1+Bh5KDCAlkVR9EFmfoeVHsz/vCKtHuy2q+qP88jd3qcyExMTh2RZZqkYZcZ1zrkLyixQVDa/aP3R/EdH4aeis8ESIrorTVP7t9T4Ecfx8apq9+LsYvDb+gRi3bu3EdFvmPmn4xAlFhFLKTpRVdcy89oKS2u+pKqP5gGYbWEYbkNzpT7fdWMi1pfj7mH7yjiOV83MzKxqtVqTWZa92Gq1Xmi32+asF4pUeOgalSmrwjA81Hh02bBFo54ddOrLqABs+j4tv3J6evqgVqu19/7JzMzMS61W6/lx+OJr+vmWsT8Mw2ODILBgwbEWKGBmi25baob917ox7jNU1T6LLThg/S/sz/7/oTRN7YffgqOKDptZlh3d6XSs/vrAx/Llyw9W1UNmZmbewMyWCz77ZykguywFhpmNy7NBENzfbrf/OPBNjpjClStXvrrT6RzDzMeqqv2IXOzippsNKARB8Ei73banx2M/RMRKMr7RgpvMbMHNRUeWZRkz/8f+VPWFLMuei+P4yZ07d1pqFgYI7CVQl+MOxCAAAiAAAkuDwAGzgRQiWtbpdMxJ90qZmr/9OI4t7coctL6GXZxL0/SdfQlDCARAAARAgOC4400AAiAAAiDgRSCO43epqqU4lBmfcs59t8wCkAUBEACBphKA497Uk4fdIAACINAHgQq6/mZhGB60a9cuu5OBAQIgAAIgUIAAHPcCsDAVBEAABECAVomIXYDumrPbg9OtzjmrUoIBAiAAAiBQgAAc9wKwMBUEQAAEQGBPXXIrfWt9JMqMdc65rWUWgCwIgAAINI0AHPemnTjsBQEQAIEKCIiI1QF/f4mldjjnVpeQhygIgAAINI4AHPfGHTkMBgEQAIHyBMIwPCoIgr+UWUlVv5Sm6dfKrAFZEAABEGgSATjuTTpt2AoCIAACFRLIO91eVWZJVT0iTVPLmccAARAAARDoQQCOO94iIAACIAAC/RJYISLWqKhMysvPnXMf6ncDkAMBEACBJhGA496k04atIAACIFAxgSiKTmPmO8osy8wfS5LkB2XWgCwIgAAINIEAHPcmnDJsBAEQAIEaCYjILUS0qYSKZ5xzbyWi3SXWgCgIgAAIjD0BOO5jf8QwEARAAATqJRBF0RHMbCkzB5TQdL1z7vwS8hAFARAAgbEnAMd97I8YBoIACIBA/QRExJzub5XRxMzHJ0myrcwakAUBEACBcSYAx32cTxe2gQAIgMDgCLRE5F4iOqkflar6fSK6Lk3THf3IQwYEQAAEmkAAjnsTThk2ggAIgMAACIjIeiK6p6CqZ8xhd85tLiiH6SAAAiDQOAJw3Bt35DAYBEAABOojICI3ENEXPDXcmWXZ1zudzgOe8zENBEAABBpNAI57o48fxoMACIBAtQRE5LA86v6WLiu/pKqWFvPVarVjNRAAARAYbwJw3Mf7fGEdCIAACAycgIh8hohuXkTx77IsuxhR9oEfCxSCAAiMAQE47mNwiDABBEAABJYaARG5k4hOnbsvVb0iTdMrl9pesR8QAAEQGBUCcNxH5aSwTxAAARAYIQJxHJ+gqr8kolhVH1DVcxFlH6EDxFZBAASWJAE47kvyWLApEAABEBh9AiLyDVVtp2l6xehbAwtAAARAYPgE4LgP/wywAxAAARAYSwITExOva7fb/xhL42AUCIAACAyBABz3IUCHShAAARAAARAAARAAARAoSgCOe1FimA8CIAACIAACIAACIAACQyAAx30I0KESBEAABEAABEAABEAABIoSgONelBjmgwAIgAAIgAAIgAAIgMAQCMBxHwJ0qAQBEAABEAABEAABEACBogTguBclhvkgAAIgAAIgAAIgAAIgMAQCcNyHAB0qQQAEQAAEQAAEQAAEQKAoATjuRYlhPgiAAAiAAAiAAAiAAAgMgQAc9yFAh0oQAAEQAAEQAAEQAAEQKEoAjntRYpgPAiAAAiAAAiAAAiAAAkMgAMd9CNChEgRAAARAAARAAARAAASKEvgfx/V3Ieu2vWoAAAAASUVORK5CYII=;fillColor=#A8DADC;strokeColor=#457B9D;fontColor=#1D3557;rounded=1;" vertex="1" parent="1">
          <mxGeometry x="620.5200000000001" y="307.75" width="103.77" height="27.67" as="geometry" />
        </mxCell>
        <mxCell id="dSbTfwvZeGPVF9yTLijO-60" value="" style="rounded=0;whiteSpace=wrap;html=1;shadow=1;sketch=0;strokeColor=#457B9D;fillColor=#A8DADC;fontColor=#1D3557;" vertex="1" parent="1">
          <mxGeometry x="97.5" y="410.26" width="65" height="18.26" as="geometry" />
        </mxCell>
        <mxCell id="dSbTfwvZeGPVF9yTLijO-61" value="" style="rounded=0;whiteSpace=wrap;html=1;shadow=1;sketch=0;strokeColor=#457B9D;fillColor=#A8DADC;fontColor=#1D3557;rotation=90;" vertex="1" parent="1">
          <mxGeometry x="184" y="311.26" width="65" height="18.26" as="geometry" />
        </mxCell>
        <mxCell id="dSbTfwvZeGPVF9yTLijO-62" value="" style="shape=corner;whiteSpace=wrap;html=1;dx=40;dy=40;fillColor=#A8DADC;strokeColor=#457B9D;fontColor=#1D3557;rounded=1;labelBorderColor=#000000;direction=south;flipV=0;" vertex="1" parent="1">
          <mxGeometry x="1111" y="282" width="90" height="115.01" as="geometry" />
        </mxCell>
        <mxCell id="dSbTfwvZeGPVF9yTLijO-63" value="" style="rounded=0;whiteSpace=wrap;html=1;shadow=1;sketch=0;strokeColor=#457B9D;fillColor=#A8DADC;fontColor=#1D3557;rotation=90;" vertex="1" parent="1">
          <mxGeometry x="1068" y="299.01" width="65" height="18.26" as="geometry" />
        </mxCell>
        <mxCell id="dSbTfwvZeGPVF9yTLijO-66" value="" style="rounded=0;whiteSpace=wrap;html=1;shadow=1;sketch=0;strokeColor=#457B9D;fillColor=#A8DADC;fontColor=#1D3557;" vertex="1" parent="1">
          <mxGeometry x="1150" y="397.01" width="65" height="18.26" as="geometry" />
        </mxCell>
        <mxCell id="dSbTfwvZeGPVF9yTLijO-67" value="" style="verticalLabelPosition=bottom;verticalAlign=top;html=1;shape=mxgraph.basic.frame;dx=10;fillColor=#A8DADC;strokeColor=#457B9D;fontColor=#1D3557;rounded=1;" vertex="1" parent="1">
          <mxGeometry x="940" y="270" width="147.4" height="112.72" as="geometry" />
        </mxCell>
        <mxCell id="dSbTfwvZeGPVF9yTLijO-69" value="" style="html=1;dashed=0;whitespace=wrap;strokeColor=#457B9D;points=[[0.005,0.63,0],[0.1,0.2,0],[0.9,0.2,0],[0.5,0,0],[0.995,0.63,0],[0.72,0.99,0],[0.5,1,0],[0.28,0.99,0]];shape=mxgraph.kubernetes.icon;prIcon=deploy;rounded=0;shadow=1;sketch=0;fontColor=#1D3557;fillColor=#A8DADC;" vertex="1" parent="1">
          <mxGeometry x="982.4499999999999" y="290" width="62.5" height="60" as="geometry" />
        </mxCell>
        <mxCell id="dSbTfwvZeGPVF9yTLijO-74" value="【镜像扫描】" style="shape=image;verticalLabelPosition=bottom;verticalAlign=top;aspect=fixed;imageAspect=0;image=data:image/png,iVBORw0KGgoAAAANSUhEUgAAAMgAAADICAYAAACtWK6eAAAX3UlEQVR4Xu2dC9R9RVnGHxVRg0RUJEkD5eKFTLyCgCmGWhYEmFaaoZIpEqkoCCUKRilaaImgYqalKYLgtUwhQNEQkYRMvCCaXMQLIGqJeKH1k9muw+F839mz98w7M/u871pnnQ/+c3nnmXnO7D3zXm4hl7UQ2ErStpK2m/neRNJtwue2M3/z/7r//rokPleG7+6/u++LJF3qsLeBwC3aUDOrlneRtKukHecIsWHGXq+RdIGkC8On+/v6jH160wMQWEWCsCtAiF0k7SRp+wG45arC7nK2pH+RdIaka3N15O32Q2AVCLKxpD0k/VqFhFg2S6dJ+pCkj0o6Z1lh//f0CEyZIL8ZiAE5tkgPnXmLX5L0EUnvl3SKee8r2uHUCPLwGVLce8Jzeq6kt4XPVRMeZ/GhTYUgfyxpP0kPLY6orQJXzBCFF32XxAi0ThCIwedBiXFpsbm3B7J8oEXla9W5VYI4MdZeUe+WdHx4ua913TWjV2sEcWL0X1onBqKc1b+Kl5xHoBWC7CXpYEk7+xRGI/CPgSh+TBwNnVQ7QX5Z0gsk7TtgbF7lpgicIOmvJH3FgemPQK0EwbaJHQNyYP/kkgYByHGkpDenaW76rdRIkN8N5PCTqXzrD4JAFN9NlmBcE0HYNY6R9Ox868JbnkHAd5Mey6EWgjxQ0t9IemQPnb1IWgR8N1kHzxoI8gdh59gs7bx7axEIYOd1kKT3RtRZiaKlCfIySYeuBNJtDPIwSS9vQ1UbLUsRZOuwa+xpM0zvJQKBt0p6SkT5SRctQRA893junbK1beuL5ny3b7txCq0J8ujgy4ATk0vdCPxA0v0kfbFuNfNqZ0mQ35F0Ut7heOsZEMA9+WMZ2m2iSSuCPCvYAzUBiit5MwTws/nkKuJiQRBMryGIS9sI4K1JQImVktwEIegAwRJcpoHA7pJOn8ZQ+o0iJ0H+WdLv91Oj2lLEqeIS7ZLwTcC3RYHhNpL0c5Jmv/mb4+x7hm/+5rNptaPtp9hvSVoZr8VcBHm1pOf0w7uqUp8Kv5D/OkOI1AreI+yqjwrfBK5rTR6/KpFVchCEm3FuyFsQDPY+LOnj4fvyAkpjf/YISb8RojsWUCG6y/+V9Our8E6SmiBPCoEDohE3rkDkQo6c+TDZtQiXqBCFxcffNQunWuh5dc1KjtUtJUE4LyeoWa0OTrw/vCOQooUjSwiCD/7Tx05yxvpYRDwtY/vFm05FEJ6jCZF5/+IjurkC/ykJv2w+Lf7acbyKj8zvVYgtKh0i6ZWV6jZarVQEeVOFvyQQFlIQgXAKwuMMRCGUam1CmFceWycnKQjyJ5JeUxEyU/eU+8Pgu1HTbv358D4yORfesQR5WDj94cy/BlkV7zjuXJ4fiHKHGoCXdKqkfSrRJZkaYwiCDzlHpDwjl5ap7xpr4XtfSS+UxK5Sg3DEf3QNiqTSYQxBarkMfE/4NeXGe1XlwOAJyM5SUn4cLj8nE81xKEHwOOMFuLQQCO3PSytRSf887uIu+6uF9cE0Hvs7/EmalyEEuWPwDyjpEUiCTJ7BsfcqJdz38OEdAEzOLKXITL+3DiQhAENJIUINQf+alyEEKR1o4RPhAo0EmDll85BvBDMQLu0gA0Tgc7u5jnerhCCdWryXlA6+8ARJJ+ecIIu2YwnCQsEnYAML5Rb0wa80kRe/kan/ztTjMZJ4ZOkrtREEvbkzeW3fAWQo94XwqHVZhrbNmowlCLZLuM6WEMjBQkwtW4ZLzjH2TzUSBJweIol0baXkDZKeWarzFP3GEOTJkggJU0JykIOABE8N5Bjro1ErQbq5uqHEpIU+HywJN4ImpS9BuAjkdKLE7S3Ht9skRJeUCgdIeoakWyVqt3aCYCuHo1cJaXoX6UuQIyS9pAC6nFbdNVG/vyQJsxjIkfq+oHaCACE/DP+VCMvYZprdRfoQhAV6XoFc498JjkSfjp2NBeV5DibcPydTOaQFgjBu7ieIE2Atze4ifQhSYvfgRha3Tm7JxwinbZzJ/+mYRnrUbYUgDIVg4f/UY0ypizS5iywjSKndgzBBrx85Q78S4v9aRFVpiSDAyh0JdyWW0uQusowgJXYPTOfH/uJzV/KqhO8vyxZSawRhPO+TRIQSS2luF1mPICV2jzMkPVbSD0fMGi/hx46oP6RqiwTZTtIHJRFlxUqw9G0q3cV6BLHePbgd57IOF9mhYq3zjyR9ThLWtDXYYsXitrdx+J6LJWGiP+YHMHaMo8qvRRDsjTgS3GJU63GV/0jS38dVuUnp/SUdN6L+sqrfknRRIMTsd+tedG8x9ichmCDBM5qQtQhifWtOoLbHjUAM61VOq1ILuxrP6qQmm2p6Mi5/iQuW+m5orbnAgBFDxiZkLYJgUgJJrIS8IUPP51M/VvHY1BGC72usQCjYz0slHW7U/08kbR92YqMuh3eziCA8XpE0hW8LeZ0kHo+GCL9E7xxScUEdHHw4+XpjCDuaqNkmmsGnBVMi3g8sBCc3nN2ql0UEsXy8+qaknSXx8hYrTOa/SbpbbMUF5dkxIQepx1ZVCFI39u6pL3bNpHhbRBDLx6sxLrMcUXIkPEY4eYIYU32/iMUGk6IHxVYaWJ4Qq8xh1TJPEMvHq+sk7SCJmEqxkuK948WS/iK244mXt9xF8Ez9s9rxnCeI5ePVCcF1NhYjoqFzoThG8JfOceo1Rqda6lrtIpyc7VLLoNfSY54gvKDuZ6T00JRekAOSDBViSJUw1huqr3U9y13k7pKqdsmdJ8hnwhFc7kkZGoVv7KMVZ/65gz3kxs6ifat1QGR4omFWK7ME4VTov400JVL5iZF9kcqMiCZ3jqzXFV9mmDmw2UlWG/tD1BcUdvJaokIu1Hl20fBoxSNWbhlqj8M7w9B4Ty0aE+aeh/Xat/qx/KokgmZUK7MEsbLJIZcEOSVihEcjdg/iAccKnoT8IrrEIcAFrIVJCK7AVk8ucQhImiUI+fksjBOJN3VOpKb4iOBPHis5oqHE6tBq+ZRWCuth8FxJf1srSB1BrLbUfx+QN33DcFey1QAQ/dFqAGgzVa4wcDojxvO+49TMV7sjCB58Fiwmnu4xkcPBN31ICMu/azQVdSQ8WYuTc5LsUTkF/58H5uxgTNsdQfDDsEgWOeTu4x9CgLeYceK7sdMKGh3GYNSnrIWVL9bTBN2uUjqCYMmJ0WBOId0yEQxjvMkoj2XxnSIVczOSSMDWKI69lEXuQR7xcUKrTjqCXGVg3n66pN0jEXjigPsSXGDZPa6N7MuL3xyBjSV91wAYgmykcltIqi4EsQpLOcRyF3stXHFjhKjmx8dU8LLrIoBp+gMyY3SUocNW1FAgCBmJLFJm/fYAs3L8vWMukvBWI8QoR9YuaRCwsM8jQOBeadRN2woEsTJOY+FeGqE+gd8uiChP0Y9WkIIsUuXqi1uccF4iaesakYAgY0w4+o4Jv+5YF15SE3CCFSNEDDwspoKXXYpACveCpZ1I4r4r5gCnT5ujy0CQD4yMKNJHiSE32q+QdHCfxmfK+MVgJGA9inOSeHWPcmOLYMXxtbGNpK4PQSyOeIdc2sUS93uSfj41QN7eTxHAqBDfjZxCQiPM7KsSCEL2n9w3mUOCwn1ZUox5ydjYWlVNTGXKEJIpdxDwKnd/CIIlZe5wL5yU8QLdV8j8xA1rjKQIeh3T3yqV5ZRpz8wDJvfluzL3Ed08BCHFGc5IOYVIGTEhdYjTFBuwjdMWSOKSHgHy0RMyNKekSHmRXD8IYmHmfu/I6CU87/LcGyMYNZ4SU8HL9kZgyIVt78ZDwRdJ+svYSrnLQxALM5NY5/z7SPps5OAxL8GpyiU9Aq82sIzmeJ5j+qoEgmBEmDtwMXcgMY9MDx2w2Imw6DfoeZYXv+y5Y1g9RxKnnVUJBCEf4C0za4Wr7PWZ+/Dm8yFgQRAsOniUq0ogCNaaWG3mFNpnp3JpEwGLRyySi76tNnggCPZRKQJArzc2Tsm413BpEwGLl/R9JBEvrSqBIGSSIrJETvEX6Jzo5m/b4piX9HtE669KIAgXeLtm1mqIqXtmlbz5CAQsLgpZg5g9VSUQxCId8DOMgtJVBe6ElLEwNbmXpC/UhhkEIfwjL0g5pZmMQjlBaLhtUlSQNjqnEHfAwmo4agwQZGhQtpiOhqY6iOnDy+ZDALs47ONyCVcNG+RqfEy7EIQkMlzz55QhARty6uNt90cAi+rcJ5Bfl/QL/VWyKwlBniKJ6HY5Bd/ye+TswNvOhgBm7kMzEPdVCovy3CepfXW5STkIMsT3e0hnbKFspS5tIcAByxsyqzzE4zSzSjc238XFusGgtypPKQzG3XoX2EcdmHkQhGkiXFN10hGE6CHsJDmlypvSnAOeSNsE4uPHLadUaag4u4PwDsK7SE55naT9c3bgbSdHYJsQ+jV5w3MNPkbSh3N3MqT9bgch6yuJbXIKnosA7tIOAuRksfDSjPUXMkOwIwgMtrCDiXW9NQPCO1qIwNslkU8yp2BNfvucHYxpuyPI5pKuHNNQz7rEufrrnmW9WHkELML9nCtpx/JDXaxBRxD+FTuYbTMr+kFJhNR3qR8Bq9QHxxqckg1Ge5YgFk4xKIo77ScHa+wVrRCwON5lLERLeYfVoGL7mSWI1XvIkCy3sePy8uMRIHGRxaFKbFDz8SOLaGGWILeVRPjOnEZpqIbZCWYF7oIbMVHGRa0er6o1MenwniUI/++9kvYwmIynSXqzQT/exTAErB6vyI0ZmyBp2IgG1ponCCYFFqFXyHuXO3vqQEhWvhp3EpwsWVjXDonZbDpB8wTZQRJpeS2kSh9ki4FX3sfLJB1qpCOnphcb9TWom3mC0IhFEAf6OdHgEmoQKCtciRCx7B4WaSSaiMa/iCCvNbSsHJI3fYXXb/ahW717MJAmgo0vIggpea3Opd8kab/s0+4d9EGAHDHsHrlPMTtdqn+8QtFFBCFOL5l+rDwAY3OH9JlsLxOPwFslPTm+2qAaTTxerUUQ/j9Rtl84aOjxlTCS5IXdpRwCexunjmji8Wo9grDdkprNSp4nCVMXlzIIWAQP7Eb2bUn3H5D/pQgyix6xOkXeLYmIiBbyrZDf/CKLzryPmyDwXEmvMsSEQyD8TJqQ9QjyJONo2zwD5/ZqbGJSDJXcWtIZBhlsZ4e0s6T/MBzjqK7WIwhRSHhZz+2PPDuAAyQdN2pEXjkGAcunBPSiP953mpH1CMIgXirpcMPRXCfpsZI+YtjnqnZlkRRnHtsnSDq5JcCXEQSrW27WLeW8cKpF7kSXPAhYPz4zCub1IXmGk6/VZQSh53dKgvmW8hZJT7XscIX6IrwTR+sWxoizsD7TIABd8mnsQxDuKLjYsZYXh7jB1v1Oub+NJGFJzeWspXBl8GDLDlP11Ycg9IXvxr6pOo1o5/mSjoko70XXR4AcgDxeWUuTuwcg9SUIZvDnSCJbrbXsJYkMRy7jECA4AqeE1tLs7hFDEMpamp/MT+IvSrrCemYn1N9RkkhiVEKa3T1iCXLXcMGzZQmUJd1R0jWF+m6529dLIgd5CWl694glCOWxmSr5TsCLnqWNWIlFlbLPEieQs/pzKcjlYLPS9x2kGyDleRchtlUpeaKkk0p13lC/pcmBTxExr5qWWIIwWAZN3uySgs/00SUVqLjvLYJltPXd1TwkR0g6smKceqk2hCA0fEoFNjX8QkGU/+k10tUotKckgi7ct5LhYiV8UCW6DFJjKEFwlySfQ6kX9m6wRMSAJO8aNPppVbK2m+uLXvWxr9YbyFCC0Kal7/qyyeAI+rBlhSb67w+QhOFhzUHBeWfk3bE5GUMQBst7wCGVjPrsoM/7K9Entxq3DrsnrtGYkNQuTbpWjyUIk8Kj1u4VzQ7n/hA3d27vkkPm+JRHy5KniUPGj6MUDlPNSAqC4L/+IUl3qmjUlweSWKQPsxw2GbrIBvt0y04T91V9wOrZ8aYgCO0RY/WExECmaI5LRXJ8587znULX9dqAGNyGl7oRTz2+y4zdfAfrn4ogKGAZkTF2wK0SZWrEmJ2370jaJHYircunJMgtJb1P0uOsBxHRH0TBMpgXeasg3RHq/bQoSWs4keo+sfVbK59yDSYfe2rlNpZ0Ws1JGWcQJJoHROFDfsaSQtDoR68QKeaxTr0Ok81lDsU2k/Rxo/RdqYAgcBofTuTOTNXoOu2QzeuR4fOoFn21M2CUYy2OVjOXUuSd+7SkTUdraN8AQewgCkaZX5J0Sfi+fqAqG0rCD5xognzzgRwuN0cg13ocjHVOhYin9bnBmtVX8dJAFHIrzn8gD5d1fHjM7P6+m6T71DeUqjXKuSajB55bGcwgzo/WyiusOgK512VvfC0U4eb0Y7018oKOwI0IWKzNpVhbKXE/SRcu1cYLOAI3RcBqfa6Ju6UCd5B0gSRe4F0cgb4IWK7Rm+lUovNTJRHKx8UR6ItAiXVa9DnPMtVw30nwcnUjUIQkRToN8/ACSa+se05cu8oQMF+v5h3OAY7ZNi6ZLo5AXwRM16xpZ2sgwK3yS/x2ue/68HKWR8A1EKSbccLEQBQXR6APAiZr16STPqMNZXw3iQDLi+a/TKyNIL6b+KqPRSDrGs7aeOxI58r7bjISwBWqnm0dZ2s44eQ8S9L+wUw8YbMr09QNIVQsWcKwidtKErlCtp8YAlnWcpZGMwCPTwUkgSx437ksR+AHkt4YjtEXuRfjUTk1v5Tk6zl5g8vnbVQJfC06otxzVEvTrfy9QAzIQYid9eSsAvkKcyOfdE0nbSz3yGfaJ5lORxScklykq2eI8cUIQHA13jWifAtFk63rZA0VQo2sVySl3Ke1iH0J8boyPEaxY3xlYLuEbd1lYN1aqyVZ20kaqQSh3UJKBshCTsOpy+khzBKBoVPkbyTQxsMmBtro9T26gQoBvX3YUSDKHhXqN0YlAkl0oYrwrUktxM7dKXWjhdsbtcZHVS488D7dE0EEovD4wHM24XZak8/MkMLCdfkTDQbFXjang9f54IrLNKrw3/Fo5Fjz4YEwO1aoIyqRyZcIkIRNIvwQgcGt5dwJxuoatNYHVbKerUz9dYR5RCAM4Xk4RraW8yTxq030F0jBo9OPrZVY0B96ERt4ShK93qMrTAmtBWO5e8jvB1n4kOuP76GpHbiTIBDd/IcYWx0pvl8xpuxkpLeYkkSt+ajCU0Ipcix3iUiMeW0gxDclXRfZT43FuYXfoUbFRujUe933LjhCGa/aPgI89nHgMSXptfZ7FZoSKj6WwQgQ14z4ZlOSpet/aYEpoeFjGY0AR84rZQXsBBm9ZlauAQwgObyYkqzJAyfIlKbZbiwXTdDtYCEXnCB2i2pqPZHaghQXUxEcym6WPtAJMpXpLTMOUtdtW6brLL0SyPCQ2ZadIFlwXqlGL5a09YRGfICk47rxOEEmNLMFh0Kquql4eDIWzP656M0fV6jgpHnXtgh8OQSEsO01T28vl3SYEyQPuKvcKh6NW04AAAJekBntfH/EmsBsVjaEr0rC6LN1OVrSoU6Q1qexTv2xVm49mAaBL7ZzgtS5wKag1eWStmh8ILs5QRqfwcrVJ5gEkWdalaOdIK1OXTt6E5Zo83bUvYmmJzlBGp25xtT+hqTNGtMZdT/lBGlw1hpVmYu3Ozem+zVOkMZmrHF1r5JE2NhW5PtOkFamajp6EkN400aGc7kTpJGZmpia35a0SQNjutAJ0sAsTVRFor8QJrZmOdMJUvP0TF+37xYK1tcX2Rc5QfpC5eVyIUBwvY1yNT6y3Z2cICMR9OpJEPg/SbdL0lK6RvCWvJcTJB2g3tI4BIhCeZtxTSStfbiko5wgSTH1xkYigB8GCVtLy+clEf3/WidI6anw/ucR+KGkDQrDcmBIle0ut4UnwrtfjMCPJN2qEDhk8PpZZjLfQQrNgne7FIGfFIiZwIka6S4u67RzgiydJy9QEAFrsxTyM5K35WfiBCk4+951LwROlvT4XiXHFTpS0hHzTThBxoHqtW0QeIWkgzN29WxJxy9q3wmSEXVvOikCLOKDEkdxJEgcxDt1LU2dIEnn0BvLjABeiZDkeSMvFXkZPzZ8CC6xpjhBMs+oN58FARKL7i1pz8jUcF+T9B5Jr5H02T6aOUH6oORlakaABKN7SdomfIg2j10X+ea7z1mSTpN0tiTuWHrL/wNaa2g+mHzi7AAAAABJRU5ErkJggg==;fillColor=#A8DADC;strokeColor=#457B9D;fontColor=#1D3557;" vertex="1" parent="1">
          <mxGeometry x="812.39" y="289.99" width="60.01" height="60.01" as="geometry" />
        </mxCell>
        <mxCell id="dSbTfwvZeGPVF9yTLijO-75" value="" style="rounded=0;whiteSpace=wrap;html=1;shadow=1;sketch=0;strokeColor=#457B9D;fillColor=#A8DADC;fontColor=#1D3557;rotation=90;" vertex="1" parent="1">
          <mxGeometry x="373.55" y="314.77" width="81.3" height="13.64" as="geometry" />
        </mxCell>
        <mxCell id="dSbTfwvZeGPVF9yTLijO-79" value="" style="rounded=0;whiteSpace=wrap;html=1;shadow=1;sketch=0;strokeColor=#457B9D;fillColor=#A8DADC;fontColor=#1D3557;rotation=90;" vertex="1" parent="1">
          <mxGeometry x="546" y="316.18" width="81.3" height="13.64" as="geometry" />
        </mxCell>
        <mxCell id="dSbTfwvZeGPVF9yTLijO-80" value="" style="rounded=0;whiteSpace=wrap;html=1;shadow=1;sketch=0;strokeColor=#457B9D;fillColor=#A8DADC;fontColor=#1D3557;rotation=90;" vertex="1" parent="1">
          <mxGeometry x="716" y="318.18" width="81.3" height="13.64" as="geometry" />
        </mxCell>
        <mxCell id="dSbTfwvZeGPVF9yTLijO-81" value="" style="rounded=0;whiteSpace=wrap;html=1;shadow=1;sketch=0;strokeColor=#457B9D;fillColor=#A8DADC;fontColor=#1D3557;rotation=90;" vertex="1" parent="1">
          <mxGeometry x="885.15" y="318.78000000000003" width="81.3" height="13.64" as="geometry" />
        </mxCell>
        <mxCell id="dSbTfwvZeGPVF9yTLijO-83" value="【部署上线】" style="text;html=1;align=center;verticalAlign=middle;resizable=0;points=[];autosize=1;fontColor=#1D3557;" vertex="1" parent="1">
          <mxGeometry x="968.7" y="350" width="90" height="20" as="geometry" />
        </mxCell>
        <mxCell id="dSbTfwvZeGPVF9yTLijO-1" value="【CODE COMMIT】" style="shape=image;html=1;verticalAlign=top;verticalLabelPosition=bottom;imageAspect=0;aspect=fixed;image=https://cdn4.iconfinder.com/data/icons/logos-and-brands/512/144_Gitlab_logo_logos-128.png;fillColor=#A8DADC;strokeColor=#457B9D;fontColor=#1D3557;rounded=1;" vertex="1" parent="1">
          <mxGeometry x="429.52" y="645" width="80" height="80" as="geometry" />
        </mxCell>
        <mxCell id="dSbTfwvZeGPVF9yTLijO-113" style="edgeStyle=orthogonalEdgeStyle;shape=link;curved=0;rounded=1;sketch=0;orthogonalLoop=1;jettySize=auto;html=1;strokeColor=#457B9D;strokeWidth=5;fillColor=#A8DADC;fontColor=#1D3557;labelBackgroundColor=#F1FAEE;" edge="1" parent="1" source="dSbTfwvZeGPVF9yTLijO-116" target="dSbTfwvZeGPVF9yTLijO-112">
          <mxGeometry relative="1" as="geometry" />
        </mxCell>
        <mxCell id="dSbTfwvZeGPVF9yTLijO-111" value="" style="shape=image;verticalLabelPosition=bottom;verticalAlign=top;aspect=fixed;imageAspect=0;image=data:image/png,iVBORw0KGgoAAAANSUhEUgAAAMgAAADICAYAAACtWK6eAAAgAElEQVR4Xu19CZQcZbn281bPxiWALP8vyg8Cma5OIDBdPYSAwC+bYZuuzoBBwSsBQe5VUJZcWY6ICvJL4jWALF71CiRy3SJMunoCIosoO2G6OiGQdPUEcuEieGQRCJCZTNf7n+pZmJlMT1dV19rddQ7nkJnve5fn/Z75anm/9yU0LlcQ4IULI4WhTSIP6TEiQQT03YmEGbrOOxHxDIB2AjCDiEZ+hhkAjJ8Z13vM2CII9B4zbwGwBeD3mGnkZ/oWQHiTWdeoSchHm2ZqtHJl0RVH6lwo1bn/Vbvfn5q7d7E4JAoCRIBEHRwjGP+PmVULtyZgEwOaAMoDrOk6tEikSWtPr3nFmpjG6PEINAhicT0UUtIBOtOxBD4GwLEAPmZRhNfD32bwAyA8oAv8l9k9azWvDQizvgZBKkSvX060M+lHg+koHTiKgP1CHnAN4AeY8UQxgidmr8ptDrM/btveIMgUCOe7pONI4C4CHcnAIW4HwV/5/LRBFjCtjvWqD/lrS/C0NwgyEpMN3R1i05DQzcTdAM0LXqi8sIifJqaeoSa9p3ErNox3XRPkiYWH77DH1g+7QdRNQDcDES+WYdB1EFBkoAfMPW+07dDz6ZVPfhh0m92yry4Jkk8ljoKudxNRN4B93QK3RuRuZuYeCEJPLJ19tEZ8Mu1GXRFES0pngLAIwAmmEWoMHI/A/WAsFzPqr+sFlponyPqFB8xoHmxbBOZFBMytl8C66ScDa0C0fFvL1uVzVr5gfMis2atmCbK+q3OfJkFfFAHOYqC9ZiPoo2ME9BeBFUO6sHxOb9/LPprimuqaI8iL3VJHUedFDFoExm6uIeeCYAaGAKgEJBCmFwaEtwi8PCLQ8v171LUuQOObyJohyPoTDtytta3lMmZc7hua9hVvYqJvtpD+pyFd+A6DL7Yvyt+ZRFgysHVw6Zz7n3/LX0uc0V4TBMnL8UUC6DIGDnAGFi+lcA8JkW9GV/Vt2tQVjxYFWgNgFy8tcFoXAS/o4KUxJbfcadleyws1QTYl43OLAl0OxmleA+eQvp+Iivq1UVmaLF0L4CqHZPsvhnB3ROclMzM5g/ShvEJJEOPNVNtA62U6SrdTLaFEnvk6MZObQIZ8UnqWCJ2h9Ke80YMCsGRr68DSML7xCh1BjG8ZDFxOhI7wLiRaLSrZrsn2a7JkvDLdMbx+lbecGWsJWBK2byihIchLR+/bNrjLbj8i5rFbkjAuJONNlaDj/0Z71SfH258/5ZD9KVLcFEafrNjMRLe1vPPW4v0e2bzVyjy/xoaCIBsWJDojOv8IwGf8AsopvQz+XkzJfXe73SN18Dxw5Cmn9ARczp+LAi2evSrbF3A7g5+smE9JZxHDIMceQQfThH1/bWkSDtn3nr7XJo99ZeGBu3040PKmCRm1MuQNJiyOpdUVQXYo0DuIJseXAHRZkAG0Ylu53WNURj4Zf5OIQvVx04r/U4/lpaKSC+y3q0ASZFN3h1gsRpYBfEr1AQiGBAbebG0SDppq9xi1UJPjT9XnWRRaHYkUL50ZwOPAgSNIfyrRXWReRrWWhs58h5jJfXk6uhZk6d8ZWBwMSntrBQObI0SXtqezPd5qnl5boAiiJeNng+iOIAHklC1MdGqsQvALqUSSmRWndIZRDoO+HlOytwTF9sAQJC8nLiTwzUEBxmE7Nr367i6zjnnkESMZsez1ojzv40MYfN1h3eETN8VHVL+cCARBCinpCmb8wC8QXNdr4vZq7DkkJT0BxuGu2xR8BbeLinqu32b6TpB8Mr6MiC7xGwg39TPzBbFM7jYzOjYmpcsFwvVmxtodQ0SrmHmB3fmezWPcK2ZUX1/U+EoQTY5nANou5cKzAHikiJkPjZlM2FsvJ9pbwM+7lmNGeIgYezJwoEfuV6mGVFHJGudjfLl8I0hBlvI8XKKz5i9RMc5Amb80WfoVgDPMzzA3koDHh3S+KiLQn8zNCMyo10RF/aQf1lgKnFMGarLETskKuhxmfiuWye1uxU4tKZ0Gwu+tzKk0lhl9LRE+flDHxQT6TqXxQfy91T80TvjgOUE0WforgE84YXxIZPSLihq1amtBlp538ADY802InLa/8my+IEvrw3N7NRE1ArSoosasYlnNeE8JosmJLMBSNQaHby4/LSq5w6za3S9L1+jAt63Om2o8gf85quT+66UF8Y9t0+ltJ2T6J4N7RSWX9Eq/ZwTRktJqEE72yrGg6GHgDzFFPcmqPUbxiaEiclbnbT+ee0Qld6rxc21BPA6d1Opl+iuBmW+IZXKXemGFJwTRZOkXAKZNs/DCWZ90/FpU1DPt6NaSkgJCVX8tWdePivWufczQn0/GFxBRoFI57OBizCHCldG06urr8JIeuwaanacl498H0bfMjg/AuFcIeNep+3Rmui2WyV5gxy+jGAWB7rQzd3gO3ygqubFvTBuT8YsFohvsywvWTC/SUlwlSFjTR4jpcAj8rs74LgELq1oWVaRNFE6at7PePLiR7L3U+PsAbes8KL1+rMNUPiVdQbWWscB8jpjJVfFHZProukYQIytXZ76nqsXl12TCRWJa/XHpvl2O3wXQF+2awsC/xRTVOPBl69Jk6ScA/tXG5P8QFfWr4+dpsmTIMeTV1CUQnepWFrArBDHOcwwVhfvDmrJO4LuiSu5Lo6soL8e/a/fbAQHnRhX1drsrspBKnMDMf7A6nwUcH1s1sSFOXpa+QEDNFZ42UuWbIvoJbpwncYUgmpzoDfNhJ6MZZmzS+3ZNjt8AkOWKh2bS3Cstfk2WjLdZpqu4MPBETFGPmCx3o5w4UQDfV0lfOH8/daWYan1xnCC1cky2CS177q88/bfxANupW1XU+ZjZvblHqglUPil9jwhXm5VhHLqKKeqyyeOHT2oKebNywjfO+eO7jhJkpMBC6MtNGgtDID6iPZ17YiJBEucT8U+tLJxipHmP2T3PVFWMoSAfIjGKWZN6t0R04cCZZaqta3LiXYBH+7GbFBmeYUxY5GQhCMcIMlKax7hXroXqIxBA0XYl2z95aVjcRf4qKupeTiwvTZb+COCzJmT9RlTUsomOWlL6EwhHm5AT1iFvFAU60amSQo4QxCjqtm3nXQ1yhL5u1eiqoG0tu0Tve/rd7QliaRe5X1TUE51YaflU/AJiqngUlZn+JZbJ/qyczjo59/7n5nffPtGJ4nSOECSfStwa9oqHExYUY6uYUXeYapFtlI/YScAHGwBU3hmY/l3MZL/pCEG6OvYiQdgIYMZ08iI6izN7c4VyYzYmE8cKxDXf7tmo4BhL2/tAOx67qgky0vfPOL9QS9fLoqJ+qpxDeTl+C4Eqfh13+n648jcZc4eLNFkyEhY/VksBm9IXxpnV1gKuiiCl/n9bWx8LdyHpKaFdIyrqoWUJskA6jnQ8WGmBEfREVFnrWHLgRjm+UAD9rrxec29x6iU3ziiYva1t4MhqqspXRRAnU7IrLTYvf8/AipiiGt1wy15aSnoajLIkMia++u4uzZUqmVjxi8/vbC68XtwI0P5Tz+P5opJ7oJJMNw5kVdLp1+8F4Np2RTX9inyynbYJUmpeQ2RkiYazP8c0ESPGedGMamQglydIpRQQxgYxozre8aogx3/JoH+eyjCzJ+7WnXLQrm2RJqM+cKtfC9dDvYMR5iPtNvGxTRAtJf0+xJ2dpo1PJKLHKqUtVMprYtDPY0r2fKcXwjRVT9aKiho3q6+W47cdBoS7xbT6ObPYjB9niyDVp2HbMdWbOQQUoopasZjEC12diSZBL1u+X2deMCuTSzttdbl0ETO3heNtKcjSVxkwVYrIaR/8kMfgs+30TLRMkFI32daWRx08L+0HXuV1Et0pprPnmDFKk6X3yrx2HXj13V1mOPn8MWrPhu5Dd48Ut72x3b0y0aXRdNb0WY/Np3Z+YnBIfxaAL9VCzODr5BijsejAwOBRVrvvWiZIISVdH9JWy6bwZvD5MSX3czODy3+VdvfcdF6W8jSpZJLAdFx7JvuwGbtHx1STpWxFT1DGGi2qo2n1Civ2WCJIoaszwdPcVlhRHNSxlT60jbdbS0o3gfCN7XxhfEPMqK7VGdZkyUhZ/8J4vXZyvuptFzHwIl3ojPb2mc1rs3bktpBK3Moh7xFYgZgPiopqJt+pJGZjUjpXIPznZJlcHJoZW/3ci279EcjL8SsJ9P/Gyf8fUVH3tqOv/nYRui1q4Qu76R2k/5SD5+iRiPFQWnOvdT9aWHyZqOR+aHahbZKlQ4rA5B7gfxEV1dWctMIC6UusY3zrMts5X3W4iwwKxWJn++p1683E2TRBNDlxI8AXmREa1jE6qGOWkl1n1v71Cw9oaRloHZg0/tuion7frAw74ybnUzHwi5iinmdHljGnIMe/w6DtGovalRf8eXSTqGRNHX4zRZCRgzbG7jFtolzwgSlvIQOPxxT1SKs+aCnpBTBmj86zeo9rVV/p1k4+OCYgYiQulq5KvQ8r6cgnO/cgKj5d/gt9JQmh+/2WSETvrPSty/DKFEE0Ob4UIEeyUgMM5dWiol5r1T5Nlow0/xNGluoPRSXnetPR1+cfvOO7bZEtY6Q08eW/kl+FVOISZt7uFGKleeH9PZuKVUWCvLQgvu82pj4warr7Kuv6vFjv2mesBjwvS78bLQ3UBuy1j6IatYddv8Zn5BLRidF09v5qlA7neemG/6a/xlejz/e5hLeaiTv3W5XbPJ0tFQkSwsJvlrEn4OGooh5neaJRrVCW/tOoXELA4ugU58DtyDQzR5Ml4yGz1OODCAdG0+oLZuZNN6bcW7lq5QZ2vomaZdMS5GVZ+uRWcBagjwfWSScMG1cHy6q4gizdzMCF0db2Jlq5smh1vt3xWjJ+P4jmlwhS5vSjHdmaLBkFJlx9C2fHLnfm8N/aQInpdv1pCaLJ8YsAutEd4wIj9YOILswuV+SgkpXGEVaAVaN6eqWxTv5eS8ZvB9E5BHwQVdQdnZJdSEmfY8ZKp+QFXw5fLCq5m8rZOS1B8knpQSLYuvUIPjAjFhJ+JaZV25UTC6nEddF01vPaw+NufV8RFXUfJ/Gup0r8zHgollGPt0yQfJfUQYIT5fedDJ3zsnTWPz8rs3aaU3rT6yzI8YVRJef5X9x8Mv41IroVQE5UVEd7rmipxDlgtl0N0vkouSuRdcRjveraqbSU3UG0VOJbYHb1g5e7bpuRzi8Otg7OnrPyhUEzo4M0ppCMp7jUrXb6v4B2bDYKU0Tw4fMMtpW+Ykenr3OIrhLT2eusEUSWngRguTOSr45aVU64WUyr2ycbWpXjw/h8Mj6XiJ4hwm+jaXVC4qIT5tgtteqEbh9kPCUq6pS96afcQTbK8SMElI7T1vTFjJNjGTWUtWqH3zDiVSJryXdmA1ova2AUDx185Cwl9/hkfKYkSD4p/YAIlvLmzQIfoHG2mmsGyH6MdAu+VqyiKMF0/mgp6UFwjb+kGQGAGdfHMuqVpgiipRLPgXlOkBaD47aE+PZqFAtNll4a6SJV9jVlNbhtlKWvCvVyLJdovZjOHlSRIIUFnfNZ16tKW6gmKF7NDfPt1RhBUtKDxHRHVMm68g2mcJL0v7iZNtVysevx640E4YToqj6jBvLYtd0tVj4ZX0ZEY33tvFqwHusJ/e2VgVc+mbg1Qsi0K1nLDXbM4l1nX9Yn9HQ0MNqOIJocfwqgeWYBDOW4Gri9MnDXktLXGfxULJObfGjLsbDUyR/MEl4EPBtV1Llld5ANC+L7RnR6yTF0AyqIwKf78XHPaTg0Of5ZLhY3uXm8tyAnvsjgu5y2PajyJre9mLCDaMn4mSBy5X42SIBQU3Hv6D3r/idINtmxZX1X5z6txaZ/TNWmwY68qebUyx/NUd+J+CvRdG6szsAEghTk+C1somq5U+D7IYcZfbGMeogfusOqU5Pjm+rltCEBK6Lj6jJPIoiU50n1lsIa1HJ2C6Cb2k2eR6413+36U0hKv2HC5+3OD9M8Bl6KKepYcfAxgmzo7hAjNd3gcThMtfL84eWi65cTF+pg1+p8eemLGV3jD6CNESSfip9HTKYqCppREtQxtfL84SW+9ZZ2wqCvx5Rsqd3dRwSR478l0OleAu+9Ln5RVHIzvdcbbo31cncxLkr3iIp62gSCaLL0FoBdwx3K6a0n4L6oop5cyz664dt/n3LQrgORJmN91Mv1D1FRS1wo7SD9qbl76zz0cs17z/iVmLF/erDm8ZnGQU2WhgBE6gUDgZr2aU+veaVEkHyXdBwJlXvuhR0cAm6JKurXw+6HH/bnZek1Avb0Q7cfOlnH8bFe9aESQeqomYprqeF+BNFLnQVZWsfAdtmuXtrgpS4CvhZV1J+MECRxA4NN1Sr10kindRHTJdFMttartDgNW0leXo4/TKBjXBEeQKEEujGqZC8ZvsWSpXsJOCmAdjpqkt02XI4aEVJh+bp4y/lRcBi4L6aoJ5cIoslSP4Caf/1JRHI0nc2EdI36anY9pCFNAniTqKjtxAsXRgoD/cYbipq/mPDZWFp9sOYddcHBemu0Y0BYqpapdSdmo8hV13V1ISaOi2SdvhDrzf7WccF1IHC0BnEduPqRixE6gPLJ+AIi6qkHx0ffTNSDr077OLHNg9PSgymPmbtJkxOXAbwkmCY6bNU0BcIc1lRz4gqytJ5HqsnXnHNlHaLLSZPjSwByvelLEEAlYFlUURcHwZaw2aDJ0jsAdg6b3dXZy0upDjrXfoQR0Z1iOntOdaDV3+zCSfN25uZBgyB1dRlF+SiflFYQ4Ut14TkjI2ZUuS58ddDJQko6gBnPOygyFKKY8UvjFusegLpDYXGVRhLwXFRRD65STN1N1+TEqQDfXXeOg3tIk6UHAJTtj1BroOhc3H9WZl3NV25xMm6aHP8pQOc7KTMksh40CFL7VdzHRYOYL4hmcreFJECBMLMg136tgjJAP2U8pD/HtV6Hd5z3ozk2gVh5ITBCOyUxG5H6+JA8ORxEtN54SN9MhE+FIFaOmdg81PSJ/e5d87pjAmtYkFG9EYQf17CLZV1jxn8bt1hvANi9ngBoZPWaj7YmS78G4HiDHvMW+DryTYMgAwBafDXDa+WNo7emEddkyTiKXR+t2LZHZbA+CQJAEOiQ9lXZPtMrpQ4HbkxK5wqEsTKcdQhBiSB1d4s1HGj+majk/qUOg27a5YIsPc7Ap01PqL2Bb9blQ/poHBu7SPkVraXiZ4Jrv5D5dJwuPaTX22veiYA0dpFyC6QgSw8xcGztbQrmPSq95g3wh0Lj5UGreXfsjWzsItvj5kNqyRYAM+xF0NVZTwU21cSojyqAX2agA4QOMDoAtDsPR2MXmYyplpRWg+BWBcoPGdwnQNiggzeCsUEQaBYzL3M+tlVLNFJNgpmsSIQno2l1wgNivkvqIGIJJHQQ0MHEBnF2qxaGCOi0mUr2nmrl1ML8/pR0ls5Y7oQvDAwCeBZAVmDeQBTZMNiEjQfc0/faePnBzQfknkCnu48vQz9VwPjoo5v6Z7wzlyOYS4xOHYgTYDlbl4Dnsa14YvS+8HedqmZhF046+P9wc+QpAHvZkDMEcJ/R5w+g7BDxxn8aKm741Orn3p5OVpBT6Uvp7kE+MMXg78WU3HetBMs43KO3Ds4VGHOZYTRkNP6r/KGL8FMxrf6rFV21NtZC1i4zUCID68btUiT7DmHjIZm+D6xiosnStwFcY3WeF+NLB6aCfOTW+MseVdQ51YLx0slz9xxoGjqUiOeRTvNAMLr4bvdQyDp/Jdb7UX+6avWGaX4+lfg8Mf9myp0aWDe8M2BNUaA1szqyKn0PuhP+5WVprZ1d3wndlWXw0sAXbSDg3Kii3l7ZGWsjSlmqTTgMrB820va6w3jv3cxI7d+rrrUmLdyj88nOPYj0vxteMLBOIKwFI6cTrWl5Z+c1+z3yyFY3PNyYjKcEolVuyHZGJl0e+LI/BDweVdQjnXG4vBQGqL9bOgw6HRZNZ29wW1+Q5GvJ+L8VmdehubVvds8zb3plWyElrWAO7nHv4bI/ISgcx8AZMUWdcvv3KpgNPc4i8NKC+L7bdDIKFu7grGQHpRmF40JSevQBUVHnO+h6Q5TPCAT52XcUmlLpUeMfYSheTUAqqqiKz3FtqHcAgUKXdDgieIwZggPi3BIxXLzakB6G9gcEPBxV1OPcQqMh1zsE8nL8Hgp4JZ0J7Q8Kcjga6DDhylhavd67UDY0OY1APiWdRQ59qXfatvHyJjTQCVELti2kC5+J9vZl3QSnIdsdBIyPuGgefCwMrdwmtGALVxNP7hGV3KnuhLAh1U0ENFm6FsBVbupwSvaEJp4hbAP9VVFR/8MpMBpy3Edgw4JEZ0THYwC3ua+teg0T2kCPvMkyGsWXmqeH4HqVBOEz0VV9m0Jga8PE4TelYaqO8g9RUUtcKL3FMq6wNWlkwi9jafWsxuoLPgIhrK11j6iop00kSCp+HjH9PPhwf2QhA4tjihrEgzZhgtFVW/NJ6SQi3OuqEoeFG4f1Ykr2lgkE2dDdIUaKQt5hXW6LK+pM82dlsg+7ragh3zoC/XKiXYd+P0D7W5/t34zx55DGbrEMc8JYpJgZfdvaBufPWfm88QzVuAKEQBj7GjLwUkxRxwg9iSDxWxh0QYAwNmUKA7+IKep5pgY3BnmCQEGWbmbgQk+UOaiEgBVRRV00KnICQbRk/ExQOGshjb9vdBCvhigbCGgp6Rtg3GRjqu9TiPgr0fRHh+YmEGTDgvi+EZ3C2lzmQ9aF+bHevsd8R7mODcin4icT0+qwQiCAou1Ktn/KHcT4oSbHnxo5YRc+HwlPDrYMzJ+z8gWjzlLj8hiBF7ri0WaB/sLAnh6rdkSdcaw4qqhGDYOxa8IOYvw0n4wvI6JLHNHogxAGVsYU9XQfVNe9yrwcf5RArp/+dA9ovlFUchPW/nYEKSzonM+68WqucTUQqC8ESBBOiK7q++O0O0jpNiuVeA511JatvpZBw9spESBaL6azB03+3XY7yPBtlvQDIlzRgLKBQL0gwIzrYxn1SlME2SjHjxBAjbdB9bI6Gn5CBx85S8k9boogpdusOmsP3VgjdY3AU6KiHj4VAlPeYo08h3wLzN+va9gaztcHAkRXiensdZYIUqqkLiBXHwg1vKxnBFhHPFammmbZHWTkYf1BIjQqidTz6qlx35nxUCyjHl/OzWkJosnxiwC6scYxarhX1wjwxaKSK5s3Ni1BXpalT24FZwH6eJgwFBV1Wr/C5EuYbNVkicNkL8B/awMl9lHUv9raQUoP68n490H0rTA53iCIP9EKHUGYrxMzuWmrrFT8S1sqMszU50SrM6/C1iCIV0hP1BMqghDeaibu3G9VbvN0aFUkyPA3kfhSgL7pD+zWtTYIYh0zJ2aEiiDgH4pK7rJKfpsiyKbuDrFYFPoC2qp3Ox8bBKkUdnd+HyKCbIlE9M6ZPWu1SkiYIsjwLpK4EeCLKgkMwu8bBPEnCuEhCN0kKtmLzaBkmiD9pxw8R49EjF2kxYxgP8c0COIP+iEhyKBQLHa2r1633gxKpgliCAtyR9zxzjYIYib0zo8JA0GMzrXRdNZ0YRJrBOnqTLCgG7tIoK8GQfwJTygIogudVroDWCLI8C4iXc+My/0JgTmtDYKYw8npUUEnCBGWRNOqpXNOlgmy/oQDd2ttbXmUgQOcBtgpeQ2COIWkNTlBJggBLwwMDB41535rBQYtE8SALC/HFxHoTmvweTe6QRDvsB6vKcgEYfDZMSW33CoytghiKNFS0u/BKFXADtrVIIg/EQksQQh3i2n1c3ZQsU2QTcn43CKVjuUG7rVvgyB2lkL1cwJKkMEI85EzM7k1djy0TRBDWb8sXaMD37aj2M05DYK4iW552UEkiABc266oV9tFpCqCrF94wIzmra2PEaHDrgFuzGsQxA1UK8sMGkGYsXZb28CR1VTarIogpWeRpHQGCL+qDJ93IxoE8Q7rQD+kM84UM6rR+s32VTVBDM35VOJWYv6abSsaExsIOIwAE90Ws/DFvJx6Rwjy0tH7tm3bedc/APiMw342xDUQsIPAn5vfffvE/R7ZvNXO5PFzHCGIIXC4zS8bJNmjWqMa8xsIVIHAG0WBTpy9KutISpRjBBm+1ZLOIobljzFVgNGY2kBgAgJMWBRLqyucgsVRgpQe2uX4EoAqntRyyoGGnAYCHyHAS0Ul52ieoOMEGSZJohfgUxqhayDgHQK0WlSyXU7rc4UgxhHdoaJwPwH7Om1wQ14DgckIMLC5KaKfYOYIrVX0XCGIYUR/KtGtM99j1aBAjWc8Eih73DKGcLRbor2QKxCd2p7O9rihyzWClB7a5cSFBL7ZDcM9kUl0p5jOnuOJLp+UFFLSb5jxeZ/UV6+W+Rwxk3Mts9xVgpSeR0JYeG5c1NaIinpo9VEMrgRNltYCODi4Fpa3zIvW364TZPihXfoFgC+HMAjvi4o6I4R2mzZZk6UPAOxgekJABhLhymhavd5tczwhyPBOIq0G4WS3HXJafjHSvMfsnmfedFpuEOQ9J8/5eCuaXw+CLVZsYOYbYpncpVbm2B3rGUGGd5JEFmDJrrF+zCvqfMzs3lxNPqxv6IofHRHoT37gal8n94pKLml/vrWZnhJk5HbLqKT9CWtm+jeamW6LZcyXifHPUuuatVTiDjCfbX2mPzMI0KKKGvNSu+cEGSFJeMrkM/4uZtT/7WVQvNKVT8bfJKLdvNJXrR4/jjH4QhADqIIs5RkQqwXNi/lM+qmx9FpX3rN7Yf9UOgpy/IsMussv/Rb1viYq6ictznFkuG8EGd5J4hmAHE8PcASZcUIIWBFV1EVOy/VTnibH7wLoi37aYE43qaKSTZgb6/woXwliuJNPxpcR0SXOu+awRMbnxIx6t8NSfRGnJaXTQPi9L8qtKGXcK2ZUX3P6fCdI6XYrJV3BjB9Ywc7rsaXCY0NNx825d03oXouOx2r9ybdCCAAAAAS+SURBVHP3bG0aeijIhf9G7L1dVNRzvY7zZH2BIEhpJwlBWgqBfh5Vsuf7HbRq9BfkxM8Y/JVqZLg+10RrNNdtGFEQGIKUnkmS8bNBdIdXztvRY7dCnx1dTs8JekVMw18v0kes4BooghiGG1nAReZlQU6VJ/DpUSW30grQfo8tyPGFDPqd33aU02+krEeILnUrK9eu34EjiOHIcMu3yLIgH7oKE0mCTg6AVkcixUvdOM9hlxij8wJJkFHjgn58NwwkCT45nD8mWy0pxs8PNEFKD+/DhSB+FNhqKYSLxLT6YyeD4pQsLSV9A4ybnJLnsJw3mLDYyQILDttXEhd4ghhGjpQUMkgSyLpbDP4dQ796lrIu70aQrMrcKB8cIwjXEOh0q3M9Gv/nokCLnSrN46bNoSCIAYBRnG5wl91+FOAKjq8ScHVUUW93M2CVZBdk6csMXANgr0pj/fi9UfGw5Z23FjtR1M0L+0NDkLHnkqR0BgOXB61g9liwiP9IbKSm5P7LiwCO6ijlVhHOAtN8L/Wa1WUUkiZgSbW1cs3qc2pc6AhiOG5UlW8baL1MR6lXYuD6kwwHh1WDKG1t21bsvdJa2y+zwX1l4YG7bd3afFaJGKCgnrMZFIAlW1sHllZTZd0sJk6PCyVBRkEoNfER6PKgdroaech7hcH36RAe5UjTfdWeTlx3ykG7tglNx4JwHAFdDOzt9KJwTB7h7ojOS+w2r3HMjioEhZogo34bX4gF0GUhyC8yTH6UDMKQ8JhQpPeLwrb3I9vw/ocCvy/8U/F9Y4D+QWTHHXTasdiMHSN68456hHckXZ9HgvBZZg7kLdT4NWjkrengpXZ6Alaxll2ZWhMEKd12Gd1321ouC3qLaleiGCChRqvlga2DS612kw2QCxNMqRmCjHr1YrfUUdR5EYMWgRGa03JBXSCm7CK8ReDlEYGW79+jGmWEauaqOYKMRmZ9V+c+TYK+KAKcxUB7zUQsQI4Q0F8EVgzpwvI5vX0vB8g0x0ypWYKMEcXoozjYtgjMiwiY6xhydSyIgTUgWr6tZevyML6ZshK6mifIeDBG+ikaR2dPsAJSY+wYAveDsTxs3zKqiV9dEWTsrVcqcRR0vZuIutGoQF9p/Wxm5h4IQk8snX200uBa+31dEmQ0iE8sPHyHPbZ+2A2ibgK6GYjUWoDt+ENAkYEeMPe80bZDz6dXPvmhHTm1MKeuCTI+gBu6O8SmIaGbibsBmlcLwbXuAz9NTD1DTXrP7J61mvX5tTejQZApYprvko4jgbsIdCQDh9Re2Md7xE8z4wkwrY71qg/Vtq/WvWsQpAJm/XKinUk/GkxH6cBRBOxnHebgzDDKdwL8gEGKYgRPzF6V2xwc64JnSYMgFmNSSEkH6EzHEvgYAMcC+JhFEV4Pf5vBD4DwgC7wXxq3TtbgbxDEGl7bje5Pzd27WBwSBcEoo0qiDo7RcEnVmVWKtjp9EwOaAMoDrOk6tEikSWtPr3nFqqDG+I8QaBDEpdXACxdGCkObRB7SY0SCCOi7EwkzdJ13IuIZAO0EYAYRjfwMRqMe42fG9R4ztggCvcfMWwBsAfg9Zhr5mb4FEN5k1jVqEvLRppkarVxZdMmVuhb7/wGqywLg+2nobgAAAABJRU5ErkJggg==;fillColor=#A8DADC;strokeColor=#457B9D;fontColor=#1D3557;" vertex="1" parent="1">
          <mxGeometry x="930" y="500" width="71.48" height="71.48" as="geometry" />
        </mxCell>
        <mxCell id="dSbTfwvZeGPVF9yTLijO-112" value="" style="shape=image;verticalLabelPosition=bottom;verticalAlign=top;aspect=fixed;imageAspect=0;image=data:image/png,iVBORw0KGgoAAAANSUhEUgAAAMgAAADICAYAAACtWK6eAAAgAElEQVR4Xu1dC5RcRZn+607eCWuU5ZHp7kCQrMqyMD0jrAoICB7JBNcDRlhdWIGEh5nuBDgLmpDloUI4URaSvh2QKB3loUhEVGIQFZHnKkzfIbiIgAQzt5PIyvLKYzLJdO35e6a1mem+t/66VbfvvX3rnDk8uup/VX23qv766y8GcYktEFugoQVYbJvYArEFGlsgBkg8OmILOFggBkg8PGILxACJx0BsATkLxDOInN3iVi1igRggLdLRsZpyFogBImc35a06F23pgqGhrjLng5wZTzyTT76gnElMkGyBGCBkk3lv0HHxpumwt+0EgxnH8zI/DhjrGkOVwyvA+JOMwRNtQ8aPnlqd6PfOOaZAtUAMEKrFPNRP92w5CKC8ABjMB4AZBFI7AeDHnLPv9eUTPyK0i6t6tEAMEI8GFGnesah/NpRhAQOGwNhXpI1DnYcY8ELRTN3hkU7cXMACMUAEjCRb5YiLNh9ujDfmMw4LAGCaLJ0G7X4LAIXXt+9Z+8raWQOKacfkRiwQA0TDUOjqeaWTs3HzOfAFAGyCBha1JH/PGCuwCazQe0P7XzTzajnyMUAUdnln1v4Qx2UUR2D4XmycUYZgb2GjefAm37lHlGEMEAUdm+7Z8tGRzffZCsh5I8H5mxx4wSizQvHm1EZvxOLWMUA8jIF0tnTyyGxxpgcympqyIWBQ4AwKfasST2hiEnmyMUAkurgja88FzuYz4KdJNG9Gk7sZGIWi2f6zZjAPM88YIITe6+zpPw0Ym88B5hKaBanqT6EMBWt1cl2QhAqyLDFABHqnM1M6c9gjBScLVA9BFfYIg6G1RXNmIQTCNlXEGCAO5k8vss+GcsVV+9Gm9pIm5gzA4sAKu8vjC8+t3n+7JjahJhsDpE73dfT0L2Cscur9oVD3rrjwL+Fmvq1tb6H3poO3ijeLfs0YICN9fNhVfMKE17YsYIBxUrwz+l0/VkMO8GcMYylzVoijiYft0/IAOWzhq9MmscEFYMB8zuHwVgRGHZ13ALCCwaHQm08UW9kmLQuQo3vsffdWPFKVzffsVh4ELrp/GxgvWLnUr1vRRi0HkK6LX5lRHho3H4YDCA9qxU6X05nfyzgrFPPJ++Xah7NVywDEw12McPasJqkZYw9yGFpr5WZ+VxOLQJGNPEAU38UIVOc1WZgnOTMK098zo/DwNWxvk2XRxj6yANF8F0Nbh4SNMAP4HedQ2FseKjx780Gvh01+N3kjBxCf72K42beVfv8TRhG3GUahd1Vic1QUjwxAmnwXIyrjQYUerzFgBVx+WbkZz6kg2EwaoQdIoO5iNLMng8d7EDgUDOCF3nzqN8ETT0yi0AIk2HcxxIxfrXXojDY4dIZR+c+Xtpbhpa1DNAKBr83vgsqMkvhF4EUdJWDoABLCuxiOY+KckybCuSdNfEed3P0DsO6JwbCNJXd5OfykDLzwTD71Q/fKwagRGoBE4C7GmB7vOGQcrFwwpe5IWPzNndD3cjS9p4zBrzA40lqVvD0YMGgsReABEr27GH/rjGvPmgLHHjaubu889txeuOIOzBcX5cKf5mAUJo8vF568MbUriJoGFiBRv4uBg+Huy6bBge8e3nuMLtteL8OZX2uNKxqcwx8winhoaHxh4y0HvhokoAQOIK10F+PX1/2d41g4fulbQRorfshSws28AXvX9uZm/tEPhm48AgGQVr2LEQOk0fBkb+GMUtmn5JLPuA1inb83FSCtfhfj+5dPgwOm119i/fmNMpyxojWWWA0HOAcOmOOLG4Xe1YnHdAKhIVSbwTS+izFsdadNet+mIVi8ZkczuieoPO9BsFhmaoOfAvo6g8R3Md7ZtXj+gecg9craX+6Gwi93+zkWwsGLsduGJrYt2fh1fzbzvgGkY+HmcxgzrgIGB4ejJ/RL6XQOsuyOnfDoc9E8B1Fg2RcYM5YUc+33KqDlSEI7QLoym94/BOOuYMDO0q1M2Og7AWR+bkcEQ07U9hAHuLHPTF6qluo7qWkFSEem/2oG7CqdCoSddiNPVgu6eOW6ksFTxu7dH++99b1vyhFwbqUVIOmMvR4AunUIHhWaMUC89yTnfG5fPvVT75TGUtAGkEOzL07ch0/GG2aTdQgeFZoxQLz3JAe4ts9MLvNOyUeAdC0qHVsu80d1CB0lmo0AMvfLb8P2AR4lVXXq8rBlJk/UwUDbDBLvP9y7C+OwMB6rXom9WO72q6mxxxhMTO29le0htRKorA0g6Yz98+hkQxewpEQVJy8W3gfBeyFxEbMAAzipaCYfEqstXksnQDBWO95/OPRF9tRJMO8j9d/4bKVoXvHh2rgmB35Nn5m6WgWtWhpaANL5hT918ba2p1ULGyV60yYx+FZ2asNwd9Q1XmaJ9zgD/mDRTH1CvIVYTS0ASWf7FwFnK8VEaM1aXz1rChzX4LJU1SJ4oxBvFsbF3QKMsbeLuYTz/QF3MmNqaAFIZ9a+m3M4Q0KeyDXBhAwds9pg2mQG6VltFf1w7yFa0JP10pYheHFrGXDZhQkdMLFD7OEaa0ED+BG9ZupZUduK1NMCkHTGLgFAu4gAUauDgMBrtAgGChCodqgFDoIGr+i2OmgYNy4s5ttvpdrSqb5ygByR2TarDfa+rFLIoNNCUJzSOb6yZGp0hdYPHTYU98Bjz+FfywY5ftsyk+eotLVygKR77LOBwXdUChlEWrjJRlB85pgJTQVFPdvgTLKhdw88UNzTagGPL1hm8n0qx4sOgNwCDC5UKWSQaOEMga7ZOV3jAUES9IL7lnseH6yApSWWYGzX/lZu9v+q6hflPdyZtZ+N4lNmCIbMqZNgTud4Vbb3lQ4CxVw/EPk7JoyxfynmEj9RZVylAOm4eNN0tne8thT4uKSpDtC3B6Cy3sYvo+6Ct/5wKRWGGcPNFug6Xv6DgYpHTFdBO807ZkKlr6p7Mv8Ayq63zMQSVbqpBUjWnss4aHmiq9H1VPTgLF83oGWtjV6oJZ+eFLg9horOx+u86x4fVL7sQptde9bkhh8THw4/f22ZyRNU2AhpKAVIOmNfBwDK0FtVEr9I66/cx1Hn69ftAvTiqCjIrzprqKAXVBqqv+o4Y3xpnnN0kf6MkXyPZabqx+9IdIRigPQ/AsCOk5DDsYlTUF9tQxUgifKs0cjIePcdbedlE48ubowOcCv6AYISGEdZZruSUCfFALExb3/9RE9ulnP4XWQGqTb3AhKRL6AHNQLdFJeqi9fslAIJngOtPH+K0B7NS/8IG5DxxVYutUq4vkNFZQDpWFj6CDP44yqEqkdjybzJlXMHkSLTCbg00OmhwkRw1stDlc2xtWkItu/ilYPFRml/avXEFED4lZ/xbgbDb4m0QfqQNpiq2M0ss5+jgAPpYzIK/YV9zzITn1XBRx1AsqXLGOcrVAhVjwbOIpiJUHRQiIIE6eLXDztadcHlBHraEBD1vEZOebFGA6RejiyUGc9jEGiNMjRSdcJlFs4kIo/4UGbcHQMcFgnSpcpcp/5my0wepICOuk16Olu6Dzj/lAqhGtHAAbFk3iThwYyDCr++jYoOcGBGxHWPD3/x3YpXgNTSR9ugKxrBIvoRaSQfggQ/MI10QLvhjOsWjVyl72X55mbDhr/zwYOt/CF/km4/0lDZDJLO2H8BgH29CiTSHgcWDgaRgYB+/8JDg2Meo1ENDjyPQUBSzhdUAqRqN9QLbSNqHyd7j56F8UyjGl4jciaEswae4jcjQyQHOKPPTN4jMp6c6igBSFdmy/vLUP69V2Eo7bGzcF+CoeQiBb9iuAfAJc+2N3jFV69iWYXLqNx6uYM3HQBRDRQc4BiqP2M6I0Une7GLSH+61VGVVE4JQEbe9FjjJrSO33GaR6CIzCYq+eOm+7p1A56eSRN1PHjJ04tferzaK+rg8GojFXbxKgO25wC/6TOTH/JKSwlAOntsfMtBaZgxRTHqbEKhXa8uJlQo/GK3lEu0lt7K86cKzYAqMr3j+c7SeZOUbebr2QWXmZhowst5ite+qW1vDBpTe29t93QlUwlA0hn7BQCYrVI5GVqiSxYZ2tgG19RL79jladZoFkCQr87ZRNRrKGt7qXa8fLyVn/mIVNuRRp4Bcvjilw8YPzRhmxchVLYVPdGl8sSlw9Lbdwm5P0Vp+zmD1MqEG/jM3EmiYrrWwyhh3KsErTDGLi/mEl/zIpdngHRm+0/nnP3AixCq21L88yK8dbkpmwUQ1BkdFKvOn+J57+ZP6IhIL42tw4DfVzRTp8m1Hm7lGSDprH0DcNCagl5GQafXmyj0dIEDZcAATBF3qa4TaK8gwSXnebkdJNc2xfbe67I/W2biQC90vAMkY/8GAI72IoSOtk5pPUX56QQHyuD2iGetnLqeQ/Ay23rxron2gdd6rLz3sOLqg6WPIDwBpOsCPr48oRS8xeeIVUWXMI06Ab0xVyjclI/m02yAIDjwlqTILFbPRviOO+Vg1Otgl2rP4d+tfPJ2qbZel1hHLrRPNAxQng9VVpnR7TBzoYrDQNyA4kZUZaHOcCpnEFXXh9Gtu3zdLpVmUU+Lw81WPrlQlrCnGSSdtZcBh6/IMtfZTrWnBpdbOJuo+mKK3nGp2ggzLGLYjNdCjWdz46dKLjc+Hn7vs8xkWra9R4CUNgDnp8gy19UOv5B3Xz5NeungtOQy7x9QcnOxGQDBbCznnjxRqV3CkGTbGDT26721HWMFycUbQDL223j+ROaquYFoCIesGCpu4FEPNb0cxFGjb6l28SIblZdMfVbmc4qrUw9ItZVphG3SWftI4NAn215XO+raXlYOrxt4KkBkPUZ4cIqh6bIbcRH7oC3OXLE9MCEmdWS+0jKTUlsB6Rmko2dzD2OGKWJAP+vonj1G64IbeBy81PgjqoeNuiH2O/GELIB9GhsbLDMp9ZisNEDSmf67AJiSa42qjCQze2Ag4AO9g67ZOJxkxHU45pqibKKpAKEELHpNPIEOCRzwIkkYqnYJ9l6Ev2mZqeky48wDQGy8rTVThqmuNk4vNjXiWfXCqAibp8wmlDMQlB1nKHzY06mo2GvUHo5SQRzkvQgbGvpg8eaDeqljTwogXYtKM8tl7vk6I1VYt8FB9VyN/ip7Db1A+URmE5mZDmk7nYXgfQ/8QHjZa4yOHKB62nSFxKgYJ4zBRcVc8htUWlIASWdLnwXO76Iy01lfJmSi3kmwqnMCTGKHLuF6exPZiON6Zw4ob3buRNJtv3r90OguBzWmDbOWiCR80DkW6tJm7DYrl5hP5SsFkM5syeSc91CZ6axPPTV32vSquq+O4MALRLX5g70sg2rz6qrchDvZgjrbBfh13uctM/kB6hiUAkg6Y6N790gqM131qZ2Icrh96XAAokcMX4vyWvCLmlu/G/aZBJV7GF4f2cHZCWchL8upqk4i3jHKLBLkzbphsIN6VyU2U/qTDJDDFr46baIx6LxbpEigoC41rAQvP52xYrsQZ7/dxkJCKaokAg5kRV2+un18FIlPJsMY/3Qxl7qX0pAMkM6F/adwg22gMNFdl7q8ovrsowgSiseJkvoV+5pqX93jo4b+cstMLqXwIwMk3WN/BRgsozDRWVdmeSUTph0lkFDAUe07iv6UMxudY2M0bc7hV3355McoPMkA6czaD3EOJ1KY6KxLnf69uCKpvHTqLUtbBhzIi+p5wzMbanSBrE6EdgOTxvP3PHljSjhGnwyQdKZ/EICJZZEmSC5blfJlUzH9hxkksuCo9g3lcDOoYfCMlT9azM18VHS8kQByZLb/aIMzvGIbmHL3ZdNIXiEVHRdGkHgFB3Y45WQ9qPsQBnBp0UzeKDqASQBJ99iXAoMbRIn7UY/yVUN5VE391GhcP2zRiIcKcCBtSihPcLOd8LssM/Vvov1BA0jGxvQ+p4sS112PGgpBce+KyE5d3onQVF1HFThQLsrM6WWvp9oG76THNllm4hBRHkSAlLYB8ANEieuuRz3/0PFVCzJIVIID+xLDWtClLlpU3qMX5SlSzwDjA71m+/MidYUB0rGofzYrM0wxGphCXeboygBIPYepNaATaL2ATzU4qjJTlrSqlrOqBxwDfnbRTN0hQlccIFn7HMahIELUrzqUEAiUScUGvZ5u1IO0Kg1c8p23aoejO1QGJDrjoSgbdV329jq+GMDKopm8WISOMEDS2dIa4HyBCFG/6lA6SydAqHuhqn1EBxB1htK5/qfYXFQ/v8bLX/lweMLKJ48R4SsOkIyN2eneL0LUrzrNcPHW04261EMalK+8THSxrsFJAYiuJa2K8TWew9//Np98zY2WEECO7rH33cNAKm2KmwBefqesh5GPTIiJk3wY5oKpdPAhTUpkrcwXXmYZ1+j5OS82pyxrg3oWgvozKJ9SNGf+zM0WQgDp6Nn8KcaM+9yI+f07FSCqvCoYAn9K5/CDmTJFNIq2ljbVg1TbFkPQ8Z1AdAh4Df+gzJbBBggsK5rJa936TwggnT39Kzhjl7kR8/t3PwGCoDj2sOEnlymzRT2byNyZoMZCNeoLvEuC7zQiWGRKdAAi9jSCEEDSWftx4PARGYPqbKMTIAiCjkPalIFitB2oyz3KwBSxOc4kmACPChYKUIM8gwDAFstMJtxs5Q6Qq7iRfq005EaoGb+rBgjuKY79wLjK/W7Z5ZOoHajnFJS1v6gM1XpVsOCexW0ZRvHYBRwgYHDW1ZtPFJ3s5QqQzuyW4zgve3rnjdphovW9AqR2lkjPaiMFPYrK2KgedR9CdfV6kQ+BYm0aquT5wrsdtSVKAGGcX1jMp271BJCOHnsJY3CdF4PraksFCC5r8F113PCmDxn+Z7MKZR9CGZSq9cHZ5aUtQ38FzOz2NuH3DamzpGrZ3egxYGuKZuICTwDpzNj3c4C5bsya8bufX1Ud+uEXGjfNtVlPavngkg+TPOhe7unQDWnqOotRJS8DsIpmstMTQNIZ+3UAkErbqEqRRnQoh1a6ZfFCf7QbVtUDN15kUtE2qLFYtbqNK7OZT61O9DfS13EPcsRFmw9vG2c8q8JYOmhQ7ifo4K+aZnWzrMKVrFo2GXo4O+IyK8iFcX56MZ/6oRRAOrP2hZzDLUFUEPcPK8+f4vlMIoi6RUkmpwyTQdCTcbiumE9eIQWQdNb+DnA4OwiK1MpwzkkTAe+CeD2wC5peUZVH5Um+ahsx4A8WzdQn5ACS6X8ZgM1SLZQMPdywYoJmvNXmNTOhDP+4jXcLVJeQ6BXDeLRtb3Blbz56kO7/3rV9T+LhtbPqvtLacA+SzmxuBzBKHhgLN8UBf+gM/Hun2xVniNn4/9vbmjZbYEduH4C/vv2B5wNYsJPrxTWpyBAvbLiairUXr9Ce1Y8Inu9gQbmmTR6259RJrsdfMiIoaYP2fnFrmXzC74W5UWbH9a5OPFaPRkNLHdljn2EwuNsLY7e2uFQKyoywY4BXOgZdr9hJW1/n0lnKKXe33Wwk8vvoZwtE2uDZCuYKRuBUARU08OAHaPGandL9IGIHrMM4XFLMJ28iASTdU1oJjC8SZUKpJ3O/gUJfpC6eEOPAQkAgMFQ974y8ZbI9isjcqA71VN6NF4JnxnRW0WMYQKxph6oIEsz1q7J/RuvPOLuzmE+cRQNItvQ0cN7lZkyZ32WukcrwadRGR/KGWl5+zyAir095tZ/OWDA32VR/AMYCBP5QzCfrXgasu8T68CX9kwf2sJ1ugsv+Tg0RGc0Hv/617wHi2hrPDg6YbgiLpPMQqxkfgGV37KxE5+ooXmbE6tIV5ZJdwslcMKPbwTjKMtufHgOeeoTS2dLJwPnP6UzEWlABgskNsPPxz+mhTEroic7roOuv3Md3p4LOrywl1B4BgY8G4bK13ktTCDZ0HODdGtG3V5Bmt8v7jGIjr3EtzuCKvlxyTMxh3RmkI9N/NQN2lVemjdqLDmScKfAmnOjrsZQ8WZRgQYodmhVYqOutctwvUt5+pAAVaeN1Zew3p9nfp7D5hy0zOSYpe12ApLOlHwPnn6QMDEpdJ1dodbbAF2OpGzPqvW0d0abNDH/RoQ9l9sAxIPt4Di6R8Rpz7ayCYwFnI11Lx3eOWfa0ZSaOEltiZWw8/2inDHpqXZxq0SgV//wkVpmO0RBeH4CkrP91zCLUTCtVu43+8lL0qNJQ7Xygzh7+7BWoI02sPufwh746G/X6M0jG5mJkg1eLusRR+dWlXEettVyjgS26FK2lRb3K69SD1NlDpS19H1kcSlY+mRSdQV4FgP18F1IRQ0oYvMq1u8xX3ym7osypvCrnA9VzpToxuKKhQCDD37TM1JhrHQ1mkP5vAjDym9IEabRWpc4ilCRuToLLeK/c1uwUxwPKpmrZuHLBFNLb66GePYY7dcgyk2PyONUFSGePfSpn8BOto1gzceryxOvtN5nDQVHvDGVGRLP6rUv4Zw+0GrvLMhNj3g1pHKyo2ZOlGR/kN/Xwy4tfc9nEatSTZsqGFpc7t2WnCgcZUlyto/tB5p5NBGaPNw3gx/WaqTGXAxsCJAqzCPXLi140PJGmFup6XeYrT90wy0YKUGdeCtCpdvWvPl9imanr6/FzjHvWfR6i2wAyA1d02VMrO3Xwyu55vn/5NOFwGpnN+pfmTa5EV1OK1+UchZemunUPCKu8HAFyZHbr0QYf+ikA7KtJOO1kqYMXBaIuGShnHxg2ccaK7VJLOYrzgbpZl7GTl6Wc9o4XZMCBn9hnph5uVN315kxHZsvnGJTvFOQXuGp42HXboqnCX96qAqLBf5RBKwO+0Qal7HVEv+4yDgYvQA/KIOHAr+kzU1c7yeMKEGyczpauBM6vCYpiVDlkM6OLzCSUAYuxZYvX7KCK/476lGWjyBdeBhwokOgHxJOyGhszxu4s5urfAallKwSQYZAEM4GDqA1llhBuX3zKYEVabmceOnRxOlmXBYfsHkpUPx/q/XY8h25lD+igwF0X/PFd5QkTNwDAh31QQAsLqlerKgQGzOGgGF0ooBP5mosqjctG3LCL3C1v5HTA684oP7VEwGv1OmPQXcwl/1tEd+EZpDKLZLZ8EKCMm/ZQhqHI7kdQ93pJ0EQ35zrW66In7PU26zLeKrQB6nGe5uuvIoPWSx0GxtlFs13ohVvkQwJIBSQ9pX8Fxr/rRchmtpWJb6rKi1/PK+7YVQnnoCxPZFzHIjYSdftW91K4JLz2rMlS98sRHIt8SKAgord0Hca/bOVSpHtOZICM7EeWAYevSAva5Iaym3YUG0/azfsHKjm60IPlVkSeenaj0eh3UZDihTNc4mVOnSR901HEYSGrhz/t+HctM/U5Ki8pgAwvt+y1APB5KsOg1BcdXF7l1T2wZPdVFL1060CRRa4uf9qY2Dan94Z28kO00gAZAQkm2xJ6b1pOMb2tdIPEjyA+6jkM1aLhBwe8ARy6rXzySaruUnuQWiZdPaXOMuO4aT9AhnkQ2uAlJ7zHIeIRosorelBHpTu6vq5ZJALgwF32561c8juyNvY0gyBTPzIwyion2s7Lxr0RDxWHgqLy65hFIgEODl+18sn/FLVjvXqeAYJEO7L2UsbB9c1pL4LqbosgWTJvkpSHp5Fs1VdkESzUBBRu+lbfV+yYNfzgqKqE3uitWr5ul0+JEty09PI7+55lJj7rhYLnJVYt846MfRsDONerQM1sj4MOs5Kgh0p1qSZlHs79Wz9nlBPPaoJvBAQmYBPxoFF1wD3T0tt3eU6cQeWrvD5jvUN72ro33nIgXh33VJTMIFUJ0pn+RwDYcZ4kCkBjPITDU2Yd+5Ja9SqZ43dxeHsAxgxKnNEwuTRmjfTjsVGc5a64fadUlHEAuqxGBP4WB6O7z0w8rkIupQA5ssf+B4PxhwHYDBXCNZMGfrFx846v4ka9yNwdCapNeLl8bt/qmXgEoaQoBQhKlF5ozwMD7lEiXQCIoCsYl126Z5NmqIoz2PJ1A+FfUo0YjwNc22cml6m0pXKAVECSLX0ROK97hVGl8H7RkslW4pdssnxUJ5mTlUNVO87g+3255Jmq6FXpaAHICEjWAOcLVAvcDHrUZNvNkJHKU2V0MZW36vr43nlbeU/3U6tnbdNAWzXJv9FLZ+xfAcAJ+jj4QzmKAPHznEZzL203DDand1X9J9S88tY2g6BgR1y0bf+2cXt7AWBMSkevgvvZPooAod5Z99PeFF4M2HlFM1GgtKHU1QoQFKQja89lHO6nCBWkuiKn1Pg1xsO14Qzl431xyzayEe4tHntuD+Bjo26h7X6Fwmjsz+WWmVyqkT79PoiMMJ3Z0mWc8xUybZvdxi2gsZ6LtJq5Hg/10oe0afWA4eGe9fLwi1t4cl+b+M7tLchQ70M4rLPyyc/oHh/aZ5CqAh0Z+xsM4ALdCqmm75SUQTReCQ/6qs9ZDz/3MPy6LLXUPkmN/47AcMsE6XQ9V2XibqouHuv3GeMmdvfetN9Wj3Rcm/sGEJQknbF/CQAfc5UqIBWcHuRRcUuw9j1zJ5UbvckuaianC2Iq9BCVQ1G9HcDL3VZ+5iOK6DmS8RUgh2ZfnLgPn/wCAMz0QzmvPBolZfDjzTyvso9u30gXP55ZVqsLX2CZqW+ppdmYmq8AQTG6FpaOLRv8Ub8UlOWDX3fMU4uzyOgSwq+u49vtsjmJZW0r345db5mJJfLt6S19BwiK2JmxL+EA/0UX178WXz1rSsUrVa+ofMXJP40AnPZTIUgE9wPLTM7z017IqykAQcbpjH0zAFzkt8Ii/JyeUgtziIaTXoHesDPYWN7Du5+5JYVvZ/pamgaQEZDgW+wn+6qxCzO3hytD8KV11NDp0DOgS61dHHi3U4JpneOnqQCpgKTH3gQMDtapJIW209IK6ci+u0GRQWddt1zCQTs85Jyd35dPfFOnTZxoNx0gXZn+fyoD29gsA9TydTs1j0L8kltGxiAdHnJgK/rMxBebOTaaDpDhWaR0HjDum+uukcHdXqmNwsUit4TbQYnR4sB/2HwpAq4AAAP8SURBVGemTm8mOJq6SR+teGfGznOAhc00iFuu3bB6r0bb1G2ZdfzSt5rZDcCB/67M2JyNuaTdVEGa6cWqp3g6U3oAgH+iWUZx2sBGYXlVtavTUtKPZHcua/4BZkB376okXpVoegnEEqvWCumM/RIAvLcZlnFKBh20zatX+zRaTjZ7Gck4v7CYT93qVT9V7QMHkKMWllJ7Db5ZlYIUOo02sBF4MKauGUaHnzR7g86Af71opi6j9JnuuoEDSGXTnun/NABbp1v5evRHf1nDGFZCsRue+xza3lZJP4QRws0qDNh9RTNxWrP4N+IbSIBUQJLtvx44a4qLrxKSPpmB1yjaoHV2cOVh/2NU9h2JpqwcXPZEwTVbOmNjYuw5wZUwlkyBBQZHsq/jVYjAlcDOIFVLpTM2hsfPDpzlYoFUWeALlpm8RRUx1XQCD5B/zr74d4N88htBc0mr7oiWpMfhBiuf/I8g6x54gFT2Iz32ScDgF0E2ZCwb2QI/tszkp8itfG4QCoBUQJIpfQmAL/fZPjE7PRb4Pd+7p7vvllmv6CGvjmpoAIIqd2T672XAAucKVNcdLUFpLzA2x8olQrEiCBVAKiDpsZ9nDN7XEkMpikoyWGjlknhZLhQldAAZXm7ZewGAnjcnFF0SXSE5wI19ZvLSMGkYUoBs/iCA8VSYDN3qsnKA+/vM5CfDZodQAmTEs/UFYLA6bAZvTXnZ80PQ1r3RPHBT2PQPLUCGN+2l2xjwUL+LGLYBIyHvUJmx7mdyiQcl2ja9SagBMrwf6f8dAPvHplsyFqCuBRgvZ4r5mfmwmif0AKmAJGvvBg4TwtoJUZWbMbipmEteEmb9IgGQzoWvHsqNwRfD3BFRk50BrC+ayVPDrlckADK8H+n/HAN2Z9g7JCLyv2CwcndvbuYfw65PZABSAUnWvpFxuDjsnRJq+Tlwxnl3cXXqgVDrMSJ8pAAyvGm3HwOAY6LQOWHUgTGWLeYSZhhlrydz5AAyApJdADApKp0UGj04W2XlE4tDI6+AoNEESHbrfsCHXhXQP66izgIbLDPZrY5cMChFEiCV/UhPfzdjbH0wzBxxKTi8wviEjxdX748pmyJVIguQEc/W1QzYVZHqsQAqw8vlc/tWz1wbQNE8ixRpgKB1OrP2hZxDYO88e+7BJhPgwK/pM1NXN1kMbewjD5DKpj1b+iJwfr02K7Yo4aiDA7u1JQBSWW4ttDuAwQkGY8eXOewAVo7cetkPnDLG3ubloY3j+bjnn1qd6PeDZzN5tAxAmmnkmHd4LRADJLx9F0vugwVigPhg5JhFeC0QAyS8fRdL7oMFYoD4YOSYRXgtEAMkvH0XS+6DBWKA+GDkmEV4LfD/KxDbqotE2CQAAAAASUVORK5CYII=;fillColor=#A8DADC;strokeColor=#457B9D;fontColor=#1D3557;" vertex="1" parent="1">
          <mxGeometry x="1150" y="428.52" width="60" height="60" as="geometry" />
        </mxCell>
        <mxCell id="dSbTfwvZeGPVF9yTLijO-115" value="【持续监控】" style="text;html=1;align=center;verticalAlign=middle;resizable=0;points=[];autosize=1;fontColor=#1D3557;" vertex="1" parent="1">
          <mxGeometry x="920.74" y="575" width="90" height="20" as="geometry" />
        </mxCell>
        <mxCell id="dSbTfwvZeGPVF9yTLijO-116" value="【线上环境】" style="text;html=1;align=center;verticalAlign=middle;resizable=0;points=[];autosize=1;fontColor=#1D3557;" vertex="1" parent="1">
          <mxGeometry x="1137.5" y="488.52" width="90" height="20" as="geometry" />
        </mxCell>
        <mxCell id="dSbTfwvZeGPVF9yTLijO-117" style="edgeStyle=orthogonalEdgeStyle;shape=link;curved=0;rounded=1;sketch=0;orthogonalLoop=1;jettySize=auto;html=1;strokeColor=#457B9D;strokeWidth=5;fillColor=#A8DADC;fontColor=#1D3557;labelBackgroundColor=#F1FAEE;" edge="1" parent="1" source="dSbTfwvZeGPVF9yTLijO-111" target="dSbTfwvZeGPVF9yTLijO-116">
          <mxGeometry relative="1" as="geometry">
            <mxPoint x="1001.48" y="535.8" as="sourcePoint" />
            <mxPoint x="1180" y="488.52" as="targetPoint" />
          </mxGeometry>
        </mxCell>
        <mxCell id="dSbTfwvZeGPVF9yTLijO-121" value="" style="outlineConnect=0;dashed=0;verticalLabelPosition=bottom;verticalAlign=top;align=center;html=1;shape=mxgraph.aws3.codebuild;fillColor=#A8DADC;rounded=0;sketch=0;strokeColor=#457B9D;fontColor=#1D3557;" vertex="1" parent="1">
          <mxGeometry x="97.5" y="440" width="65.81" height="80" as="geometry" />
        </mxCell>
        <mxCell id="dSbTfwvZeGPVF9yTLijO-122" value="【代码构建】" style="text;html=1;align=center;verticalAlign=middle;resizable=0;points=[];autosize=1;fontColor=#1D3557;" vertex="1" parent="1">
          <mxGeometry x="86" y="520" width="90" height="20" as="geometry" />
        </mxCell>
        <mxCell id="dSbTfwvZeGPVF9yTLijO-123" style="edgeStyle=orthogonalEdgeStyle;curved=1;orthogonalLoop=1;jettySize=auto;html=1;entryX=0.5;entryY=1;entryDx=0;entryDy=0;strokeColor=#457B9D;fontColor=#1D3557;shape=link;strokeWidth=5;labelBackgroundColor=#F1FAEE;" edge="1" parent="1" target="dSbTfwvZeGPVF9yTLijO-122">
          <mxGeometry relative="1" as="geometry">
            <mxPoint x="629" y="570" as="sourcePoint" />
            <mxPoint x="134" y="528.52" as="targetPoint" />
          </mxGeometry>
        </mxCell>
      </root>
    </mxGraphModel>
  </diagram>
</mxfile>
